<?xml version="1.0" encoding="utf-8"?>
<!-- Generator: Adobe Illustrator 24.0.3, SVG Export Plug-In . SVG Version: 6.00 Build 0)  -->
<svg version="1.1" id="Poland_x5F_Eagle" xmlns="http://www.w3.org/2000/svg" xmlns:xlink="http://www.w3.org/1999/xlink" x="0px"
	 y="0px" viewBox="0 0 500 500" style="enable-background:new 0 0 500 500;" xml:space="preserve">
<g>
	<g>
		<g>
			<path d="M292.7,197.4c-0.5,0-0.9-0.4-0.9-0.9c0-0.5,0.4-1.4,0.9-1.4c0.1,0,14.8-0.5,20.2-8.3c2.1-3.1,2.5-6.8,1.1-11.2
				c-0.2-0.5,0.1-1,0.6-1.1c0.5-0.2,1.5-0.1,1.7,0.4c1.7,5.5,0.6,10.9-2.1,14.3C308.2,196.7,293.4,197.4,292.7,197.4
				C292.8,197.4,292.7,197.4,292.7,197.4z"/>
			<path d="M289.6,210.3c-0.5,0-0.9-0.3-0.9-0.8c-0.1-0.5,0.3-0.9,0.8-1c3.5-0.4,7-1,10.7-1.9c4.4-1.1,8.7-2.3,12.8-3.5
				c4.6-1.3,9.3-2.7,13.5-5c3.3-1.8,10.4-7.4,10.9-13.8c0.2-2.3,0.1-5.2-0.3-7.1c-0.1-0.5,0.5-1,1-1.1c0.5-0.1,1.2-0.3,1.3,0.2
				c0.5,2,0.4,4.9,0.3,7.4c-0.5,8.6-8.8,14-12.3,16c-4.4,2.4-9.2,3.8-13.9,5.1c-4,1.2-8.4,2.4-12.8,3.5
				C296.9,209.3,293.3,210,289.6,210.3C289.6,210.3,289.6,210.3,289.6,210.3z"/>
			<path d="M287.4,219.3c-0.4,0-0.8-0.3-0.9-0.7c-0.1-0.5,0.2-1,0.7-1.1c0.3-0.1,27.3-5.9,37.6-9.5c5.1-1.8,9.8-4.3,13.1-7.2
				c3.3-2.8,5.7-6.5,6.7-10.6c1.7-7.2,2.1-13.1,0.2-19.6c-0.1-0.5,0.7-1.1,1.2-1.3c0.5-0.1,1.3-0.4,1.5,0c1.8,7,1.5,14.3-0.8,21.7
				c-1.4,4.3-4,8.2-7.5,11.2c-3.5,3-8.4,5.6-13.7,7.5c-10.4,3.6-37.5,9.5-37.8,9.5C287.5,219.3,287.4,219.3,287.4,219.3z"/>
			<path d="M354.1,169.5c-0.2,0-0.5,0-0.7-0.1c1.3,6.8,1.3,13.4,0.7,18.5c-0.5,4.2-1.4,7.6-2.9,10.9c-0.5,1.1-1.3,2.3-2.4,3.7
				c-0.9,1.1-2,2.3-3.5,3.6c-5.2,4.5-11.7,7.1-16.1,8.5c-17.3,5.8-47.1,12.8-47.4,12.9c-0.5,0.1-0.8,0.6-0.7,1.1
				c0.1,0.4,0.5,0.7,0.9,0.7c0.1,0,0.1,0,0.2,0c0.3-0.1,30.2-7.1,47.5-12.9c4.6-1.5,11.3-4.2,16.8-8.9c1.6-1.4,2.8-2.6,3.8-3.9
				c1.2-1.6,2-2.9,2.6-4.1c1.6-3.4,2.6-7,3.1-11.4c0.6-5.2,1.1-12.1-0.3-19.2C355.2,169.3,354.7,169.5,354.1,169.5z"/>
		</g>
		<g>
			<path d="M357.6,155.2c0.9-7.5-0.8-11.9-0.8-11.9c-4.5,0.7-8.2,2-9.4,2.5c-5.4-10.7-13.4-10.9-13.4-10.9c-3.8,5.2-3,15.7-3,15.7
				l0-0.1c-7.4,1.2-11.3,4.7-11.3,4.7c2.8,6.3,8.6,8.8,8.6,8.8c-1.2,6.4-0.4,16.8-0.4,16.8c11.7-0.5,19.7-10.5,19.7-10.5
				c12.9,1.6,19.1-3.8,19.1-3.8C365.2,161.3,361.3,157.6,357.6,155.2z M355.6,145.6c1.1,2.7,0.7,6.5,0.3,8.6
				c-3.4-1.9-6.2-2.7-6.2-2.7c-0.5-1.4-0.9-2.8-1.5-4C352.8,145.1,355.6,145.6,355.6,145.6z M321.2,155.8c0,0,2.1-2.9,9.7-3.5
				c0,0,0.6,3.6,1.1,5.6c0,0-1,3.7-2.5,4.9C329.6,162.9,323.7,160.8,321.2,155.8z M347.5,168.4l-1.3,0.1l-0.8-0.5
				c0,0-5.4,10.8-16.2,10.7v0.1c0,0-1.2-13.9,4.8-19.6l-0.6-2.3l0.1,0.1c0,0-3-10.9,1-19.7l1.3-0.6c0,0,8,4.3,11.6,16.8l1.4,0.9
				c0,0,11.3,2.1,15.2,11.1C364.1,165.5,358.5,169.2,347.5,168.4z"/>
			<g>
				<path d="M364.2,164.5c-1.2,0.1-2.7-0.3-2.7-0.3c-15.3-4.1-36.5-8.5-36.5-8.5c-2.9-1-2.7-1.8-2.7-1.8l-1.7,1.2v1.3
					c1.5-0.5,4.6,0.7,4.6,0.7c10.3,1.7,33.3,7.7,33.3,7.7c3.6,0.8,5.4,1.7,5.4,1.7l1-0.7L364.2,164.5z"/>
				<path d="M354.8,144.8c0,0,0.3,0.4-0.6,1.6c0,0-5.1,5.9-10.4,12.5c-5.5,6.9-11.2,14.5-13.4,17c0,0-1.3,1.6-2.2,1.3l0.4,2.6
					l1.5,0.2c0,0-0.5-0.7,1-2.6c0,0,19.4-24.2,23.5-29.6c0,0,1.7-1.7,2.6-1.6L354.8,144.8z"/>
				<path d="M336.4,138.7c0,0-0.5-1.2,0.3-2l-1.7-0.9l-1.3,1c0,0,0.9,0.8,1.4,1.9c0,0,9.1,26.5,10.3,29.5l2.8,1.4
					C348.2,169.6,345.7,166.4,336.4,138.7z"/>
			</g>
		</g>
		<g>
			<path d="M333.3,105.4c0,0-20.4,19.2-24.8,38c0,0-3.6,14.5,3.7,20.3l0-6.7c0,0-1.6,0.4-2-4.5c0,0-0.7-7.2,2-13.3
				c0,0,8-23.7,36-42.8c0,0,22.1-14.6,44.2-20.6c0,0-21.5,2.9-49,21.5C340.2,99.5,336.7,102.4,333.3,105.4z"/>
			<path d="M399.4,71.6c-29.6,1.6-52.3,16.3-52.3,16.3c-28.2,15.1-41.5,37.4-41.5,37.4c-10.7,16.4-10.8,28.7-10.8,28.7
				c-2.1,15.3,10.6,20.7,10.6,20.7c11.9,5.4,22.7-6.2,22.7-6.2l-3.4-1.1c-5.8,7.8-15.8,5.8-15.8,5.8c-1.7-0.3-2.8-0.8-4-1.4
				c-11.1-5.8-7.9-20-7.9-20c3.9-24.3,25.5-43.8,25.5-43.8C361.6,73.5,395.7,74,395.7,74c-2.9,18.2-31.6,40.4-31.6,40.4l-1,4.1
				c2.4-2.4,22.6-19.5,22.6-19.5C399.9,84,399.4,71.6,399.4,71.6z"/>
			<path d="M376.3,164.8c-0.3-5.1-3.9-8.2-7.9-10.7c0.4-1.9,0.5-4.1,0.4-6.8c-0.2-7.6-6.7-14.5-14.2-14.5c-2.2,0-4.2,0.5-6,1.4
				c-2.6-4-6.8-6.7-11.2-6.7c-6.7,0-12.4,5.3-12.4,12.1c0,1.4-0.1,1.9,0.1,3.9c0,0,0,0.3,0,0.3s-5.6,0-9.9,5.3c0,0-2.2,2.3-3.3,7.9
				c0,0-1.1,5.2,0.6,7.4c0,0,3,5.4,11.2,4.8c0,0,3.4,0.1,5.2-0.2l0.8-4.7l-1.3-0.2c0,0-0.6,2.3-4.3,2.5c0,0-6.9,0.9-9.1-4.9
				c0,0-0.8-1.9-0.8-4.7c0-1.1,0.1-2.3,0.6-3.7c0,0,1.8-4.2,5.8-5.7c0,0,3.4-1.1,6.5-1.2c0,0-0.6-1.4-0.8-2.9
				c-0.1-0.8-0.1-2.2-0.1-2.9c0-3,0.7-5.5,2.6-7.5c2-2.1,4.5-3.6,7.7-3.6c4.6,0,9.4,3.5,11.5,7.8c0.4-0.1,0.7-0.3,1-0.4
				c1.5-0.6,3-0.9,4.7-0.9c7.2,0,12.3,6,12.3,13.2c0,1.6-0.1,2.7-0.4,3.9c0,0,0,0,0,0c0,0,0,0,0,0.1c-0.1,0.4-0.3,0.9-0.5,1.4
				c0,0.2-0.1,1.5-0.1,2c4.8,1.6,7.9,4.3,7.9,9.9c0,1.2-0.2,2.8-0.4,3.8c-1.3,4.9-4.8,8.4-9.4,10.2c0,0-0.3,0.1-0.3,0.1
				c0.4,0.4,0.9,1.3,1.3,1.9c8.2,15.3-6.5,24-6.5,24C359.9,224.4,339,224,339,224c-6.4,13.7-21.3,9.3-21.3,9.3
				c-4.8,6.8-13.2,5.6-15,5.3c-2.2-0.7-4.6-1.8-5.1-3.5c0,0-8.8,8-19,4.1l-0.2,2.3c0,0,9.6,4.1,19.1-1.7c0,0,1.1-0.4,1.6-0.4
				c0.8,0,2.6,0.6,2.5,1.5c0,0-4.9,7.3-14.7,7.9c-3,0.2-6.7,0-10.6-1.6l-1.5,2.4c0,0,16.5,5.8,29.2-6.1c0,0,0.9-1.1,1.6-2.3
				c12.3,0.5,14.4-5.4,14.4-5.4c17.9,2.2,22.3-10.1,22.3-10.1c21.5-3.5,19.5-18.5,19.5-18.5c10.8-9,8-22.3,6.7-26.4
				C373.2,178,376.7,171.7,376.3,164.8z"/>
			<path d="M389.2,79.4c-2,0.8-4.8,2.6-4.8,2.6c-12.6,7.1-34.7,26.2-34.7,26.2l-0.1,0.2l5.8-2.2c14.7-13.4,29-22.6,29-22.6
				c-12.1,10.1-23.6,22.5-23.6,22.5l1.7,1.3c1.6-3.4,27.4-27.2,27.4-27.2C390.8,78.9,389.2,79.4,389.2,79.4z"/>
			<path d="M358,110.9c-6.4,3.2-20.3,16.9-20.3,16.9l2.5,0.5c4-4.8,14.5-13.6,14.5-13.6c-3.1,4.4-12,14.9-12,14.9l1.7,1.4
				c3.2-3.3,10.9-14.3,10.9-14.3C358.6,111.5,358,110.9,358,110.9z"/>
			<path d="M363.3,105.5c-12.4-1.2-27,9.1-34.9,17.8c-5.7,6.3-7.9,12.4-7.9,12.4c1.6-1.6,4-3,4-3c14.1-22.5,35.5-25.4,35.5-25.4
				c5.2,8.6-5.6,27.1-5.6,27.1l3.3,0.4C368.4,117.3,363.3,105.5,363.3,105.5z"/>
			<path d="M409.7,190.1c-11.1-15.3-26.1-17.7-26.1-17.7c18.4-8.6,22.3-24.3,22.3-24.3c-14.6-5.5-27-1.3-27-1.3
				c9.9-11.5,8.8-25.9,8.8-25.9c-4.4-1.1-10.8-0.5-15,0.6c-7.2,1.9-12.4,6.2-12.4,6.2l-3.1,6.4c14.4-14.6,26.8-11.7,26.8-11.7
				c1.6,9.3-4.6,18.2-4.6,18.2c-5.5,8.9-12,10.9-12,10.9l-0.2,3.3c17-11.3,34.7-5.5,34.7-5.5c-1.6,7.5-11.5,15.5-11.5,15.5
				c-12.2,8.6-17,7.3-17,7.3l-0.9,3.1c20.1-2,33.8,14.2,33.8,14.2c-3.1,5.1-12.2,8.6-12.2,8.6c-11.7,4.6-26.6-0.7-26.6-0.7l-1.6,2.6
				c4.2-0.9,10.8,4.9,10.8,4.9c13,10.8,15,24.6,15,24.6c-9.1,2.6-20.1-1.8-20.1-1.8c-11.7-4.7-14.6-9.5-14.6-9.5l-1.5,1.8
				c14,15,10.9,36.5,10.9,36.5c-10.2-1.5-18.1-8.8-18.1-8.8c-11.3-8-11.9-16.4-11.9-16.4l-2.4,1.8c5.7,29-6.7,40.5-6.7,40.5
				c-19-14.6-17.8-33.6-17.8-33.6l-2,0.4c0.4,13.1,5.7,22.2,10.9,28.1c-0.2,3.9-1.2,12.1-6.2,18.4c0,0-16.2-8.2-16.6-39.2l-2.2,0.9
				c0,0,0.1,30.8,20,41.9c0,0,4.9-4.5,8.7-17.7c3.3,2.9,5.8,4.2,5.8,4.2c14.6-15.1,9.7-35.9,9.7-35.9c16.1,17.7,31,17.5,31,17.5
				c2-22.8-6.2-32.8-6.2-32.8c20.3,10.9,32.3,4.4,32.3,4.4c-2.6-16.8-14.6-26.5-14.6-26.5C404.2,202.9,409.7,190.1,409.7,190.1z"/>
			<path d="M327.2,268.2c0,0-0.6-24.8-1.8-33l-2.2-0.5c0,0,2.3,16.2,2.6,24c0,0-1.3-7.1-2.5-13.5c-0.8-4.3-1.7-8-2-10.1l-3.1,1.5
				c0,0,2.6-1.7,7.9,32.2c0,0,0.1,1,0.9,1.2C326.8,270,327.4,270,327.2,268.2z"/>
			<path d="M311.9,255.4l-2.4-4c0,0,0.5,14.2,0.4,17.9c0,0-1.4-6.9-2.7-15c-0.8-4.8-1.1-10.9-1.6-14.2l-1.8,1.6c0,0,2,28.8,8,38.9
				C311.7,280.6,311.2,260.9,311.9,255.4z"/>
			<path d="M363.8,251.5L347,223.9c-0.1-0.1-0.1-0.2-0.2-0.3c-0.5,0.6-1.2,1-2,1c-0.3,0-0.5,0-0.7-0.1c0.1,0.1,0.1,0.1,0.2,0.2
				c1,1.2,3.4,4.1,5.7,7.3c3.4,5,7.9,12.2,7.9,12.2c-3.9-4.5-5-6-8-9.7c-2.7-3.4-7.5-9.5-7.5-9.5c-0.3,0.5-1.1,1.3-1.7,1.5
				c0,0,0,0,0,0l21.9,25.4c0.2,0.2,0.8,0.9,1,0.9c0.2,0,0.4-0.1,0.5-0.2C364.4,252.4,364.1,251.9,363.8,251.5z"/>
			<path d="M387.5,225.8c-8.8-9.9-24.4-21.7-24.4-21.7L361,206c8,3.5,21.2,16.3,21.2,16.3c-1.9-1.4-4.4-3.2-6.8-4.8
				c-7-4.6-14.4-8.9-14.4-8.9l-0.6,3c7.1,1.6,25.8,14.5,25.8,14.5c0.4,0.3,0.8,0.4,1,0.5C388,226.6,387.5,225.8,387.5,225.8z"/>
			<path d="M401.2,189.4c-14.4-3.6-33.6-7.1-33.6-7.1l0.5,2.2c16.7,2.4,23.5,4.5,23.5,4.5c-3.3-0.1-6.9-0.4-9.7-0.7
				c-8.1-0.7-13.3-1.5-13.3-1.5l-0.2,2.7c10.5,0.8,32.4,0.7,32.4,0.7C403.3,190.1,401.2,189.4,401.2,189.4z"/>
			<path d="M397,151.3c0,0-15,4.9-23.7,8.6l0.7,2.2c0,0,4.8-2.6,10-4.8c2.4-1,4.7-2,6.9-2.4c0,0-7.9,5.2-16.3,9.7l0.6,2.4
				c0,0,17.5-10.6,22-14.6C397.3,152.5,399.1,150.8,397,151.3z"/>
			<path d="M381.4,124.8c0-0.6-1.5,0.3-1.5,0.3c-3.1,1.9-16.4,12-16.4,12l1,1.3c6-5.1,12.6-9.4,12.6-9.4
				c-4.4,4.3-11.1,11.1-11.1,11.1l0.9,2.2c3.9-4.3,12.6-14.4,12.6-14.4C381.9,125.2,381.4,124.8,381.4,124.8z"/>
			<path d="M420.2,101.4c-0.6-1-0.9-0.5-0.9-0.5c-0.8,0.8-6.5,9.8-13.1,13.5c7.7-10.1,9.9-19.9,9.9-19.9c1.5-5.6,0.2-6.9,0.2-6.9
				c-13.3-1.5-29.6,8.9-29.6,8.9l-11.2,10c27.5-19.2,38.3-16.8,38.3-16.8c-0.7,6-3.3,11.7-3.3,11.7c-4.1,11.2-14,19.2-14,19.2
				c-9.2,7.8-10.6,7.9-10.6,7.9l-0.1,3.6c2-1.4,3.9-2.8,5.8-4.3c2.3-1.8,4.6-3.5,7-5.3c2.2-1.7,4.4-3.3,6.7-4.9c2.1-1.4,4-3,5.8-4.7
				c0.5-0.5,1-1,1.6-1.5c1-1,1.9-2,2.7-3c0.7-0.8,1.3-1.5,1.9-2.3c0.2-0.3,1.1-1.8,1.4-1.3c0.1,0.2-0.2,1.2-0.3,1.5
				c-1,2.9-2.8,5.4-4.8,7.7c-0.6,0.7-1.3,1.4-1.9,2c-1.6,1.6-3.1,3.2-4.7,4.8c-1.3,1.2-2.6,2.4-4,3.6c-0.6,0.5-1.2,0.9-1.7,1.4
				c0,0-0.1,0.1-0.1,0.1c-12.4,10.5-19.7,15.4-19.7,15.4l-1.9,3.7l7.2-4.9l7.9-5.7c6-4.6,13.5-11.9,13.5-11.9c1.7-1.7,3.5-3.3,5-5
				c1.2-1.4,2.4-2.9,3.5-4.4c0.7-1.1,1.4-2.2,2.1-3.3c0.1-0.2,0.6-1.4,0.9-0.8c0.2,0.4,0.1,0.9,0,1.3c0,0.7-0.1,1.3-0.3,2
				c-0.4,2.3-1.3,4.4-2.4,6.5c-1,2-2.1,3.7-3.5,5.4c-1,1.3-2,2.6-3.2,3.8c-0.4,0.4-0.8,0.7-1.1,1.1c-0.1,0.2-0.3,0.4-0.5,0.5
				c0,0,0,0,0,0l5.3-1.5C427.2,111.7,420.2,101.4,420.2,101.4z"/>
			<path d="M408.6,94.8c-0.3-0.4-1.7,0.4-1.7,0.4c-12.9,8.1-35.3,27.4-35.3,27.4l5.2-1.2c3.6-5.2,24-19.8,24-19.8
				c-5.4,5.6-19.9,19.5-19.9,19.5l2.9,0.5c3.6-4.4,23.8-24.8,23.8-24.8C409,95.4,408.6,94.8,408.6,94.8z"/>
			<path d="M440.5,140.5c0,0,0,0.1-0.1,0.1c-0.1,0.2-0.3,0.4-0.4,0.6c-0.1,0.2-0.3,0.3-0.4,0.5c-0.2,0.2-0.4,0.4-0.6,0.6
				c-0.2,0.2-0.5,0.5-0.7,0.7c0,0-0.1,0.1-0.1,0.1c-2.5,2.2-7.9,5.6-19.8,8.7c0,0,3.8-2.5,7.8-6.4c5.3-5,11.3-12.2,12.2-17.1
				c0,0-17.5-5.7-45.6,6.6l-7.9,6.7c0,0,27-15.5,50-12.2c0,0-6.8,15.8-27,25.7c-2.7,1.3-5.5,2.1-8.6,3.2l-0.5,2.1
				c0,0,21.3-5.8,33.3-11.3c0,0,3.9-1.9,6.7-4.3c0,0,0.6-0.6,0.6,0.2c0,0,1.9,11.4-16.5,19.7l4.7,0.8c0,0,18.7-8.7,13.2-25.2
				c0,0,0-0.1-0.1-0.1c-0.1-0.1-0.2,0.1-0.2,0.2C440.6,140.4,440.5,140.4,440.5,140.5z"/>
			<path d="M430,132.1c0-0.5-1.6,0.2-1.6,0.2c-15.1,5.4-31.1,14-31.1,14l3.2,0.4c4.4-2.6,20.7-10.2,20.7-10.2
				c0.8-0.2,0.5,0.2,0.5,0.2C416.2,140,403,148,403,148l1.5,1.6c2.5-2.2,9.4-6.3,15.1-10.2c4.6-3,8.5-5.7,8.5-5.7
				C430.3,132.4,430,132.1,430,132.1z"/>
			<path d="M451.5,187.3c-0.6-0.6-1,0.4-1,0.4c-1.3,2.4-5.7,2.7-5.7,2.7c-8.6,1-19,0-19,0c4.2-1.1,12.6-3.6,12.6-3.6
				c12.6-4.7,13.9-10.8,13.9-10.8c-1.1-1.2-2.2-2.2-3.7-3.2c-4.6-3.1-10.6-5.2-16.2-6.7c-7.3-1.9-14.7-2.7-21-3
				c4.3-1.7,7.6-3.2,14.5-5.9c10.3-3.6,14.2-8.4,14.2-8.4l0.3-4.3c-1.6,5.9-10.7,10.1-23.7,14.6c-4.4,1.5-8.2,3-10.3,3.8
				c-6.5,0-10.9,0.4-10.9,0.4l-3.6,2.7c38-3.2,57.4,9.7,57.4,9.7c-3.6,5.8-16.5,9.5-16.5,9.5c-13.6,3.3-25.4,2.4-25.4,2.4l0.5,4
				c2.1,0.4,28.9,0.8,28.9,0.8c9-0.1,11.6-1.3,11.6-1.3c0.3-0.1,0.6-0.2,0.7-0.2c0.3,0.1,0,0.4,0,0.4c-1.3,2.2-6.3,3.4-6.3,3.4
				c-15.6,2.6-38.5,1.9-38.5,1.9l1.9,1.7c1.9,0.2,10.6,0.2,18.9-0.2c8-0.4,15.1-1.6,15.1-1.6c5.1-0.5,8.6-2.9,8.6-2.9
				c0.3-0.2,0.5-0.2,0.6-0.2c0.2,0.1,0,0.4,0.1,0.3c-1.6,3.3-5.5,5.5-5.5,5.5c-6,3.2-23.4,4-23.4,4c-6.3-2.4-17-7.5-17-7.5l-2.2,1.6
				l21.8,8.9c4.6-1.1,12-1.8,12-1.8c13-1.4,15.4-7.7,15.4-7.7c2.6-5.6,1.3-8.8,1.3-8.8C451.8,187.8,451.6,187.4,451.5,187.3z"/>
			<path d="M383.8,172.9l8.3,3c14.8-0.5,39.3,0.9,39.3,0.9c-6.3-0.2-36,1.1-36,1.1l0.2,0.6l3.8,1.3c34.1-0.7,44-3.4,44-3.4
				C431,175.1,383.8,172.9,383.8,172.9z"/>
			<path d="M452,233.7c-0.3-0.9-1.1-2.6-1.1-2.6c-15-27-48.9-34.1-48.9-34.1l-5.1,2.7c16.2,1.6,34,14.3,34,14.3
				c17.2,12.2,17.6,20.2,17.6,20.2c-13.9,4.3-31.3-0.2-31.3-0.2c-20.2-4.7-25.2-10.1-25.2-10.1s-1.6,2.8,1.6,4.7s16,5.6,16,5.6
				c27.9,8.6,40.7,1.8,40.7,1.8C452.2,234.9,452.3,234.6,452,233.7z"/>
			<path d="M440.6,228.1c-47.4-21.4-55.8-25.4-55.8-25.4l-6.5,0.1c40,16.8,51.6,22.1,51.6,22.1c-12.9-4.7-46.8-17.8-46.8-17.8
				l2.9,4.1c3.8,0.2,54.9,19,54.9,19c3.8,1.2,3.3,0.4,3.3,0.4C444.5,229.9,440.6,228.1,440.6,228.1z"/>
			<path d="M449.7,250.2c-0.1-0.3-0.2-0.4-0.4-0.3c-0.2,0-0.3,0.1-0.4,0.2c-0.1,0.1-0.3,0.2-0.4,0.3c-0.3,0.2-0.7,0.3-1.1,0.4
				c-0.1,0-0.3,0.1-0.4,0.1c-1.1,0.2-2.1,0.1-2.1,0.1c-3.8-0.6-14.2-5.5-14.2-5.5c-17.6-9-21.3-12.7-21.3-12.7l-0.2-0.2l-14.9-4.5
				c-1.1,0.2,1.7,1.2,4,2.6c10,5.8,32.9,18,32.9,18c4.9,2.6,13.5,4.3,13.5,4.3c0.3,0.1,0.7,0,0.7,0.2c0,0.1-0.2,0.4-0.2,0.4
				c-1,1.8-3.6,2.3-3.6,2.3c-1.2,0.2-2.5,0.2-3.7,0.1c-1.6-0.1-3.2-0.2-4.8-0.5c-0.5-0.1-0.9-0.2-1.3-0.3c-1.4-0.4-2.7-0.9-4-1.5
				c-1.4-0.6-2.7-1.1-4.1-1.7c-0.4-0.2-0.8-0.4-1.2-0.5c-0.8-0.3-1.5-0.7-2.3-1c-19.8-9.1-28.6-16-28.6-16l4.4,6.1
				c4,2.3,13.9,6.9,13.9,6.9c3,1.7,7.5,3.8,11.7,5.6c1.2,0.5,2.4,1,3.6,1.4c1.3,0.5,2.7,1,4,1.5c0.4,0.1,0.8,0.3,1.2,0.4
				c1,0.4,2.1,0.6,3.2,0.8c0.9,0.2,1.7,0.3,2.6,0.4c0.4,0,0.9,0.1,1.3,0.1c1.3,0.1,2.6,0.1,3.9-0.1c0.2,0,0.4-0.1,0.7-0.1
				c0.8-0.2,0.7,0,0.7,0c-1.6,1.7-3.5,2.4-3.5,2.4c-8.8,2.8-18.8-1.6-18.8-1.6c-8.8-2.9-17.8-8.2-17.8-8.2l1.8,3.4
				c26.9,14,36.4,8.6,36.4,8.6c1.7-0.7,3.2-1.6,4.6-2.7c1-0.8,1.9-1.9,2.6-3c1.1-1.7,1.8-3.6,1.9-5.6
				C449.7,250.7,449.7,250.3,449.7,250.2z"/>
			<path d="M413.5,269.5c-9.8-20.8-24.3-38.4-24.3-38.4l-2.9,0.6c20.7,26.3,28.8,49.7,28.8,49.7c6.2,16.2,4,29.9,4,29.9
				c-7.8-2.1-17-9.1-17-9.1c-21.7-19.5-35.9-44.8-35.9-44.8l-2.4,0.5c7.5,13.4,16.3,22.7,22.5,30.8c18.6,24,34.8,25.2,34.8,25.2
				C424.2,301.1,420.5,284.3,413.5,269.5z"/>
			<path d="M415.9,305.1c-3.3-7.5-16.7-29.1-28.2-47.6c-9.8-15.8-18-29.3-18-29.3l-3.6-1.4C376.5,242.3,401,282,401,282
				c2.5,4.5,2.2,4.5,2.2,4.5c-4.3-6.2-25.7-38.1-25.7-38.1C373.5,242.7,362,225,362,225l-0.7,0.1l5.4,13.3c0.8-0.6,2.4,1,2.4,1
				c13.9,20.2,26.2,38,26.2,38c1.6,2.8,20,27.9,20,27.9C416.5,306.6,415.9,305.1,415.9,305.1z"/>
			<path d="M360.7,256.7l-3.3-1.6c4.9,16.8,6.4,33.9,6.4,33.9c2.6,39.8-5.5,54.9-5.5,54.9c-8-8.4-16.6-29.9-16.6-29.9
				c-9.7-25.5-10.9-42.5-10.9-42.5l-2.9,3.7c16.1,63.9,31.7,72.6,31.7,72.6C376.4,317.6,360.7,256.7,360.7,256.7z"/>
			<path d="M357.1,337.3c-0.3,0-0.6-0.2-0.7-0.6l-20.6-97.3c-0.1-0.4,0.3-1.3,0.7-1.4c0.4-0.1,1.2,0.4,1.3,0.8l14.4,70.6l-9.9-64.2
				c-0.1-0.4,0.2-0.8,0.6-0.8c0.4-0.1,1.2,1,1.2,1.4l13.7,90.6c0.1,0.4-0.2,0.8-0.6,0.8C357.2,337.3,357.1,337.3,357.1,337.3z"/>
			<path d="M407.3,322.8c0,0,0-0.1-0.1-0.1c-0.3-0.5-0.8-0.6-1.2-0.8c-0.4-0.2-0.8-0.4-1.2-0.6c-0.8-0.4-1.6-0.9-2.2-1.5
				c-1.1-1-2.2-2.3-3.1-3.5c-0.2-0.3-0.4-0.5-0.5-0.8c0,0,0,0,0-0.1c-5-6.9-32.5-56.7-32.8-57.2c-0.2-0.4-2.6-2.1-3-1.9
				c-0.4,0.2-0.5,0.7-0.3,1.1c1.2,2.1,27.9,50.5,33,57.6c0.5,0.8,1,1.7,1.6,2.5c1,1.5,2.1,3,3.5,4.1c0.6,0.5,1.3,1,2,1.4
				c0.1,0.1,0.3,0.1,0.4,0.2c-0.1,0-0.2,0.1-0.3,0.1c-0.6,0.3-1.3,0.1-1.9,0c-0.2,0-0.4-0.1-0.6-0.1c-0.7-0.2-1.4-0.5-2.1-0.8
				c-1.1-0.5-2.2-1.1-3.2-1.8c-1.4-1.1-2.7-2.5-3.8-3.9c-0.2-0.3-0.5-0.6-0.7-0.9c0,0,0,0,0-0.1c-9.6-12.7-26.8-42-27-42.3
				c-0.2-0.4-0.7-0.5-1.1-0.3c-0.4,0.2-0.5,0.7-0.3,1.1c0.2,0.3,17.4,29.6,27,42.4c0.3,0.5,3.3,5,8.4,7.2c-5.7-0.2-10.8-3-15.9-8.4
				c-0.5-0.6-11.5-15.4-16.2-22.7c-0.2-0.4,0,2.1-0.3,2.3c-0.4,0.2-0.5,0.8-0.2,1.1c4.8,7.5,15,20.1,15.1,20.3c0,0,0,0,0,0
				c7.9,8.8,13.6,9.1,18.2,9.1c0.1,0,0.2,0,0.4,0c4.9-0.1,8.2-2,8.3-2.1C407.3,323.4,407.4,323.1,407.3,322.8z"/>
			<g>
				<path d="M340.1,317.5C340,317.5,340,317.4,340.1,317.5c-0.1-0.5-1.2-1.4-1.7-2c-0.5-0.6-2.3-2.6-3.7-13.5
					c-0.8-6.2-1.9-14.3-2-14.3c-0.8-2.2-0.8-2.8-0.8-2.9l-1.7-9.1c-0.1-0.5-0.6-0.8-1.1-0.7c-0.2-0.2-0.4-0.2-0.7-0.2
					c-0.5,0.1-0.8,0.5-0.8,1l4,24.9c0,0.3,0.6,4.4,1.2,8c1.1,6.4,2.1,7.7,3,8.4c-0.8,0-3.1-0.4-4.2-0.9c-5.3-2.2-7.7-5.2-9.9-13.3
					c-0.7-2.5-1-4.3-1.5-6.8c-0.5-2.7-0.7-4.5-1.5-7.2l-0.6-3c-0.3-1.1-0.5-3.7-1.1-4.8c-0.2-0.4-1,1.6-1.4,1.8
					c-0.4,0.2-0.6,0.8-0.4,1.2c0.5,0.9,0.8,1.9,1,3l0.1,0.4c0.7,2.6,1.3,5.3,1.8,8c0.5,2.6,1.1,5.2,1.8,7.8
					c1.2,4.3,2.5,7.9,4.5,10.5c2.1,2.8,5,4.4,8.2,5c0.8,0.2,2.1,0.3,2.9,0.3c0.8,0,1.5,0,2.3-0.2c0.2,0,0.4-0.1,0.6-0.2
					c0.3-0.1,0.5-0.1,0.7-0.2c0.2-0.1,0.4-0.2,0.5-0.3c0.2-0.1,0.3-0.3,0.3-0.5C340.1,317.7,340.1,317.6,340.1,317.5z"/>
				<path d="M336.8,316.2c0,0,0.4,1.2,0.4,1.2c-4.3-0.6-9.2-10.4-9.6-11.5c-2.2-4.4-6.6-32.9-6.8-34.1c-0.1-0.4,0.2-0.8,0.6-0.8
					c0.4-0.1,0.8,0.2,0.8,0.6c1.6,10.2,5,30.5,6.7,33.7c0,0,0,0,0,0.1c0.9,2.2,4.5,9,7.4,9.4c0.4,0.1,0.2-0.4,0.1,0
					C336.3,315.1,337.1,316.2,336.8,316.2z"/>
			</g>
		</g>
	</g>
	<g>
		<path d="M162.1,107.3c-0.2,0-0.4-0.1-0.6-0.2C145.1,93.3,136,86.5,129,82.7c11.1,9.1,27.6,22.2,27.8,22.4c0.4,0.3-0.6,0.6-0.9,0.9
			c-0.3,0.4-0.8,0.4-1.2,0.1c-0.9-0.7-1.8-1.5-2.7-2.2c-2.2-1.8-4.4-3.6-6.6-5.4c-2.8-2.3-5.7-4.6-8.5-6.9c-2.9-2.4-5.9-4.7-8.8-7.1
			c-2.8-2.3-5.7-4.5-8.6-6.8c-0.6-0.5-2.1-1.9-1.8-2.5c0.2-0.4,1,0,1.4,0.1c0.2,0.1,4.1,1.4,11.4,5.8c6.7,4.1,17.8,11.7,32.2,24.7
			c0.3,0.3,0.4,0.8,0.1,1.2C162.5,107.2,162.3,107.3,162.1,107.3z"/>
		<path d="M176.1,136c-0.3,0-0.8-0.1-0.9-0.4c-4.6-12.7-9.5-18.7-13.1-21.8c5.7,8.1,10.3,19.4,10.5,20c0.1,0.3-1.3,0.7-1.6,0.8
			c-0.3,0.1-0.7,0-0.8-0.4c-0.8-1.9-0.6-3.3-1.9-6.3c-1.8-4-3.7-7.8-6-11.5c-0.7-1.1-1.4-2.1-2.1-3.2c-0.3-0.5-0.7-1-1.1-1.6
			c-0.4-0.5-1.6-1.6-1-2.4c0.2-0.2,0.5-0.3,0.8-0.2c0.1,0.1,2.6,1.9,6.2,5.6c3.3,3.5,8.8,9.5,12.7,21.6c0.1,0.3-1-0.6-1.3-0.5
			C176.2,136,176.1,136,176.1,136z"/>
		<path d="M146.1,143.5c-0.1,0-0.3-0.1-0.4-0.2c-0.6-0.5-14.9-13.4-17.9-18c-0.2-0.3-0.4-0.5-0.2-0.7c0.2-0.2,0.5-0.1,0.8,0.1
			c0.1,0.1,11.6,8,23.9,16.6c0.3,0.2,0.4,0.6,0.2,0.9c-0.2,0.3-0.6,0.4-0.9,0.2c-7.9-5.6-15.5-11-19.9-14c5.3,5.6,14.8,13.9,14.9,14
			c0.3,0.2,0.3,0.6,0.1,0.9C146.5,143.4,146.3,143.5,146.1,143.5z"/>
		<path d="M136.7,166.9c-0.1,0-0.3,0-0.4-0.1c-8.6-4.8-26.9-11.3-27.1-11.3c-0.4-0.1-1.2-0.4-1.1-0.8c0.1-0.5,1.2-0.2,1.7-0.2
			c2.9,0.2,30.3,5.8,31.5,6c0.5,0.1,0.8,0.6,0.7,1.1c-0.1,0.5-0.6,0.8-1.1,0.7c-5.4-1.2-13.7-2.9-20.5-4.3c5.7,2.2,13,4.7,17.3,7.1
			c0.4,0.2,0,1-0.2,1.4C137.3,166.7,137,166.9,136.7,166.9z"/>
		<path d="M123.4,170c-7.4-0.1-44.3-0.4-59.8-1.8c-3.8-0.2-6.2-0.6-6.3-0.6c-0.5-0.1-1.1-0.1-1.2,0.3c-0.1,0.5,0.3,0.6,0.8,0.8
			c1.1,0.4,3.2,0.7,6.2,1.3c9.5,1.3,29.3,4,56.8,6.5c0.4-0.7,1.1-1.2,1.8-1.5c-0.1-0.1-0.3-0.2-0.5-0.2c-13.4-1.2-30.5-2.7-40.1-3.8
			c17.7,0.5,47,2.2,48.4,2.2c0.3,0-4.1-1.4-4-1.7C124.7,171.1,123.9,170.7,123.4,170z"/>
		<path d="M158.2,226.7c0,0.1-0.1,0.1-0.1,0.2c-0.1,0.1-5.8,10.2-12.1,18.6c3.2-6.4,7.3-14.6,10.4-21c-0.6-0.2-1.1-0.6-1.5-1.1
			c-0.5,0.9-0.9,1.9-1.4,2.8c-0.5,1-1,2-1.5,3.1c-0.5,1.1-1,2.1-1.6,3.2c-0.5,1.1-1.1,2.2-1.6,3.3c-0.5,1.1-1.1,2.2-1.6,3.2
			c-0.5,1-1,2.1-1.5,3.1c-0.5,1-1,2-1.5,2.9c-0.4,0.8-0.8,1.7-1.3,2.5c-0.3,0.6-0.6,1.2-0.9,1.8c-0.4,0.8-0.7,1.6-1.1,2.4
			c-0.2,0.3-0.3,0.6-0.5,1c-0.1,0.3-0.2,0.6-0.1,0.9c0.6,0.9,2.3-1.1,2.6-1.6c1.3-1.8,2.8-3.4,4.2-5.2c1.5-1.9,2.9-3.9,4.2-5.8
			c2.3-3.4,4.5-6.8,6.6-10.2c0.6-0.9,1.1-1.8,1.6-2.8C159.1,227.6,158.6,227.2,158.2,226.7z"/>
		<path d="M141.7,208.8c-0.4-0.4-0.6-0.8-0.8-1.2c-1,0.6-12.6,7.2-20.9,10.5c5.3-3.1,15.8-8.6,20.3-11.8c-0.5-0.4-1.1-1.2-1.3-1.8
			c-8.2,5.7-22.7,13.8-22.8,13.9c-1.4,0.9-2.3,1.7-2.1,2.1c0.2,0.5,2.7-0.2,2.8-0.2c10.5-2.2,24.8-10.6,25.4-11
			C142,209.2,141.9,209,141.7,208.8z"/>
		<path d="M120.7,190.4c-9.6,0-15.2-1.2-15.3-1.3c-0.4-0.1-1.6-0.4-1.6-0.8c0-0.5,1.1-0.7,1.5-0.7c7.7-0.7,28-4,28.2-4
			c0.5-0.1,1,0.3,1,0.8c0.1,0.5-0.3,1-0.8,1c-0.2,0-11.9,1.8-21,3c5.5,0.4,13.5,0.5,22.5-0.6c0.5-0.1,1,0.3,1,0.8
			c0.1,0.5-0.3,1-0.8,1C130.1,190.2,125.1,190.4,120.7,190.4z"/>
		<path d="M212.8,192c-3.3,0.2-6.3-0.5-9.5-1.2c-1-0.2-4.7-1.1-7.1-1.9c-1.2-0.4-2.2-1.4-3.1-2.4c-0.9-0.9-1.5-1.8-1.8-3.1
			c-0.2-0.7-0.4-1.5-0.4-2.2c0-1.4-0.1-2.8,0-4.3c0-0.4,0.1-0.8,0.3-1.1c0.2-0.4,0.6-0.5,1-0.6c0.2,0,0.5-0.1,0.7-0.1
			c0.5-0.1,0.9-0.2,1.4-0.4c0.9-0.3,1.8-0.7,2.6-1.2c0.5-0.3,1-0.5,1.4-0.8c8.4-5.1,10.3-15.6,10.4-16c1.2-4.7,1.2-10-0.1-15.7
			c-1-4.5-2.9-9.3-5.5-14.2c-4.4-8.3-9.4-14.1-9.5-14.3c-7.3-8.7-15.5-15.8-22.7-21.6c-5.9-4.8-12.4-9.3-19.2-13.4
			c-4.6-2.8-9.4-5.2-14.4-7.2c-4.8-2-9.8-3.7-14.9-4.8c-4.1-0.9-8.3-1.8-12.4-2.1c-1.2-0.1-2.4-0.1-3.6,0l-0.9,0.1l0.1,0.9
			c0.6,8.9,5.3,16.6,9.2,21.4c1.8,2.2,3.5,4,4.9,5.4c0.1-0.1,0.2-0.3,0.3-0.4c0.7,0.7,1.4,1.3,1.9,1.8c0.2,0,0.4,0,0.6,0
			c1.1,0,2,0.4,2.8,1.1c0.1-0.3-0.1-0.7-0.3-0.9c-0.2-0.1-15.1-11.3-16.7-27c0,0.1,4.9,0.5,5.3,0.5c4,0.5,7.9,1.4,11.8,2.5
			c3.9,1.2,7.7,2.6,11.5,4.1c2.6,1.1,5.2,2.3,7.8,3.5c1.1,0.6,31.8,18.6,46.7,37.7l0,0c0,0.1,5.1,6.3,9.2,14.1
			c4.1,7.8,6.8,16.9,4.9,27.5c0,0.1-1.7,9.4-9.3,14.3c-4,2.6-6.5,3.6-11.6,3.3c-1.2-0.1-2.3-0.3-3-0.4c-0.1,0-0.1,0-0.2,0
			c-1.5-0.5-4-2.8-4.1-2.3c-0.1,0.5,1.9,3.1,3.7,4.1c1.9,1,4.1,1.3,6,1.3c0.1,0,0.3,5.3,0.3,5.3c0,0.1,0.1,1.8,1.1,3.9
			c0.9,1.9,3.7,4.9,7.7,6c0.1,0,8.6,2.5,16.4,3.6c0,0,0.1-0.2,0.2-0.2c0.4,0,0.8-0.3,0.9-0.8C213.6,193.1,213.3,191.9,212.8,192z"/>
		<path d="M218.3,226.6c-14.7-3-32.3-7-32.9-7.2c-17.7-4.8-24-10.1-24.1-10.2c-8.7-7.5-8.8-16.7-8.8-16.8l0,0
			c-0.2-3.5,0.5-11.5,0.5-12.6c2.6-0.2,4.4-1.1,7.3-2.4c-0.1,0-0.2,1-0.2,1.2c-0.1,0.4-0.1,0.9-0.2,1.3c-0.1,1.1-0.2,2.3-0.3,3.4
			c-0.1,2.6-0.3,5.2,0.1,7.8c0.4,2.4,1.3,4.7,2.5,6.8c1.3,2.4,2.3,3.6,4.1,5.4c1.3,1.3,3.3,2.9,4.8,3.8c1.5,1,3.1,1.7,4.7,2.3
			c2.4,1,4.9,1.7,7.4,2.5c2.7,0.8,5.3,1.6,8,2.2c3.4,0.8,6.8,1.6,10.2,2.3c4.4,0.9,8.7,1.7,13.1,2.4c0.6,0.1,1.1,0.2,1.7,0.3
			c0,0,0,0,0.1,0c-0.3-0.6-0.4-1.2-0.3-1.9c-4.4-0.7-8.9-1.5-13.3-2.4c-3.6-0.7-7.1-1.5-10.6-2.4c-2.6-0.6-5.3-1.3-7.9-2.1
			c-1.9-0.6-3.8-1.2-5.7-1.9c-2-0.7-4.1-1.5-6-2.6c-1.9-1.1-3.9-2.7-5.5-4.3c-0.4-0.5-2.9-3.1-4.4-6.5c-0.3-0.6-0.5-1.3-0.7-2
			c-0.6-2.2-0.8-4.3-0.6-6.6c0.1-2.1,0.3-4.2,0.7-6.2c0.1-0.4,0.2-0.9,0.2-1.3c0-0.2,0.3-1,0.2-1.2c0.6,0.8,1.2,1.5,2.2,2.4
			c0.5,0.4,1.7,1.5,2.4,2c0.1,0,0,0.6,0,0.7c0,0.2,0,0.5,0,0.7c0,0.5,0,0.9,0,1.4c0,1.6,0,3.2,0.4,4.8c0.2,1.2,0.6,2.3,1.1,3.4
			c0.1,0.3,0.3,0.6,0.5,0.9c1,1.5,2.4,2.8,3.8,3.9c0.4,0.3,0.8,0.6,1.2,0.9c1.3,0.9,2.6,1.7,4,2.3c1.5,0.7,6.9,3.7,35.2,8.9
			c0.1,0,0.1,0,0.2,0c-0.2-0.6-0.2-1.2-0.1-1.8c-28.7-5.3-34.4-8.8-34.4-8.8c-3.3-1.7-6.5-3.5-8.1-7.1c-0.6-1.3-0.9-2.7-1-4.1
			c0-0.4,0-0.8,0-1.2c0-0.7,0-1.4,0.1-2.1c0-0.4,0-0.8,0.1-1.2c2.2,1.1,4.2,1.6,7.3,1.6c0.3,0,1.6,0.1,1.8-0.8
			c0.5-2,0.9-3.9,0.9-4.1c0.2-1.4,0.2-2.1,0.2-4.1c0-2.6-0.5-4.7-1.2-6.8c4.5-1.8,6.7-6.7,6.8-6.9l0.2-0.4l-0.3-0.3
			c-3-3.7-6.6-5.8-8.1-6.6c0.5-3.9,0.4-9.5-4.3-15.4l-0.3-0.5l-0.6,0.2c-0.1,0-2.9,0.9-6.1,3.7c-1.9,1.6-4.1,4-6.1,7.6
			c-1.4-0.3-5.7-1-10.7-0.1l-0.4,0.1l-0.1,0.3c-0.1,0.2-1.7,4.7,1.6,10.9c-3.2,2.5-7.3,7-8.6,13.9l-0.1,0.5l0.3,0.3
			c0.1,0.1,2.8,2.2,8,2.7c0,1.6,0,9.3,0.1,12.8c0,0.7,0.2,10.3,9.4,18.2c0.3,0.2,6.6,5.7,24.8,10.6l0,0c0.2,0,18.6,4.3,33.6,7.3
			C218.3,227.9,218.2,227.2,218.3,226.6z M166,179c-2.2-2-3.1-4-3.2-4l0,0c0.1-0.1,0.1-0.2,0.1-0.3c0-0.1,0.6-3.4,2-8.5
			c2.9,3.5,6.5,8.7,10.9,16.8C171.9,182.8,168.8,181.4,166,179z M177.6,179.4c-0.1,1.6-0.4,2.3-0.5,2.7c-4.6-8.7-8.3-13.7-11.4-17.3
			c1.2-0.2,3.6-0.5,7.7-0.7C174.5,165.6,177.7,169.9,177.6,179.4z M178,157.2c2.2,1.4,4,2.7,5.7,4.5c-3.3-0.1-5.7,0.2-7.3,0.3
			C176.8,161,177.6,159.6,178,157.2z M183.7,163.2c-1,1.3-2.4,3.5-5.2,4.6c-0.4-1.3-1.9-3.1-2.6-4.3
			C177.6,163.3,180.4,163,183.7,163.2z M173.1,142.1c1.7,3,2.2,6.5,2.4,9.8c0.1,1.3,0.1,3.5-0.2,4.9c-0.4,2.7-1.4,4.7-2,5.7
			c-4.4,0.3-6.4,0.4-7.3,0.4C167.7,156.7,170.1,149.1,173.1,142.1z M167.7,144.6c1.6-1.4,3.1-2.3,4.1-2.8
			c-3.1,7.3-5.6,15.3-7.3,21.5c-2.5-2.7-4.3-4-5.3-4.7C161.3,151.3,164.9,147,167.7,144.6z M160,152.1c-0.8,1.6-1.6,3.5-2.2,5.5
			c-2.7-2.3-5.2-4.6-6.5-5.8C155.1,151.3,158.5,151.8,160,152.1z M150.3,152.7c1.3,1.2,3.8,3.5,6.6,5.8c-1.1,0.5-2.9,1.3-4.9,2.8
			C150,157.5,150.1,154.3,150.3,152.7z M152.1,163.3c3-2.3,5.7-3.2,6.2-3.4c0.9,0.5,2.3,1.6,4.7,4.2c-3.6,2-13,7.2-18.7,10.9
			C145.5,170.3,148.1,166.4,152.1,163.3z M145.3,176.4c5.6-3.7,15.1-9.3,18.7-11.3c-1.8,8.3-2.8,9.3-2.8,9.3c-3.8,1.7-6.4,2.8-9.8,3
			C148.6,177.5,146.4,177,145.3,176.4z"/>
		<path d="M183.1,111.9c0,0-17.8-18.8-36.9-29.1c0,0-17.6-9.1-25.5-11.1c0,0-1.1-0.2-1.2,0c-0.1,0.2,0.2,0.5,0.7,0.7
			c0,0,17.3,7.1,28.4,14.1c0,0,48.4,29,48.8,61.3c0,0-0.2,20.8-15.7,19.1l-2.6,1.8c0,0,3.6,2.1,9.4-0.7c0,0,2.1-0.8,4-2.5
			c3.1-2.8,6.8-8,7.3-16.9C199.7,148.6,200.6,132.1,183.1,111.9z"/>
		<path d="M207.4,262.9c0.1-0.6,0.4-1.2,0.7-1.7c1.5-9.1,3.1-9.8,3.1-10c0-0.6-2.4-1.2-3-1.2c-0.6,0-2-0.1-2.1,0.5
			c0,0.1,0.2,7.3-2.5,15.7c-2.4,7.4-6.9,16.7-15.7,24.1c-1.8-2.9-6.5-9.1-6-20.1c0-0.9,3-4.1,3.5-4.7c1.9-2.1,3.5-4,5.1-6.9
			c0,2.9-0.2,4.5-0.4,7.5c-0.6,9.3-1.6,17.6-1.6,17.7c-0.1,0.4-0.4,1.7,0,1.8c0.1,0,0.2,0,0.3,0c0.3,0,1.1-1,1.3-1.3
			c0.9-1.5,1.6-5.2,2.3-7.4c4.1-13.5,4.9-36,4.9-37.2c0-0.4-0.2-0.7-0.5-0.8c0,0,0-0.1,0-0.1c0.1-0.5-0.3-1-0.7-1.1
			c-0.5-0.1-1.6,0-1.7,0.5c-2,12-7.4,21-12.2,26.3c-2.9,3.2-5.4,5.1-7.2,6.5c-0.4,0.3-1.7,1.6-2.4,0.6c-6.6-8.6-5.8-18.5-5.3-26.5
			c0.5-7.7,3.4-13.9,4-15.4c0.1-0.1,0.1-0.2,0.2-0.4c0,0,0-0.1,0-0.1c-0.1,0-0.2,0-0.3,0c-0.5,0-1-0.1-1.5-0.3c0,0.1,0,0.1-0.1,0.2
			c-3.7,8.7-8.3,14.2-12.7,18c-2.4,2.1-4.7,3.9-6.8,5.1c-5,2.9-9.4,4-11.1,4.3c-0.4-1.6-0.6-2.7-0.9-4.2c-0.1-0.3-0.1-0.3-0.1-0.6
			c-1.9-12,1.7-20.7,4.4-26.6c2.6-5.6,6.3-9.2,8-10.7c0.3-0.2,0.6-0.5,0.8-0.7c-0.8,0-1.5-0.3-2.1-0.6c0,0,0,0,0,0
			c-8.9,7.2-18.5,9.2-25.1,9.6c-5.9,0.4-10.5-0.4-12.2-0.8c0.5-4.7,2.9-8.5,5.5-11.9c2.5-3.4,5.6-6.5,8.4-8.6
			c3.9-2.8,9.1-5.8,11.1-5.6c0.9-0.4,0.2-0.4,1.2-0.8c0.4-0.2,1-1.5,0.9-2c-0.2-0.5-0.7-0.7-1.2-0.5c-0.1,0-1.2,0.5-2.9,1.2
			c-9.1,3.6-17.7,3.9-24.9,0.8c-4.8-2-7.7-5-8.7-6.1c5.2-6.8,12.9-9.9,18.8-11.7c6.6-1.9,13.9-0.4,12.5-2.5
			c-0.3-0.4,0.8-0.4,0.9-0.8c0-0.5-0.1-1.3-0.5-1.4c-0.1,0-3.9-0.4-8.8-2.5c-6.2-2.6-14.1-7.7-18.3-15.6c7.4-4.7,15.8-5.1,22.5-4.2
			c6.7,0.9,11.6,3.1,11.6,3.1c0.4,0.2,0.8-1.1,1-1.5c0.2-0.4-0.4-0.7-0.3-1.2c0.3-1-3.6-2.5-7.3-7.2c-2.4-3.1-5.3-7.6-7-13.3
			c-0.1-0.2-0.1-0.3-0.1-0.5c-0.5-1.9-0.8-3.7-1-5.9c2.3-0.5,7.7-2,16.6,1c5.6,1.9,12.8,5.4,21.1,12.6c0.3,0.3,0.8,0.3,1.2,0
			c0.3-0.3,0.4-0.8,0.2-1.2c-0.1-0.1-4.9-8.8-7.3-17.8c0-0.1,0-0.2-0.1-0.2c-1.1-4.1-1.6-8.3-1-11.7c1.6,0.1,6.1,0.3,10.9,4.1
			c4.4,3.5,10.9,9,17.2,18.3c1.1,1.7,2,3.5,2.7,5.3c0.6,1.4,1.1,2.7,1.6,4.1c0.3,0.7,0.5,1.3,0.8,2c0.4,1.1,0.8,2.2,1.7,3.1
			c0.1,0.1,0.2,0.2,0.4,0.3c0.1,0,0.4,0.2,0.5,0.1c0.1,0,0.1-0.4,0.1-0.5c0-0.3-0.1-0.7-0.2-1c-0.2-0.8-0.4-1.6-0.6-2.4
			c-0.6-1.8-1.3-3.5-2.1-5.2c-0.6-1.4-1.2-2.9-1.9-4.2c-0.4-0.9-0.9-1.7-1.4-2.6c-1.7-2.9-4.2-5.6-6.1-8c-3.7-4.6-7.6-8.2-11.8-10.9
			c-7.2-4.5-12.4-4.5-12.6-4.5c-0.4,0-0.8,0.3-0.9,0.7c-0.7,2.8-0.8,6.3-0.3,9.7c-18.3-16.8-30.4-23.2-30.9-23.4
			c-10.1-5.5-19.3-7.9-24.5-8.4c-5.7-0.5-9.9,0.3-10.1,0.3l-0.8,0.2l0.1,0.8c1.1,6.4,5.7,15.5,12.1,24c0.7,0.9,1.3,1.7,1.8,2.3
			c-1-0.7-1.9-1.3-2.9-2c-1.6-1.1-3.3-2.2-4.9-3.3c-1.8-1.3-3.5-2.8-5-4.4c-0.4-0.5-0.9-1-1.3-1.5c-1.2-1.6-2.5-3.2-3.4-5
			c-0.3-0.5-0.6-1.4-1.1-1.6c-0.5-0.2-0.8,0.6-1,1c-0.2,0.4-0.4,0.9-0.6,1.4c-3.9,9.4-0.6,15.5,2.4,19.4c1.2,1.7,2.6,3,3.9,4
			c-7.8-0.7-16.4-0.5-24.7,1.7c-0.3,0.1-1.1,0.4-1.2,0.7c-0.1,0.2-0.1,0.5,0,0.8c0.1,0.2,2.4,4,8.5,10.1
			c7.8,7.8,13.7,12.4,24.3,17.9c-7-2.3-12-4.2-15.9-5.8c-4.7-2-7.8-3.7-10.7-5.5c-6.6-4.1-8.6-6.8-8.6-6.9c-0.3-0.3-0.7-0.7-1.1-0.6
			c-0.4,0.1-0.5,0.6-0.6,1c-0.2,2.1-0.2,4.3-0.2,6.4c0.1,2.2,0.3,4.5,1.2,6.6c0.9,1.9,2.1,3.6,3.7,5c2.1,1.8,4.5,3.3,6.9,4.7
			c0.6,0.3,1.2,0.7,1.8,1c0.3,0.1,1.5,1,1.7,1c-11.2,1.9-19.8,5.3-25,10c-0.4,0.3-0.4,0.9-0.1,1.3c0.2,0.2,4.5,5,13.1,9.9
			c4.7,2.7,10.5,5.6,18.9,7.8c-7.1-0.3-13.7-0.5-18.8-0.9c0,0,0,0,0,0c-0.1,0-5-0.3-8.4-3.8c-0.2-0.2-0.7-0.7-1-0.5
			c-0.3,0.1-0.5,0.6-0.5,0.9c0,0.1-0.6,2.4,0.4,5.6c0.9,2.9,3.2,7.1,10.2,10.8c0.3,0.2,4.9,3.1,16,5.1c-6.2,3.1-11.6,6.4-16,9.9
			c-6.3,5.1-10.5,10.5-12.6,16.2c0,0-0.2,0.4-0.1,0.7c0.1,0.2,0.6,0.5,0.6,0.5c0.2,0.1,6,3.9,16.6,4.8c1.8,0.2,3.7,0.2,5.6,0.2
			c3.9,0,8.6-0.2,12.9-0.9c-2.6,1.9-5.5,3.9-10.3,6.5c-5.6,3-9.7,5.4-13,6.6c-6.2,2.2-9.1,1.4-10.2,0.8c-0.3-0.2-0.8-0.1-1,0.1
			c-0.3,0.3-0.4,0.7-0.2,1c0.1,0.1,1.4,3.4,4.6,6.3c2.4,2.2,6.8,4.8,12.2,4.8c1.3,0,10-0.6,24.2-7.7c-7.4,9.4-13,19.1-17.3,30.5
			c-0.3,0.7-4.6,13.1-2.2,27.8c0.1,0.7,0.7,1.1,1.2,1.1c0,0,0,0,0,0c0.2,0,5.9-0.4,14.4-5c3-1.6,10.5-6.1,16.9-11.9
			c9.8-8.8,16.4-16,16.5-16.1c-3.1,5.7-4.3,8.2-7.3,14.1c0,0,0,0,0,0c-0.1,0.3-13.3,27.7-24,32.9c-0.6,0.3-1.7,0.9-1.6,1.9
			c0.1,0.7,0.7,1.4,1.4,1.7c2.5,1.3,5.6,1.2,8.2,0.7c2.3-0.4,4.5-0.8,6.6-1.7c1.5-0.6,3-1.4,4.4-2.2c4.1-2.3,5.7-4,9.7-8.1
			c6.2-6.4,10.4-14.1,13.1-18.9c-0.5,2.8-1,6.8-1.4,10.2c-1.1,10.5-1.3,25.2,2.8,37c0.2,0.4,0.3,0.8,0.5,1.3c0.1,0.3,0.3,0.6,0.4,1
			l0.5,1.1l0.9-0.8c0.3-0.3,7.8-4.9,17.1-18.3c5-7.3,7.1-10.4,10.7-18.6c0.2-0.5,0.7-1.5,0.9-0.9c0.1,0.6-2.2,10.1-6.1,15.4
			c-0.3,0.5-0.8,1.6-0.2,2.3c0.2,0.2,0.7,0.4,1,0.4c0.1,0,0.2,0,0.3,0c0.2-0.1,4-1.2,8.5-4.8c3.4-2.7,7.1-6.8,10.7-12.2
			c0,0,0-0.1,0.1-0.1c0-0.1,5-8.1,8-20.5c0.8,1.2,1.2,1.5,1.3,1.7c0.2,0.2,0.4,0.4,0.7,0.4c0,0,0.1,0,0.1,0c0.2,0,0.7-0.4,0.9-0.6
			c8.3-6.1,14.1-18,13.8-16.8c0,0.1,0,0.2-0.1,0.3C202.7,276.6,207.2,263.7,207.4,262.9z M192.2,264.1c0.2-2.8,0.4-5.5,0.2-9.4
			c1.2-2.6,1.8-3.4,2.7-6.4c-0.3,5.3-0.5,9.3-1.5,14.8c-0.5,2.8-1.6,9-2.5,12.2C191.5,272.3,192,266.9,192.2,264.1z M164.9,243.5
			c0.4,0,0.4,0.7,0.3,1.1c0,0.1,0,0.1-0.1,0.2c-0.7,2.6-1.5,7.2-3.3,12.7c-5.2,16.1-12.9,41.5-18,57.1c0,0,18-65.8,18.8-68
			C163.9,243.3,164.9,243.5,164.9,243.5z M140,223.4c0.1-0.1,0.2,0,0.2,0.1c0.3,0.6-0.1,1.3-0.3,1.8c-0.8,1.6-1.5,3.2-2.6,4.6
			c-0.4,0.6-0.9,1.1-1.3,1.6c-0.3,0.4-0.6,0.7-0.9,1.1c-0.3,0.4-0.6,0.7-0.9,1.1c-0.3,0.4-0.6,0.8-1,1.2c-0.3,0.4-0.7,0.8-1,1.2
			c-0.4,0.4-0.7,0.9-1.1,1.3c-0.4,0.5-0.8,0.9-1.1,1.4c-0.4,0.5-0.8,1-1.2,1.4c-0.4,0.5-0.8,1-1.2,1.5c-0.4,0.5-0.9,1-1.3,1.6
			c-0.4,0.5-0.9,1.1-1.3,1.6c-0.5,0.6-0.9,1.1-1.4,1.7c-0.5,0.6-0.9,1.1-1.4,1.7c-0.5,0.6-1,1.1-1.4,1.7c-0.5,0.6-1,1.2-1.4,1.7
			c-0.5,0.6-1,1.2-1.5,1.7c-0.5,0.6-1,1.2-1.5,1.7c-0.5,0.6-1,1.2-1.4,1.7c-0.5,0.6-1,1.1-1.4,1.7c-0.5,0.6-1,1.1-1.4,1.7
			c-0.5,0.6-0.9,1.1-1.4,1.7c-0.5,0.6-0.9,1.1-1.4,1.7c-0.5,0.6-0.9,1.1-1.4,1.7c-0.5,0.5-0.9,1.1-1.4,1.6c-0.5,0.5-0.9,1.1-1.4,1.6
			c-0.4,0.5-0.9,1-1.3,1.6c-0.4,0.5-0.9,1-1.3,1.5c-0.4,0.5-0.8,1-1.2,1.5c-0.4,0.5-0.8,0.9-1.2,1.4c-0.4,0.4-0.7,0.9-1.1,1.3
			c-0.3,0.4-0.7,0.8-1,1.2c-0.3,0.4-0.6,0.7-1,1.1c-0.3,0.3-0.6,0.7-0.9,1c-0.3,0.3-0.5,0.6-0.8,0.9c-0.2,0.3-0.5,0.5-0.7,0.8
			c-0.2,0.2-0.4,0.5-0.6,0.7c-0.2,0.2-0.4,0.4-0.6,0.6c-0.2,0.2-0.3,0.4-0.5,0.5c-0.2,0.2-0.4,0.3-0.5,0.5
			C92.4,283,127.1,236.2,140,223.4z M123.6,200.6c-2.4,1.8-4.5,3.8-6.3,5.8c-7.9,3.5-28.8,10.2-42.3,14.3c4-1.7,13.9-5.4,19.4-7.9
			C106.9,207.3,118.6,202.6,123.6,200.6z M135.5,148.2c0.3,0.3,0.6,0.7,0.2,0.7c-2.1-0.5-4.2-0.9-7.3-1.2c-0.2,0-0.5,0-0.7-0.1
			c0,0,0,0,0,0c-0.3-0.1-17.3-7.7-33.1-14.7C109,137.8,124.6,143.4,135.5,148.2z M135.9,120.6c0-0.1-0.1-0.1-0.1-0.1
			c-0.2-0.2-16.5-12.4-27.8-21.8c10,6.5,22.2,15.8,31.6,22.7C138.3,121,137,120.8,135.9,120.6z M93.2,93c-1.1-2.4-2-4.8-2.6-7
			c0,0,0,0,0,0c-0.1-0.2-0.1-0.5-0.2-0.7c3.1-0.5,14.6-1.4,30.6,7.4l0,0c0,0,0.1,0,0.1,0.1c0.5,0.3,2.5,1.4,5.7,3.4
			c8.2,5.4,18.5,14.1,28.3,23.4c1.4,5.1,3.4,9.2,5,12.6c-1.9-1.5-3.9-2.9-6-4.2c-1.7-1.1-3.4-2-5.2-2.9c-1.2-0.6-2.4-1-3.5-1.6
			c-0.5-0.2-0.9-0.7-1.3-1.1c-0.4-0.4-0.9-0.7-1.3-1.1c-0.9-0.7-1.8-1.4-2.7-2.1c-1.8-1.4-3.7-2.8-5.5-4.2c-1.9-1.4-3.8-2.8-5.8-4.2
			c-2-1.4-4.1-2.9-6.1-4.3c-2.1-1.4-4.2-2.8-6.3-4.2c-2-1.3-4-2.7-6.1-4c-1.8-1.1-3.5-2.3-5.3-3.4c-1.3-0.9-2.7-1.7-4-2.6
			c-0.9-0.6-1.7-1.1-2.6-1.7c-0.5-0.3-1.1-0.7-1.6-1c-0.1-0.1-0.2-0.1-0.3-0.2c-0.4-0.2-1.2-0.7-1.5-0.4c-0.3,0.3,1.1,1.9,1.9,2.7
			c11.6,10.3,31.1,25.8,34.5,28.7c-5,0-7.7,1.4-7.8,1.5c-0.3,0.2-0.5,0.5-0.5,0.9c0.1,0.9,0.2,1.8,0.3,2.6c-2.4-1.6-4.9-3.3-7.3-4.9
			c-1.4-1-2.8-1.9-4.2-2.9c-1.4-1.2-3.6-3.1-6-5.6C102.1,107.3,96.6,100.2,93.2,93z M83.4,96.8c0.9,1.4,2.4,3.9,4.6,6.1
			c1.2,1.3,2.6,2.4,4,3.4c1.5,1.1,3,2.1,4.5,3.1c1.6,1.1,3.2,2.3,4.8,3.5c0.5,0.3,0.9,0.7,1.4,1c1.6,1.2,3.2,2.4,4.8,3.5
			c1.9,1.3,3.7,2.7,5.6,4c2,1.4,4,2.9,6,4.3c0.2,0.2,0.5,0.3,0.7,0.5c-3.5-1.4-8.3-3.1-14-4.6c-0.2-0.1-0.5-0.1-0.7-0.2
			c-1.8-1-8.7-5.1-14-10.3c-4-3.9-7.4-8.5-8.3-12.5C82.9,98.1,83.1,97.4,83.4,96.8z M85.8,113.3c-2.4-3.2-3.6-6.8-3.5-10.7
			c1.4,2.9,3.6,5.9,6.1,8.6c3.4,3.6,7.3,6.7,10.2,8.8c-1.7-0.3-3.5-0.6-5.5-0.9C91.9,118.4,88,116.3,85.8,113.3z M72.1,130.4
			c-4.2-4.2-6.1-7.3-6.9-8.8c9-2.1,17.8-1.7,25.9-0.7c0.4,0,3.5,0.6,4,0.7c5.1,1,6.5,1.4,10.3,2.4c10.1,2.7,17.9,6.9,19.7,7.7
			c1.8,6,3.1,8.1,5.6,11.4c0.2,0.2,0.1,1.1-0.8,0.9c-18.6-8.5-55-19.5-55.5-19.6c-0.6-0.1-1.5-0.3-1.6,0.1c-0.1,0.4,0.7,0.9,1.2,1.1
			c6.8,3.1,37.2,17.3,48,22.1c-5.6,0.1-11.2,1.2-17.1,4.9C87.4,143.9,77.5,135.7,72.1,130.4z M60,135.1c0.2,0,2.5,2.2,7.6,5.1
			c1.5,0.9,3,1.7,4.6,2.5c1.7,0.9,3.5,1.8,5.3,2.6c2.1,1,4.3,1.8,6.4,2.7c2.5,1,5.1,1.9,7.6,2.8c2.7,1,5.3,1.9,8,2.8
			c0.7,0.2,1.4,0.5,2,0.8c0.2,0.1,0.4,0.1,0.5,0.2c0.1,0.1,0.2,0.2,0.3,0.3c-0.1-0.1-0.8,0-1,0c-0.4,0-0.7,0-1.1,0
			c-2.2,0-4.3,0.1-6.5,0.1c-0.8,0-5.4,0.2-5.9,0c-13.6-5.8-21.6-10.9-24.8-14.1c-0.5-0.5-0.9-1-1.3-1.5c-0.3-0.4-0.6-0.8-0.9-1.3
			c-0.2-0.3-0.4-0.7-0.5-1.1c-0.1-0.3-0.3-0.6-0.4-0.9c-0.1-0.2-0.2-0.4-0.2-0.7C59.8,135.3,59.8,135.1,60,135.1z M71.7,153.4
			c-0.4-0.2-0.7-0.3-1.1-0.5c0,0,0,0,0,0c-0.9-0.5-1.8-1-2.7-1.6c-1-0.6-2-1.2-2.9-2c-0.3-0.2-0.5-0.4-0.7-0.6
			c-0.3-0.3-0.6-0.6-0.9-0.9c-1.1-1.1-2-2.4-2.7-3.8c-0.1-0.2-0.1-0.3-0.2-0.5c-0.2-0.5-0.3-0.9-0.4-1.4c-0.1-0.4-0.1-0.8-0.2-1.2
			c0-0.2-0.1-0.5-0.1-0.7c0-0.2-0.1-1.1-0.2-1.3c0.5,0.7,1.4,1.8,2.2,2.7c4.3,4.5,12.6,9.1,22.3,13.5c-2.4,0.2-4.5,0.3-6.7,0.6
			c-0.1,0-0.2-0.1-0.3-0.1c-0.1-0.1-0.3-0.1-0.4-0.2c-0.4-0.2-0.7-0.3-1.1-0.5C74.3,154.6,73,154,71.7,153.4z M62,176.1
			c-6.6-3.8-10.6-7.5-12.1-9c6.5-5.4,16.8-8.7,32.1-10c3.5-0.3,8.1,0,11.1-0.1c6.3-0.1,11.3,0.3,12.6,0.4
			c4.2,6.6,10.4,10.2,15.4,12.7c2.5,1.2,4.8,2.2,6.7,2.8c-2.1,0.3-4.9,0.8-7.9,1.7c-5.9,1.7-13.9,5.1-19.4,11.7
			c-1.1,0-3.3-0.1-6.3-0.2C79.7,184.7,68.8,180,62,176.1z M53,184.2C53,184.1,53,184.1,53,184.2c0-0.3-0.1-0.6-0.1-0.9
			c3.6,2.8,7.9,3.5,8.2,3.5c6.4,0.5,19,0.8,25.2,1.2c4.7,0.3,10.7,0.8,12.9,1c0,0,0,0.1,0,0.1c0.1,0.1,1.1,1.5,3.2,3.2
			c-4,0.2-13,0.6-22.2,0.2C64.3,191.6,54.8,188.8,53,184.2z M71.7,198.6c-6-1.6-9.1-3.1-9.1-3.2c0,0,0,0,0,0c-3.8-2.2-6.4-4-8.1-6.8
			c4.5,3.1,13.1,5.2,25.7,5.8c3.1,0.2,5.3,0.1,8.2,0.3c3.9,0.2,5.2,0.3,7.6,0.5c-4.2,1.3-7.1,2.4-13.6,5.4
			C78,200,74.6,199.3,71.7,198.6z M67,232c-8.2-0.3-13.8-2.6-15.6-3.4c4.7-11.9,19.2-20,30.3-25.2c11.2-5.2,22.5-8,24.6-8.6
			c0.9,0.5,1.8,1,2.9,1.4c3.3,1.4,6.9,2.2,10.7,2.3c-0.3,0.4-0.5,0.9-0.9,1.1c-1.8,1.1-4.3,2.2-6.6,3.2c-2.3,1-4.5,2-6.8,3
			c-2.3,1-4.6,2-6.9,3c-2.2,1-4.5,2-6.7,3c-2.2,1-4.4,1.9-6.6,2.8c-2,0.9-4.1,1.7-6.1,2.6c-1.9,0.8-3.8,1.6-5.8,2.4
			c-1.6,0.7-3.2,1.3-4.8,2c-1.7,0.7-3.5,1.4-5.2,2c-0.5,0.2-1,0.4-1.5,0.6c-1,0.4-2,0.8-2.9,1.2c-0.5,0.2-1,0.5-1.4,0.7
			c-0.2,0.1-0.9,0.4-0.9,0.7c0,0.4,1.4,0.1,1.9,0c0.8-0.2,2.3-0.6,4.5-1.2c11.5-3.3,38.8-10.6,51.9-15.8c-2.6,3.9-5.1,8.5-5.4,12.8
			c0,0.3,0.1,0.5,0.2,0.7c-9.2,4.1-16.9,5.7-24,7C78,231.8,71.9,232.2,67,232z M53.2,250.9c-0.2-0.2-0.3-0.5-0.5-0.7
			c2.1,0.6,5.7,0.1,9.7-1.4c3.7-1.4,7.8-3.9,13-6.7c7-3.8,14.3-8.1,17.3-10c6.8-1.9,12.6-4,19.9-7.4c0.1-0.1,0.8-0.7,0.9-0.8
			c0.9,0.2,2,0.3,3.3,0.5c-3.6,2.7-14.3,10.6-26.1,17.3C72.1,252.4,59.1,255.5,53.2,250.9z M72.7,256.3c-6.5,1.3-12.5,1.2-16.3-2.1
			c1,0.4,2.8,0.5,4.3,0.5c7.4,0,17.5-3.7,30.9-11.4c6.4-3.7,10.7-5.7,15.5-9.1c-2.7,2.8-3.8,4.1-7,7.8c-1,1.2-2.9,2.5-4.7,3.9
			C83.3,254.2,72.8,256.2,72.7,256.3z M120.4,273.8c-4.5,5.1-8.3,9.4-12.2,12.9c-9.7,9-17,14.1-22.4,17c-6.1,3.3-10.9,4.3-12.5,4.6
			c-2.4-13.7,2.3-24.5,2.4-24.6c0,0,0,0,0,0c4.9-13.3,13.6-25.3,21.9-35.3c0,0,4.2-5.4,9.3-10.7c5.9-6.3,12.8-12.8,12.8-12.8
			c0.1-0.1,0.1-0.1,0.1-0.2c1.3,0,2.6,0,4.2-0.1c2-0.1,4.1-0.2,6.1-0.5c1.1-0.2,2.2-0.4,3.3-0.7c0.7-0.2,1.4-0.5,2.1-0.4
			c0.6,0.1,1.3,0.4,0.7,1.1c0,0-53.4,66.2-57.7,77.7c0,0-0.1,0.3-0.1,0.4c0,0.1,0.1,0,0.1,0s42.7-49.8,57.9-66.5
			c-0.2,0.9-0.3,1.8-0.5,2.8c-0.3,2-0.5,3.9-0.7,5.9c-0.2,2-0.2,4.1,0,6.1c0.1,0.6,0.1,1.2,0.1,1.8c-0.1,1.1-0.9,2-1.4,2.9
			c-0.3,0.5-0.6,1-0.9,1.6C128,264.7,120.9,273.2,120.4,273.8z M94.9,327.7c-1.6,0.5-3.3,0.1-3.8,0c11.3-5.8,23.2-31.8,23.9-33.1
			c1.7-3.3,3.7-7.1,5.5-10.4c4.9-9.3,9.8-18.4,13-24.1c1.1-1.8,2.2-3.5,3.2-5.2c0.2,1.2,0.5,2.3,0.9,3.5c0.1,0.4,0.5,0.7,0.9,0.7
			c-10.4,24.1-20.1,42.3-28.6,54.3C102.4,323.7,97.9,326.9,94.9,327.7z M126.3,301.3c-3.3,5.3-6.3,10.3-12.7,17
			c-1.3,1.4-3.8,3.6-5,4.6c-3.4,2.5-6.3,3.7-9,4.7c5.4-5,7.2-6.7,11.5-12.5c6.8-9.4,14.6-23.5,22.9-40.8c2.3-4.9,5.8-13.2,7.8-15.9
			c0.6-0.2,1.2-0.4,1.9-0.6c-3.2,9.4-7.7,23.4-10.8,32.1C131.5,292.9,129.5,296.1,126.3,301.3z M161.4,308.5
			c-3.8,8.5-7.1,13.2-11.9,20.7c-4.7,7.4-11.2,13.2-15,16c-3.8-11.3-4-25.2-3-35.3c0.8-7.9,2.1-13.1,2.9-16.8
			c4.4-14.4,11.6-35.8,11.6-35.9c0,0,6.7-2.6,13.6-8.2l-21.4,81.3c-0.1,0.5-2.1,7.7-1.4,8c0.1,0,0.1,0,0.2,0
			c0.4-0.1,1.2-2.6,1.3-2.9c1-2.9,19.9-60.1,26.3-82c0.1,2.2,0.3,4.3,0.6,6.3c1,5.7,2.9,10.3,6.3,14.3c0.2,0.2,0.6,1.3,0.3,2.6
			c-1.8,8.2-3.7,15.4-6.8,22.6C164.4,301.4,162.5,306,161.4,308.5z M162.4,323.9c3.6-6.9,4-16.7,5.7-22.9c0.4-1.9,1-4,1.5-5.7
			c1.8-6.8,3.3-12.5,4.4-18.1c0.5-1.7,0.5-2,0.7-2.8c1.2-0.9,2.8-1.6,4.5-2.8c0,0.7-0.2,1.1-0.4,2.5c-0.7,3.8-2.1,10.6-3.9,18.6
			C172.2,304.5,168.7,318,162.4,323.9z M176.3,309.8c-3.6,5.5-4.9,7.6-8.2,10c3.8-6,5.4-12.3,8.4-25.2c1.5-6.5,2.9-13.6,3.8-18.3
			c0.8,4.2,2.1,8.3,3.4,11C180.9,299.9,176.7,308.9,176.3,309.8z"/>
		<path d="M184.4,237.5c-0.4-0.1-1.8-0.6-1.9-0.2c-0.1,0.2-3,14.6-6.6,23.5c1.7-7.5,4.1-18.7,4.5-24.2c0-0.5-0.3-0.8-0.8-0.9
			c-0.4,0-1.2,0-1.2,0.4c0,0.1,0,0.1,0,0.2l-0.2,0c0,0,0.1,5.4-3.5,23.2c-0.1,0.5-0.2,0.9-0.3,1.4c-0.1,0.5-0.2,0.9-0.3,1.4
			c-0.1,0.4-0.2,0.9-0.3,1.3c-0.1,0.4-0.2,0.7-0.2,1.1c-0.1,0.2-0.1,0.5-0.2,0.7c-0.1,0.3-0.1,0.5-0.2,0.8c-0.1,0.4-0.2,0.8-0.2,1.2
			c0,0.3-0.1,0.6,0,0.9c0.1,0.3,0.4,0.4,0.6,0.4c0.4,0,0.9-1,1.1-1.6c0.4-0.9,0.8-1.8,1.2-2.7c0.5-1,0.9-1.9,1.4-3
			c0.2-0.5,0.4-1,0.6-1.5c0.2-0.6,0.5-1.3,0.7-1.9c2.9-7.9,6.3-18.9,6.5-19.6C185.1,238,184.9,237.6,184.4,237.5z"/>
		<path d="M226,246c0,0-10.7,7.6-22.4,2.6c0,0-5.5-1.9-7.2-6c0,0-0.4,5.4-0.4,5.4c0-0.2,0.4-0.3,0.5-0.3c0.3,0,0.7,0.1,1,0.3
			c0.8,0.3,1.6,0.8,2.3,1.3c0.4,0.3,0.9,0.6,1.4,0.8c1,0.5,2,0.9,3,1.2c0.9,0.3,1.9,0.6,2.8,0.8c1.1,0.2,2.3,0.5,3.4,0.6
			c1.3,0.1,2.6,0.1,3.9,0.1c0.2,0,0.3,0,0.5,0c0,0,10.8-0.9,12.9-3.7L226,246z"/>
		<path d="M225.2,241.9c-8.5,2.3-13-2.8-13-2.8c-13.5,5.4-18.7-4.5-18.7-4.5c-0.4-0.6-1-0.2-1-0.2c-13.3,7.3-22.4-7.2-22.4-7.2
			c-16.1,2.8-17.8-14.9-17.8-14.9c-16.3-2.4-13.4-17.2-13.4-17.2c0.1-0.7,0.4-1.3,0.6-2c0.2-0.5,0-1.1-0.4-1.5
			c-0.2-0.3-0.5-0.4-0.7-0.6c-4-3.8-4.7-10.6-4.7-10.6c-1.1-10.7,8.1-17.2,8.1-17.2c1.1-0.7,1.1-1.6,1.1-1.6c0.1-0.5-0.2-1-0.2-1
			c-1.7-3-0.9-9.4-0.9-9.4c4.7-11.3,15.9-7.1,15.9-7.1c5.6-10.7,15.1-8.6,15.1-8.6c10.3,2.4,9.2,14.8,9.2,14.8c6.9,1,8,6.6,8,6.6
			c0.8,3.2-0.5,5.7-1.8,7.5c-1.6,2.1-5.4,2.5-6,2.8c-0.3,0.1,0.2,0.3,1.7,0.4c5.2,1.2,10.6-6.1,10.6-6.1c-1-9-9.2-11.8-9.2-11.8
			c0-10.1-6.9-13.5-6.9-13.5c-14.4-9.1-21.7,5.7-21.7,5.7c-6.9-1.9-10.6,1-10.6,1c-9.5,4.1-5.8,18.1-5.8,18.1
			c-17.4,17-3.2,31.2-3.2,31.2c-1.1,5.1,0.3,10.6,0.3,10.6c2.3,7.8,8.8,10.5,8.8,10.5c1.6,0.2,0.8,1.7,0.8,1.7l1.3,0.4
			c2.1-0.5,2.6-0.1,2.6-0.1c1.2,5.8,4.4,10.2,4.4,10.2c8.6,8.5,15,4.6,15,4.6c11.8,13.9,22.5,8.1,22.5,8.1c0.9,1.1,4,3,4,3
			c1.2,0.6,2.4,1.1,3.7,1.6c1.1,0.4,2.1,0.6,3.2,0.9c0.9,0.2,1.7,0.3,2.6,0.4c1.2,0,2.4,0.1,3.6-0.2c0.5-0.1,1-0.2,1.4-0.5
			c0.4-0.3,0.8-0.6,1.4-0.7c0.5-0.1,1-0.1,1.4,0.1c0.4,0.2,0.8,0.5,1.2,0.7c0.7,0.4,1.4,0.7,2.2,1c0.9,0.3,1.9,0.4,2.9,0.6
			c0.9,0.1,1.9,0.2,2.8,0.3c0.7,0.1,1.5,0.1,2.2,0.1c0.3,0,0.6,0,0.9,0c0,0,0.1,0,0.1,0L225.2,241.9z"/>
	</g>
	<g>
		<path d="M318.1,304.4c-3.8-2.1-4.7-4.3-4.9-5.3c1.9-0.6,2.1-1.4,2.1-1.4c0.1-0.6-0.2-1.1-0.7-1.3c-0.4-0.2-0.8-0.3-1.1-0.5
			c-0.3-0.2-0.7-0.3-1-0.5c-1-0.6-2-1.3-2.8-2.1c-0.7-0.7-1.4-1.4-2-2.3c-0.1-0.1-0.2-0.3-0.3-0.4c-3.5-4.2-4-10.6-4-10.6l-7.8-17.8
			c-5.9-8-12.8-8.8-12.8-8.8c-5.9-1-10.3,2.1-10.3,2.1l-0.8,3.4c12.2-10.3,22.9,5.5,22.9,5.5c1.2,2.1,2.1,4.4,2.8,6.7
			c0.9,2.7,1.7,5.4,2.4,8.1c0.5,1.9,0.9,3.9,1.5,5.8c0.2,0.6,0.4,1.1,0.6,1.6c0.6,1.4,1.4,2.7,2.2,4c0.7,1.2,1.5,2.4,2.4,3.5
			c1,1.2,2.1,2.2,3.4,3c0.2,0.1,0.5,0.3,0.7,0.3c-4,0.7-6.6,0.2-8.8-1c-3.6-1.8-5.7-4.9-5.7-4.9c-11.7,0.6-18-12.5-18-12.5
			c0.2,1.7,0.3,5.2,0.3,5.2c8.4,11.3,17.7,10.3,17.7,10.3c4.9,4.5,10.8,5,10.8,5c1.2,0.1,2.2,0.1,3,0c2,4,5.8,6.7,5.8,6.7
			c0.2,0.1,0.3,0.2,0.3,0.3c0,0.7-2.4,0.7-2.4,0.7c-10.6,0.2-16.9-7.6-16.9-7.6c-11.1,2.2-18.3-8.1-18.3-8.1
			c0.5,0.9,0.5,3.7,0.5,3.7c9.2,8.7,18.3,7.2,18.3,7.2c7,6.7,15,6.8,15,6.8c7.3,0.2,7.4-3.2,7.4-3.2
			C319.4,305.1,318.1,304.4,318.1,304.4z"/>
		<path d="M322.5,315.8c-5.5-4.9-5.4-7.8-5.4-7.8l-3.4,0.7c0.8,2.6,4.8,7.1,4.8,7.1c0.4,0.4,0.5,0.7,0.4,0.8
			c-0.1,0.2-0.3,0.2-0.3,0.2c-12.5,1.6-20.6-7.8-20.6-7.8c-9.4,3.2-19-7.5-19-7.5c0.2,0.3,0.5,3.5,0.5,3.5c7.8,7.6,20,7.9,20,7.9
			c5.9,5,11.3,6.2,11.3,6.2c8.3,2.1,11.9-0.7,11.9-0.7C324.4,317.2,322.5,315.8,322.5,315.8z"/>
		<path d="M331.2,327.1c-0.7-0.3-1.4-0.5-2.1-0.8c-0.3-0.1-0.6-0.3-0.9-0.4c-0.1,0-0.1-0.1-0.2-0.1c-5.7-3.6-6.2-8.4-6.2-8.4
			l-3.9,1.9c2.2,3.8,9.3,10,9.3,10c-15.1,5.2-26.5-4.7-26.5-4.7c-1.2-0.9-1.1,0.4-1.1,0.4c0.2,5.9-1.9,10-1.9,10
			c-5.4,12.3-15.4,16.9-15.4,16.9c-1.2,0.5-0.3-0.5-0.3-0.5c0.4-0.6,0.7-1.2,1.1-1.9c0.5-0.9,0.9-1.8,1.3-2.8
			c1.6-4.8,1.5-10.4,1.5-10.4c6.8-6.8,7.8-21.6,7.8-21.6c-0.2,0-3.2,0.4-3.2,0.4c0,1.4,0,2.6,0,2.6c-0.5,14.9-9.4,21.2-9.4,21.2
			c-0.6,0.2-0.5-1.4-0.5-1.4c0.5-10.8-5.4-23.1-5.4-23.1c-4.5-9.4-10.2-15.7-10.2-15.7l-0.1,3.5c15.6,16.1,13.4,37.4,13.4,37.4
			c0,1-0.1,1.8-0.1,1.8c0.1,1.8,2.3,0.5,2.3,0.5c1-0.7,2.7-2.5,2.7-2.5c0.5,5.7-4.3,12.3-4.3,12.3c-1.3,1.7-0.5,1.9-0.5,1.9
			c16.2,1,24.8-24.1,24.8-24.1c18,7.4,28.5-0.4,28.5-0.4c0.5-0.3,0.6-0.8,0.5-1.2c-0.1-0.2-0.3-0.5-0.4-0.6
			C331.5,327.3,331.4,327.2,331.2,327.1z"/>
		<path d="M312.9,331.6c0,0,1.8,6.6,0.1,11c0,0-4.7,3.5-15.3-2.9c0,0,2.1-4.6,2.1-4.7c-0.2,0.4,0.2,1.2,0.4,1.5
			c0.6,1.1,1.6,2,2.7,2.6c1.7,0.9,3.6,1.5,5.5,2.1c0.3,0.1,0.6,0.2,0.9,0.2c0.1,0,0.8,0.1,0.8,0.2c0,0-6.4-9.4-9.4-11.5l2.2-2.1
			c0.6,1,1.1,2,1.7,3c0.6,0.9,1.2,1.8,1.8,2.8c0.6,0.9,1.3,2,2,2.8c0.6,0.8,1,1.3,1.8,2c0.2,0.2,0.6,0.4,0.8,0.6
			c0.2,0.1,0.4,0.3,0.6,0.4c0-0.7,0-1.6-0.1-2.4c-0.1-1.4-0.3-2.8-1-4c-0.2-0.4-0.4-0.7-0.7-1.1c-0.1-0.2-0.2-0.3-0.4-0.5
			c-0.1-0.1-0.3-0.5-0.4-0.5C309.2,331.2,312.9,331.6,312.9,331.6z"/>
		<path d="M335.1,378.5c-0.2-0.3-21.2-26.7-29.1-36.6c-0.4,0.3-1,0.5-1.5,0.5c-0.4,0-0.8-0.1-1.2-0.3c0,0.2,0.1,0.3,0.2,0.4
			c6.7,8.1,30,36.9,30.3,37.2c0.6,0.7,1.1,1.4,1.6,2.2c0.5,0.7,1,1.4,1.4,2.1c0.4,0.6,0.8,1.2,1.2,1.8c0.3,0.5,0.6,1,0.9,1.6
			c0.2,0.4,0.4,0.8,0.6,1.3c0.1,0.3,0.2,0.7,0.3,1c0.1,0.3,0.1,0.5,0.1,0.8c0,0.2,0,0.4,0,0.6c0,0.7-0.4,1.7,0.4,2.1
			c0.6,0.3,0.9-0.3,0.9-0.3C341.4,392.7,343.4,389.3,335.1,378.5z"/>
		<path d="M323.7,397.1l1-1.8c0,0,2.2-0.4,3.9,0.9c1.5,1.1,2.6,3.1,0.8,8.8c0,0-0.7-0.7-1.1-1.2c0,0,1.2-4.3-0.7-6.1
			C326.8,397,325.6,397,323.7,397.1z"/>
		<path d="M351.3,376.4c-0.1-0.3-0.5-0.4-0.7-0.5c-0.2-0.1-0.3-0.1-0.5-0.2c-1.1-0.3-2-0.9-2.9-1.5c-0.7-0.5-1.3-1-1.8-1.6
			c-0.2-0.2-0.3-0.4-0.5-0.6c-0.1-0.1-0.7-0.9-0.9-1.9c0.4-0.3,0.7-0.7,0.7-1.1c0-0.3-0.1-0.6-0.3-0.8c-0.2-0.3-0.5-0.5-0.9-0.6
			c-0.7-0.2-1.4,0-2-0.3c-0.8-0.5-1.5-1.3-2.1-2c-2.4-2.5-3-4-3.2-4.7c0.2-0.2,0.4-0.4,0.5-0.6c0.3-0.6,0.3-1.3-0.1-1.8
			c0,0-0.1-0.1-0.1-0.1c-0.5-0.5-1.1-0.7-1.7-0.9c-0.7-0.2-1.3-0.4-1.9-0.8c-0.6-0.4-1.2-0.9-1.7-1.4c-0.6-0.5-1.2-1-1.7-1.6
			c-0.1-0.2-0.3-0.3-0.5-0.5c-0.5-0.5-0.9-1.1-1.2-1.7c-0.4-0.8-0.2-1.3,0.2-2c0.2-0.4,0.2-0.8,0-1.2c-0.2-0.4-0.6-0.6-0.9-0.9
			c-0.3-0.2-0.5-0.3-0.8-0.4c-0.8-0.4-1.5-0.8-2.2-1.3c-0.2-0.1-0.3-0.2-0.5-0.3c-4.7-3.2-10.8-12.8-10.8-12.8l0.5,5.7
			c3.4,5.1,10.8,11.8,10.8,11.8c-4.8,2.9-11.5-2.1-11.5-2.1c2.5,4.2,5.9,4.6,5.9,4.6c2,0.5,3.9,0.3,5.8-0.3c0.1,0,0.2-0.1,0.3-0.1
			c3.2,4.2,8.1,7.8,8.1,7.8c-5.8,2-12.5-3.3-12.5-3.3c0.7,1.6,2,2.8,2,2.8c1.5,1,2.9,1.8,4.3,2.2c2.6,0.7,4.9,0.5,6.5,0.2
			c2.8,4.5,6.3,7.4,6.3,7.4c-6.9,0.4-9.9-2-9.9-2c-1.3-0.7-1-0.1-1-0.1c2.2,4.6,8.5,4.5,12.1,4c0.3,0.3,0.6,0.6,0.9,0.9
			c0.5,0.5,1,1,1.5,1.5c0.5,0.5,1,1,1.5,1.6c0.3,0.3,0.5,0.7,0.8,1c0.1,0.2,0.2,0.3,0.3,0.5c0.1,0.1,0.3,0.3,0.1,0.4
			c-0.2,0.2-0.7,0.2-1,0.3c0,0-6.3,1-10.1-2.2c0,0,0.4,4,6.9,4c0,0,8.9,0.6,9.9-1.6C351.4,377.3,351.5,376.7,351.3,376.4z"/>
		<path d="M378.9,420.9c0.6-4.3-1.2-6.3-1.2-6.3c-2.3-3-6.3-4.1-6.3-4.1c-6.3-7.7-20.8-18.5-20.8-18.5l0.4,3.3
			c14,10,17.9,17.4,17.9,17.4c3-0.1,5,1.2,6.2,2.6c1.3,1.4,1.8,2.9,1.8,2.9c0.3,1.9,0,3.9-0.7,5.4c-0.5,1.1-1.2,2.1-2,2.9
			c-0.2,0.2-0.4,0.4-0.6,0.5c-0.3,0.2-0.6,0.5-1,0.6c-0.2,0.1-0.8,0.1-0.7,0.4c0,0.3,0.4,0.4,0.5,0.4c0.2,0.1,0.5,0.1,0.8,0.1
			c0.6,0,1.2-0.3,1.8-0.6c0.9-0.5,1.4-1.4,1.9-2.2c0.1-0.2,0.2-0.5,0.4-0.7c0.4-0.3,0.5,0.5,0.5,0.7c0,0.4,0,0.9,0,1.3
			c-0.1,1.3-1,2.3-2.1,2.9c-0.3,0.1-0.6,0.3-0.9,0.4c-0.6,0.2-1.1,0.3-1.7,0.4c-2.9,0.4-4.7-0.3-4.7-0.3
			c-10.2-3.5-6.7-14.4-6.7-14.4c-1.9-0.1-4.4-1.9-4.4-1.9c-4.3-3-13.9-15.2-13.9-15.2c-1.7-0.2-1.1,1.1-1.1,1.1
			c9.1,13.1,17.2,17.4,17.2,17.4c-1.3,6.1,2,10.3,2,10.3c2.7,4.1,7.1,4.8,10.4,4.9c2.6,0.1,4.5-1,4.5-1
			C383.4,427.8,378.9,420.9,378.9,420.9z"/>
		<path d="M373,431.7c0,0-1,3.8-7.1,4.3c0,0-2.6,0.3-3.5-0.4c0,0,3.4-3.5,3.6-4.8l-2.4-1.2c0,0,0,0,0,0.1c-0.2,0.6-1.2,3.8-4.4,5.7
			c0,0-1.4,0.5-0.5,1.2c0,0,4.3,2.9,11.2,1.2c0,0,1.5-0.4,3.2-1.6c2.1-1.4,4.5-3.8,5.4-6.4L373,431.7z"/>
		<path d="M370,415.4c0,0,2-1.1,3.8,0.9c0.5,0.5,1,1.2,1.3,2.5c0,0,0.7,3.7-1.8,5.6c0,0-0.7,0.5-1.6,0.4c-0.5,0-1.3-0.2-1.8-0.6
			c-0.2-0.1-0.8-0.5-0.4-0.6c0,0,4.2,0.9,3.6-4.6c0,0-0.4-2.4-2.5-2.9C370.6,416.3,369.4,415.9,370,415.4z"/>
		<path d="M404.7,390.1c-0.6-6-3.2-7.3-4.5-7.6c-1-3.9-3.4-4.4-4.6-4.3c-0.3-0.7-0.8-1.3-1.3-1.8c-1.9-2-4.7-2.4-4.7-2.4
			c-6.2-0.7-10.2,4.2-10.2,4.2c-3.2-0.1-6.6-0.3-9.8,0.1c-3.2,0.4-6.3,1.7-9.4,2.4c-1.7,0.4-3.5,0.8-5.3,0.9c-0.3,0-0.6,0-0.9,0
			c-4.2-0.9-4.3-3.6-4.3-3.6s-7.6,0.5-5.7,1.1c1.9,0.6,5,3.9,5,3.9c2.2,2.5,5.8,1.6,8.6,0.9c2-0.5,4-1.1,6-1.7
			c1.9-0.6,3.7-1.2,5.7-1.4c3.6-0.3,7.2-0.2,10.8-0.2c0.1,0,0.8,0.1,0.9,0c5.5-6.7,10.5-3.5,10.5-3.5c4.8,2.9,1.5,8.7,1.5,8.7
			c-0.5,1.1,0.7,1.9,0.7,1.9c0.5,0.4,1.2-0.1,1.5-1c0.7-1.5,0.9-4.1,0.9-4.1c0.1-0.8,0.1-1.5,0-2.2c2.6,0.6,1.4,6.1,1.4,6.1
			c-1.3,3.7-5.5,5.2-5.5,5.2c-6.4,1.8-9.9-4.2-9.9-4.2c-13,8.4-25,0.3-25,0.3l1.3,3.1c12.7,5.8,23.4-0.2,23.4-0.2
			c4.5,4.2,8.5,3.6,8.5,3.6c1.7-0.2,3.1-0.7,4.3-1.3c4.6,1.9,6.7,7.5,6.7,7.5C405.3,398.2,404.7,390.1,404.7,390.1z M401.9,396.1
			c-1.4-1.8-2.6-3.3-4.8-4.9c2.2-2,3-4.3,3.2-5.9c1.5-0.2,2,2.2,2,2.2C403.5,392.4,401.9,396.1,401.9,396.1z"/>
		<path d="M398.4,412.6c0,0,1.3-2.4,0.5-5.7c0,0,1.8-8.9-5.8-11.3c0,0-3-1.2-7.1,0.4c-0.8,0.3-1.7-0.1-2.4-0.5
			c-2-1.1-4.2-1.9-6.3-2.6c-0.3-0.1-0.5-0.2-0.8-0.3c-0.2-0.1-0.5-0.2-0.7-0.2c0,0-8.6,0.6-8.6,0.6c0.4,0.1,0.8,0.1,1.1,0.2
			c1,0.2,1.9,0.4,2.9,0.6c1.3,0.3,2.5,0.6,3.8,1c1.3,0.4,2.6,0.7,3.8,1.1c1,0.4,1.9,0.9,2.8,1.5c0.7,0.4,1.4,1,2.1,1.3
			c0.7,0.3,1.6,0.5,2.2,0c0.8-0.5,1.7-1,2.6-1.2c1-0.2,2,0,3,0.3c1.7,0.5,3.1,1.3,4.2,2.8c0.5,0.8,0.8,1.7,1,2.6
			c0,0,1.2,5.6-7.7,7.1l1.1,1.9c0.5-0.1,1.1-0.4,1.6-0.5c0.9-0.3,1.8-0.8,2.7-1.2c0.4-0.2,0.7-0.5,1.1-0.9c0.2-0.2,0.6-0.9,1-0.5
			c0.5,0.5-0.1,1.8-0.4,2.2c0,0-2.1,3.3-7.2,3.3c-1.3,0-2.6-0.1-4.5-0.8c0,0-3.5-1.6-4.6-7.8c0,0-10,0.4-20.1-5.6l5.8,5.5
			c0,0,6,1.6,12.3,2.3c0,0,0.7,7.1,8.5,8.4c0,0,0.7,0,1.1,1.5c0,0,1.4,3.9-0.9,7.3c0,0-0.9,1.5-0.1,1.8c1.2,0.4,2.9-0.5,3.9-1.1
			c1.4-0.8,2.8-1.6,3.9-2.7c0.3-0.3,0.7-0.6,0.9-1c0.6-0.7,1.1-1.6,1.6-2.4c0.8-1.3,1.3-2.8,1.6-4.3c0.1-0.5,0.1-0.9,0.1-1.4
			c0-0.2,0-0.5,0-0.7C398.4,413.2,398.3,412.7,398.4,412.6z M389.1,423.5c0.8-3.4,0-7.3,0-7.3c3.8-0.6,6.9-1.7,6.9-1.7
			C395.4,422.5,389.1,423.5,389.1,423.5z"/>
		<path d="M391,399c-3-0.7-3.6,1-3.6,1c-0.4,0.9,0.7,0.7,0.7,0.7c1.2-0.3,2.3,0,2.3,0c1.1,0.2,2,1,2.2,2.1c0.1,0.4,0.1,0.9,0.1,1.3
			c0,0.5-0.3,0.9-0.3,1.4c0,0.4,0.4,0.9,0.8,0.7c0.4-0.1,0.7-0.7,0.8-1c0.4-0.8,0.4-1.8,0.2-2.7c-0.1-0.3-0.1-0.7-0.3-1
			c-0.1-0.3-0.3-0.7-0.6-0.9C392.4,399.3,391,399,391,399z"/>
		<path d="M335.7,406.5c0.2-0.3,0.5-0.6,0.7-0.9c0,0,7.7,1,9.6-1.4l-1-1.5c0,0-1.3,0.5-1.4,0.5c-1.5,0.4-3,0.5-4.5,0.4
			c-1.2-0.1-2.5-0.1-3.6-0.4c-0.7-0.1-1.3-0.4-1.7,0.4c0,0-2.2,9-11,7.6c0,0-2.3,0-2-2.1c0.7,0.3,1.5,0.5,2.6,0.5
			c1.1,0,2.3-0.3,3.7-1c0.4-0.2,0.6-0.8,0.4-1.2c-0.2-0.4-0.8-0.6-1.2-0.4c-3.1,1.7-5.4,0-5.5,0c-4.8-3.6-2-9.2-1.8-9.6
			c0.5-0.9,1.2-1.7,2-2.3c0.5-0.4,1.2-0.8,2.1-1.2c1.4-0.6,3-0.5,5.2,0.2c0.4,0.1,0.9,0.3,1.4,0.6c1.3,0.6,3.6,1.5,5.1,1.1
			c1.5-0.4,2.4-1.5,2.6-2.9c0.2-1.3-0.3-2.5-0.7-3.3c-0.2-0.5-0.8-1.4-0.9-1.5c-2.5-3.6-3.4-4.6-7.9-10c-1.5-1.5-3.5-4.2-3.6-4.3
			c-2.6-3-6.4-7.9-9-11.1c-10.2-12.1-18.9-21.4-19-21.6c-0.1-0.1,0-0.9-0.1-0.9c0,0-1.4,3.6-3.1,4c0,0.2,0.5,0.2,0.7,0.2
			c0.6-0.2,18.3,15.9,40.3,45.4c0.7,0.9,1,1.9,0.9,2.6c-0.1,0.8-0.9,1.2-1.5,1.4c-0.9,0.2-2-0.3-3-0.8c-0.5-0.2-1.1-0.5-1.6-0.6
			c-2.5-0.8-4.6-0.8-6.4-0.1c-0.8,0.3-1.8,0.8-2.6,1.5c-0.9,0.8-1.8,1.8-2.4,2.8c0,0,0,0,0,0c0,0.1-1,1.8-1.2,4.2
			c-0.2,2.5,0.5,4.6,2,6.4c0,1.5,0.3,5,3.4,5.5c0,0,3,6.9,12,5.6c0,0,6.5-1.1,6.9-5.2c0,0,0.3-1.5-1-1.4c-1.2,0-2.7-0.2-3.7-0.9
			c-0.4-0.2-0.9-0.6-1.1-1c-0.3-0.6-0.1-1.6,0.2-2.2C335,407.2,335.3,406.8,335.7,406.5z M337.4,414.3c-7.4,4.8-12.7-0.7-12.7-0.7
			c3.8,0,7.1-2.7,7.1-2.7C333.3,413.3,337.4,414.3,337.4,414.3z"/>
		<path d="M385.3,378.9c0.1-0.1,0.1-0.1,0.2-0.1c0.5-0.3,1.5-0.8,2.4-0.8c0.4,0,0.9,0,1.3,0.1c0,0,3.9,0.9,2.6,6.8
			c0,0-1.2-1.4-1.2-1.4c0,0,0-0.3,0-0.3c0-0.3,0-0.6-0.1-0.9c-0.1-0.7-0.4-1.6-0.9-2.1c-0.7-0.8-2.4-0.8-3.2-0.2
			c-0.3,0.2-0.4,0.5-0.7,0.5c-0.3,0-0.6,0-0.8-0.2C384.5,379.9,384.8,379.2,385.3,378.9z"/>
	</g>
	<g>
		<path d="M229.4,305.8c0-0.2,0-0.3,0-0.5c0-0.6,0.1-1.1,0.1-1.7c-0.4,0.1-2.2,2-2.5,2.3c-7.2,6.2-16.4,5.7-16.5,5.7
			c-0.2,0-0.5,0.1-0.6,0.3c-1.7,2.4-3.2,4.6-5.2,6.3c-5.5,4.6-12,7.1-18.9,6.7c-4-0.2-6.9-1.3-9-2.2c4.8-1.6,9.4-6.8,10-7.6
			c0.3-0.4-0.6-1.1-1-1.4c-0.4-0.3-1-0.3-1.3,0.1c-0.4,0.5-0.9,1.1-1.3,1.6c-0.9,1.2-1.7,2.4-2.9,3.4c-0.7,0.6-1.6,1-2.4,1.4
			c-1,0.4-2,0.8-3.1,1c-0.6,0.1-1.2,0.3-1.7,0.6c-1,0.8,0.5,2.4,1.1,2.9c1.3,1.1,2.9,1.8,4.5,2.2c1.1,0.2,2.2,0.3,3.3,0.4
			c1.1,0.1,2.3,0.1,3.4,0.1c0.5,0,1.1,0,1.6-0.1c1.1-0.1,2.3-0.3,3.4-0.4c2-0.3,3.9-0.7,5.8-1.3c1.5-0.5,3-1.1,4.5-1.8
			c4.9-2.2,6.9-5,10.9-10c0.1-0.1,0.8-0.1,0.9-0.2c0.3-0.1,0.7-0.1,1-0.2c0.9-0.2,1.9-0.4,2.8-0.6c2.7-0.7,5.3-1.8,7.8-3.3
			c1.6-0.9,3-2,4.6-3C229.3,306.5,229.4,306.2,229.4,305.8z"/>
		<path d="M163.1,392.4c-0.1-0.7-0.2-5.5,4.6-10.1c0,0,0,0,0.1-0.1l15-16.8l13.3-15.2c-0.6-0.3-2.1-0.5-2.5-1l-12.2,14.8L166.4,381
			c-5.1,4.9-5.2,10-5.1,11.4H163.1z"/>
		<path d="M230.5,292.6c0-0.1,0-0.3,0-0.4c0-0.1,0-0.1,0-0.2c-0.4,0.2-0.9,0.9-1.2,1.1c-7.6,7-18.9,8.5-19,8.5
			c-0.2,0-0.3,0.1-0.4,0.2c-7.6,7.8-14.6,10.8-19.5,11.4c-3.3,0.4-6.4,0.2-8-0.2c4.4-3.7,7.7-8.4,8.7-9.8c0.6,0,1.1-0.1,1.7-0.1
			c0,0,15.4-0.9,20.7-12c0,0,11.8-3.6,17.8-9.9c0,0,0.5-4,0.5-4c0,0.1-0.3,0.3-0.3,0.4c-0.2,0.2-0.3,0.4-0.4,0.6
			c-0.5,0.8-1.1,1.6-1.7,2.3c-1,1.2-2.2,2.4-3.5,3.3c-1.8,1.3-3.7,2.3-5.7,3.2c-2.4,1-4.9,1.7-7.4,2.4c-0.3,0.1-0.6,0.2-0.9,0.3
			c-0.9,0.3-1.2,1-1.6,1.8c-0.2,0.6-0.6,1-1.1,1.4c-0.5,0.5-0.9,1.1-1.4,1.5c-0.8,0.8-1.7,1.5-2.7,2.2c-1.2,0.9-2.6,1.7-3.9,2.3
			c-1.6,0.7-3.2,1.3-4.9,1.6c-2,0.3-4,0.3-6,0.3c-0.1,0-0.7-0.1-0.8,0c0,0,12.8-8.9,16.6-28.6c0-0.1,0-0.1,0-0.2
			c0,0,2.6-13.1,11.3-16.1c0,0,9-2.5,15.4,2.9c0,0-0.8-2.9-1.8-4.9c-0.1,0-0.2,0-0.3,0c-0.1,0-0.4-0.1-0.5-0.1
			c0.1,0.2,0.2,0.3,0.2,0.6c0,0.2-0.2,0.3-0.5,0.2c0,0-12.5-6.1-21.8,6c0,0-4.6,9-6,18.2c0,0-4.4,13.7-13.6,19.8
			c-0.6,0.4-1.3,0.8-2,1c-0.9,0.3-2.3,0.6-2,1.8c0.3,0.6,0.9,0.9,1.5,1.1c0.8,0.3,1.6,0.4,2.4,0.5c-0.4,1.1-1.3,2.9-3.5,5.1
			c-1.4,1.4-3.8,3.3-5.1,4.5c-0.2,0.2-0.4,0.5-0.3,0.9c0.2,0.9,1.1,1.4,1.9,1.6c0.9,0.3,1.8,0.5,2.7,0.6c1,0.1,2,0,3.2-0.1
			c1.1-0.1,3.8-0.4,4.7-0.6c5.1-0.8,11.5-3,19.4-11.1c0.7-0.2,1.4-0.4,2.1-0.6c2.3-0.7,4.6-1.4,6.9-2.4c1.4-0.6,2.9-1.4,4.2-2.2
			c1-0.6,2.3-1.5,3.3-2.1c0.8-0.5,1.6-1,2.3-1.8C230.2,294.2,230.3,293.4,230.5,292.6z"/>
		<path d="M239.4,288c-0.7-13.2-2.6-23.5-5.8-30.5c-0.2-0.5-0.7-0.7-1.2-0.5c-0.5,0.2-0.7,0.7-0.5,1.2c6.2,13.9,6,38,5.7,45.3
			c-2.5,2.7-16.4,18.8-16.2,40.8c0,0-9.6-3.2-8.4-22.3c0,0-1.6,0-1.6,0c0,0,0,0.6,0,0.6c0,0.3,0,0.6-0.1,0.9c0,0.5-0.1,0.9-0.1,1.4
			c0,0.6-0.1,1.3-0.1,1.9c0,0.8,0,1.6,0,2.4c0.1,0.9,0.2,1.9,0.3,2.8c0.2,1,0.4,2,0.7,2.9c0.3,1,0.7,2,1.1,3c0.4,1,1,1.9,1.5,2.9
			c0.3,0.6,0.7,1.2,1.1,1.7c0.3,0.5,1.6,2.2,1.8,2.6c0.3,0.4,0.4,0.8,0.5,1.3c0.1,0.3,0.1,0.6,0.1,0.9c0,0.5,0,1,0,1.5
			c0,0-0.1,3.8,0.7,5.7c0,0-4.4-1.8-9.4-7.8c-1-1.6-1.8-3.3-2.5-5.2c-2-5.7-1.7-10.7-1.7-10.7c0-0.3-0.1-0.6-0.4-0.8
			c-0.3-0.2-0.6-0.2-0.9-0.1c-12.4,5.9-21.3,6.6-26.6,6.1c-3.3-0.3-5.6-1-7-1.6c4.7-2.6,8.5-7.3,8.6-7.5c0.3-0.4,0.2-1-0.1-1.3
			c-0.4-0.3-1-0.2-1.3,0.1c0,0.1-3.4,4.6-8.5,6.4c-1.8,0.6-2.1,1.4-2.1,1.8c0,0.5,0.6,1.4,1.1,1.7c0.1,0.1,2.9,2,9,2.6
			c2.1,0.2,4.3,0.3,6.4,0.2c0.3,0,2-0.3,2.1,0.1c0,0.1,0,0.3,0,0.4c0,0.2-0.3,0.5-0.4,0.6c-0.2,0.2-0.3,0.4-0.5,0.6
			c-0.4,0.5-0.7,0.9-1.1,1.3c-0.9,1-1.8,1.8-2.7,2.7c-1.5,1.4-3,2.9-4.7,4c-0.5,0.3-1.2,0.8-1.8,0.9c-0.3,0.1-0.6,0.3-0.7,0.6
			c-0.1,0.4-0.2,1.5,0.3,2.2c-0.3,1.3-1.3,4.7-5.3,7.6c-0.2,0.1-0.4,0.3-0.6,0.4c-0.4,0.3-0.8,0.5-1.3,0.7c-0.3,0.1-0.6,0.2-0.9,0.3
			c-0.5,0.1-1,0.2-1.5,0.4c-0.1,0.1-0.2,0.2-0.3,0.3c-0.2,0.2-0.1,0.5,0,0.7c0.1,0.1,0.2,0.3,0.3,0.4c0.1,0.1,0.2,0.2,0.3,0.3
			c0.1,0.2,0.2,0.4,0.3,0.6c0,0,0,0.1,0,0.1c0,0.1,0,0.3-0.1,0.3c-0.2,0.9-0.7,1.7-1.2,2.4c-0.4,0.5-0.9,1-1.4,1.4
			c-1,1-1.8,1.8-3.2,2.1c-0.6,0.1-1.6,0.1-1.6,0.9c0,0.4,0.2,0.8,0.4,1.1c0,0,0.1,0.1,0.1,0.1c-0.1,0.4-0.3,1-0.4,1
			c-0.6,1.4-1.8,2.5-3.1,3.4c-0.6,0.4-1.3,0.9-2,1.2c-0.7,0.3-1.6,0.4-2.3,0.5c-0.5,0.1-0.9,0.1-1.4,0.1c-0.5,0-2.1-0.3-1.9,0.7
			c0.4,2,2.3,3.2,4.2,3.6c0.7,0.2,1.4,0.3,2,0.4c1.5,0.2,3,0.1,4.5,0c1.3-0.1,2.7-0.3,4-0.8c0.9-0.3,1.6-0.8,2.2-1.5
			c0.2-0.2,1-1,0.7-1.4c0,0-0.2,0-0.4,0.1c-0.5,0.2-1.3,0.5-1.4,0.5c-0.7,0.2-1.5,0.4-2.3,0.6c-1.9,0.5-4.1,0.8-6,0.5
			c-0.5-0.1-1-0.3-1.5-0.5c-0.5-0.2-1-0.4-1.4-0.7c0.1,0,0.5-0.2,0.5-0.2c0.4-0.2,1-0.3,1.4-0.4c1-0.4,1.8-0.9,2.6-1.6
			c1.6-1.3,2.5-3.2,4.2-4.3c0.5,0.1,1.1,0.2,1.6,0.2c1.9,0.1,4,0,5.9-0.3c1.5-0.3,3.1-0.8,4.3-1.7c0.3-0.3,0.6-0.5,0.9-0.9
			c0.1-0.2,0.5-0.5,0.4-0.8c-0.1-0.3-0.4-0.3-0.7-0.1c-0.3,0.1-0.6,0.4-0.7,0.4c-0.3,0.2-0.7,0.4-1.1,0.5c-1.9,0.7-4.1,0.9-6.2,0.8
			c-0.4,0-0.8-0.1-1.2-0.1c-0.1,0-1.2-0.3-1.2-0.2c0,0,2.2-3.9,6.6-7c0.6-0.2,1.4-0.3,2.1-0.2c0,0,9.1,0.6,10.5-3.3
			c0,0-7.5,1.9-11.1,0.5c0,0,4.1-6,6.6-7.6c0.3,0,0.6,0.1,1,0.1c1.1,0,2.2,0,3.2,0c1.4-0.1,2.7-0.3,4-0.7c1.8-0.5,3.4-1.1,4.7-2.5
			c0.2-0.2,0.6-0.7,0.5-1c-0.1-0.5-1.5-0.3-2-0.1c-10.8,3.3-11.3,1.1-11.3,1c1.2-0.5,2.1-1.5,7.1-6.8c1.6-1.7,3.3-3.3,5-4.8
			c0.4-0.4,0.7-1,1.3-0.9c0.6,0.1,0.4,0.7,0.4,1.1c0,0.4-0.1,0.9-0.1,1.3c-0.1,0.8-0.1,1.6-0.1,2.5c0,1.9,0.3,3.8,0.9,5.6
			c0.3,0.9,0.8,2,1.3,2.9c0.2,0.3,0.7,0.2,1,0.2c0,0,0.1,0,0.1,0c0.2,0,4-1.2,8.1-3.6c1.2-0.7,2.8-1.9,4.3-3.2c0,0,0,0.1,0.1,0.1
			l-36.8,40.5c0,0,2-2.3,0,0c-1.2,1.4-4.3,4.1-2.9,7.6c0.7,1.7,2,2.9,3.7,3.2c2.6,0.6,5.4,0,8,0.4c0.8,0.1,1.5,0.3,2.2,0.6
			c0.5,0.2,1,0.5,1.3,0.9c0,0,0,0,0,0.1c0,0,0.7,0.7,1.2,1.8c0,0.1,0.1,0.1,0.1,0.2c0,0,0,0,0,0c0.4,1,0.8,2.3,0.6,3.5
			c-0.4,2.1-1.6,3.7-5.1,5.2c0,0,0,0,0,0c-0.6,0.3-1.4,0.7-0.8,1c1.5,1,3.2,0,4.7-0.4c0.2-0.1,0.9-0.2,1-0.4
			c-0.2,0.8-0.5,1.7-1.1,2.3c-0.7,0.7-1.6,1.2-2.6,1.4c-0.5,0.1-1.2,0.1-1.7,0.2c-1.5,0.1-2.9,0-4.5-0.5c-1.1-0.3-2.1-1.1-3.1-1.9
			c-0.2,0.6-0.5,1.2-0.9,1.6c0,0,0.1,0.1,0.1,0.1c-0.1,1.4-0.3,2.8-0.7,4.2c-0.3,1.3-0.7,2.7-1.7,3.7c-0.2,0.2-0.5,0.4-0.8,0.6
			c-0.2,0.1-0.3,0.2-0.5,0.3c-0.4,0.2-0.7,0.5-0.4,1c0.2,0.4,0.7,0.6,1.1,0.7c1,0.3,3,0.6,4.1,0.6c3.2,0,5.9-1.4,8.6-4
			c2.3-2.2,3.2-4.6,3.7-5.5c0,0,0,0,0,0c2.1-1.4,3.4-3.8,3.8-7.2c0.5-3.7-1-6.9-1.5-7.7c-0.6-1.4-1.6-2.2-1.8-2.4
			c-1.9-1.7-3.9-2.4-6.4-2.4c-2.2,0-6.7,1.1-8-1.5c-0.8-1.5,0-3.2,1-4.4c1.1-1.2,2.1-2.5,3.2-3.8c1.1-1.3,2.3-2.5,3.5-3.7
			c1.5-1.6,3-3.2,4.4-4.8c1.7-1.8,3.3-3.6,5-5.4c1.7-1.8,3.3-3.6,5-5.4c1.7-1.8,3.4-3.7,5-5.5c1.5-1.6,3-3.2,4.4-4.8
			c1.3-1.3,2.5-2.7,3.7-4.1c0.8-0.9,1.7-1.8,2.5-2.7c1,1.3,7.7,9.2,15,10.6c0.4,0.1,0.8-0.1,1.1-0.3c0.7-0.6,0.3-1.5,0-2.1
			c-0.4-0.8-0.9-1.7-1.2-2.5c0,0-1.4-3.1-0.8-6c0,0,1.1,0.3,1.2,0.4c0.6,0.2,1.5,0.5,2.1,0.2c0.7-0.4,0.3-1.8,0.2-2.5
			c-0.1-1.2-0.3-2.4-0.4-3.6c-0.1-1.9,0.1-3.9,0.3-5.8c0.1-0.6,0.2-1.1,0.2-1.7c1.1-7.2,4.5-18.1,13.7-28.6c0.1-0.2,0.2-0.3,0.2-0.5
			C239.4,305.6,239.8,297.8,239.4,288z M194.4,348.4c-1.7-3.6-1.5-9-1.1-11.2c2.4-0.4,4.5-0.9,6.5-1.5c-2.3,4.4-5.6,10.9-5.3,11.3
			c0.4,0.5,5.9-6.8,8.4-10.2c0.5,1.1,1,2.6,1.7,5.1C199.3,347.1,195.5,348,194.4,348.4z M172.5,420.7c-0.6,0.2-2,0.3-3,0.1
			c1.5-2.1,2.2-5.3,2.4-7.2c1.4,0.8,2.2,0.9,2.4,1c0,0,0,0,0.1,0c1.6,0.4,3,0.6,4.4,0.6c0.3,0,0.7,0,1,0
			C177.4,418.9,174.5,420.1,172.5,420.7z"/>
		<path d="M117.9,381.6c-1-0.2-0.4,0.7-0.4,0.7c1.6,5.5-4,7.4-4,7.4s0.9,1.3,0.9,1.3c0.1,0.1,1.1-0.4,1.2-0.5
			c1.3-0.7,2.4-1.6,3.1-2.9c0.2-0.4,0.4-0.9,0.6-1.3c0.2-0.7,0.4-1.4,0.3-2.1c-0.1-0.9-0.6-1.7-1.2-2.3
			C118.2,381.9,118,381.7,117.9,381.6z"/>
		<path d="M118.9,406c0,0,0.2,1.7-0.5,3.3c-0.7,1.8-2.3,3.5-4.7,3.3l1.7,1.6c0,0,2-0.8,3.4-2.3C120.1,410.3,120.5,407.9,118.9,406z"
			/>
		<path d="M109.9,378.2c1.9-0.9,3.9-0.9,5.8-0.1c0.9,0.4,1.6,0.8,2.3,1.4c0.7,0.6,1.2,1.3,1.8,2c0.3,0.4,0.7,0.8,1.1,1.1
			c0.7,0.6,1.4,1.2,2.3,1.2c1,0,2,0,3,0.1c3.2,0.2,6.3,0.3,9.4,1.2c0.9,0.3,2.2,0.8,3,1.1c1.6,0.7,2.5,1.3,4.1,1.6
			c0.5,0.1,1,0.2,1.5,0.1c0,0,5-1.2,8.8-5.3c0,0-2.6-0.6-2.6-0.6c-0.1,0-0.5,0.5-0.6,0.5c-0.5,0.4-1,0.7-1.5,1.1
			c-1.3,0.9-2.7,1.9-4.3,1.9c-0.9,0-1.9-0.2-2.8-0.5c-0.8-0.2-1.6-0.5-2.3-0.9c-0.7-0.4-1.5-0.8-2.3-1.1c-1.5-0.5-3-0.5-4.6-0.7
			c-0.8-0.1-1.6-0.1-2.4-0.2c-1.3-0.2-2.6-0.2-3.9-0.3c-0.7-0.1-1.7-0.2-2.3-0.6c-0.7-0.4-1.3-1-1.9-1.6c0,0-4.3-4.9-9.8-4.2
			c0,0-5.7,0.6-7.7,6c-1,0.9-6.6,6.7-6.6,13c0,0-0.3,4.8,4,9.7c0,0,1.4,1.5,1.9-0.4c0.1-0.2,0-0.4,0-0.6c0.1-0.5,0.2-1,0.3-1.5
			c0.4-1.4,1.1-2.9,2.3-3.8c1-0.7,2.4-1.1,3.6-1.1c1.6,0,3.1,0.1,4.7-0.1c1.7-0.2,3.1-0.6,4.7-1.4c0.5-0.3,0.8-0.7,1.2-0.7
			c0.3-0.1,0.5,0.2,0.7,0.3c0.8,0.6,1.6,1.2,2.6,1.6c0.3,0.1,0.6,0.2,0.9,0.3c0.2,0.1,0.8,0.3,0.9,0.2c0,0-4.6,2.1-5.9,3.2
			c0,0-4.6-3.4-9.3-1.6c0,0-6.4,2.2-4.8,10.3c0.1,0.4,0.1,0.9,0.3,1.3c0.5,1.2,1.3,2.2,2.3,2.9c0.4,0.3,0.8,0.5,1.2,0.8
			c0.4,0.2,1,0.4,1.4,0.5c0.6,0.1,1.2-0.1,1.5-0.7c0-0.1,0.2-0.7,0.2-0.7c0,0-4.5-0.3-5.3-5.2c0,0-0.9-4.7,3.9-7c0,0,4-1.9,8.5,2.4
			c0.8-0.7,1.6-1.2,2.5-1.8c1.9-1.3,3.9-2.4,6-3.1c2.1-0.7,4.2-1.4,6.4-1.8c1.5-0.3,2.9-0.5,4.4-0.9c1.7-0.5,3.5-0.9,5.1-1.7
			c0.6-0.3,1.2-0.7,1.7-1.2c0.3-0.3,0.5-0.6,0.7-1c0.1-0.2,0.3-0.9,0.2-1.1c-0.2-0.4-0.6-0.2-0.9,0c-0.1,0-0.1,0.1-0.2,0.1
			c-0.4,0.2-0.7,0.4-1.1,0.6c-1.4,0.5-2.8,1.1-4.2,1.6c-2.2,0.8-4.5,1.5-6.8,2c-1.1,0.2-2.2,0.4-3.3,0.4c0,0-9.4-0.3-9.4-4.2
			c0,0.1-0.7,0.6-0.8,0.6c-0.6,0.5-1.2,0.9-1.9,1.4c-1,0.6-2.1,1.1-3.2,1.5c-1.3,0.4-2.7,0.4-4,0.2c-1.2-0.2-2.3-0.6-3.5-1
			c-0.8-0.3-1.5-0.7-2.2-1.3c-1.2-1.2-2.5-2.9-2.4-4.7c0-0.5,0.2-1.1,0.4-1.5c0.2-0.3,0.4-0.5,0.6-0.7c0,0,0.1-0.1,0.2-0.1
			c0.1,1.4,0.5,2.8,1.5,3.8c0.6,0.7,1.4,1.2,2.3,1.4c0.4,0.1,0.9,0.1,1.4,0.1c0.2,0,0.5-0.1,0.7-0.2c0.1-0.1,0.6-0.4,0.7-0.3
			c0,0-5.4-1.7-4.5-6.9C106.2,380.9,108.1,379.1,109.9,378.2z M104.6,394.2c0,0,1,0.7,0.3,1.2c-0.6,0.4-1,1-1.4,1.5
			c-0.4,0.6-0.8,1.1-1,1.8c-0.1,0.4-0.2,0.8-0.2,1.2c0,0.3,0,0.6-0.2,0.7c-0.3,0.1-0.5-0.2-0.6-0.4c-0.1-0.2-0.3-0.4-0.4-0.6
			c-0.6-1-1.2-2.1-1.5-3.3c-0.2-0.8-0.2-1.6-0.2-2.5c0-0.5,0.1-0.9,0.2-1.3c0.1-0.4,0.2-1,0.3-1.4c0.2-0.4,0.3-0.9,0.7-1.2
			c0.5-0.3,0.6,0.4,0.8,0.7c0.2,0.3,0.4,0.6,0.6,0.9C102.7,392.6,103.6,393.6,104.6,394.2z"/>
		<path d="M166.5,403.8c0,0-9.1,0.6-11.1-1c0,0-1.3-1.1,0.9-2.9v-1.7c0,0-1.1-0.7-4.2,5.6c-0.2,0.3-0.3,0.6-0.5,0.9
			c-0.4,0.7-0.8,1.3-1.2,2c-0.7,1.1-1.4,2.1-2.1,3.1c-0.9,1.2-1.9,2.4-2.9,3.6c-1.1,1.3-2.3,2.5-3.5,3.7c-0.6,0.5-0.1,1.5,0,2.1
			c0,0,0.8,7.8-4.8,11.2c-0.2,0.2-0.6,0.2-0.9,0.3c-0.7,0.2-1.4,0.4-2.1,0.6c-1.6,0.4-3.5,0.7-5.1,0c-0.4-0.2-0.9-0.4-1.2-0.8
			c-0.1-0.1-0.2-0.3-0.2-0.5c0-0.2,0.1-0.5,0.3-0.5c0.8,0.1,1.6,0.4,2.4,0.4c1.3,0,2.8-0.1,4-0.8c0.3-0.2,0.5-0.4,0.8-0.6
			c0.2-0.3,0.7-0.8,0.5-1.2c-0.2-0.3-1.1-0.3-1.4-0.1c0,0-4.8,1.8-6.8-0.4c0,0-1.6-1.5-1.9-3.7c-0.3-2.2,0.5-5.9,4.1-8.1
			c0,0,2.3-1.4,5.6-1.4c0,0,6.7-11.2,16.4-18.4l0.4-3.3c0,0-9.6,10.3-13.9,11.9c0,0-5.7,3.2-15,4.1c0,0,0.5,7.2-9.4,8.8
			c0,0-4.3,0.1-7.1-3c0,0-1.5-1.9,0.7-1.4l-2.1-4.9l-0.1,0.3c0,0,0.5,1.7-0.7,4.1c0,0-0.5,1,0.6,2.2c0.2,0.6,0.4,1.3,0.5,2
			c0.1,1,0.1,2,0.3,3.1c0.2,1,0.7,1.9,1.2,2.7c0.3,0.5,0.6,0.9,1,1.4c1.1,1.4,2.7,2.4,4.3,3.1c0.5,0.2,0.9,0.4,1.4,0.5
			c1.7,0.6,3.5,1,5.3,1.2c0.5,0,1,0,1.5-0.1c0.6-0.1,1-0.8,0.8-1.4c-0.2-0.6-0.6-1.1-1.1-1.5c-1.4-1.3-1.7-3.6-1.2-5.3
			c0.1-0.3,0.2-0.7,0.4-1c0.1-0.2,0.1-0.3,0.2-0.5c0-0.1,0.1-0.5,0.2-0.5c0,0,4.6-2.4,6.3-6.7c0,0,7.2-2,9.4-3.1l0.5,0.5
			c0,0-2.1,1.7-2.6,3.1c0,0-9,1-10.4,10.2c0,0-1,4.4,2.6,6.8c0,0-0.3,3.1,2.3,4.7c0,0,0.8,7.2,12,6.7c0,0,6.5-0.9,7.9-3.1
			c0.1-0.2,0.1-0.5,0-0.7c-0.1-0.5-0.6-0.5-1-0.6c-0.3-0.1-0.6-0.2-0.9-0.4c-1.5-0.8-2.7-2-3.6-3.4c-0.2-0.3-0.3-0.5-0.4-0.8
			c0-0.1-0.4-0.8-0.4-0.9c0,0,3.9-4.6,3.2-11.4c0,0,8.5-9.3,10.1-13.1c0,0,6.3,0.7,9.7,0.4c0,0,1.6,3,5.7,6.3l1.6-1
			C171.9,411.5,168.4,408.9,166.5,403.8z M116.6,426c0,0-3.4-0.7-5.9-2.8c-1.5-1.2-2.7-3-2.8-5.3c0,0,0-0.5,1,0c0,0,4.5,1.9,7.3,0.8
			c0,0-0.5,4.6,1,6.7C117.3,425.4,117.9,426.5,116.6,426z M142.7,436.4c0,0,0.6,0.6-0.3,0.8c0,0-3,1-6.1,0.8c-2.5-0.2-5-1.2-6.2-3.6
			c0,0-0.4-1,0.4-0.7c0,0,5.3-0.1,8.4-1.4C139,432.2,140.3,435.1,142.7,436.4z"/>
		<path d="M139.2,420.4c0-0.2,0-0.3-0.1-0.5c-0.1-0.7-0.3-1.3-0.8-1.8c-0.2-0.2-0.3-0.3-0.5-0.5c-0.1-0.1-0.3-0.2-0.4-0.2
			c-0.2-0.1-0.7-0.2-0.6,0.2c0.1,0.3,0.3,0.5,0.4,0.7c0.2,0.2,0.3,0.5,0.4,0.7c0.2,0.7,0.2,1.5,0.1,2.2c-0.2,0.9-0.5,1.8-1,2.6
			c-0.2,0.2-0.5,0.5-0.4,0.8c0,0.1,0.1,0.3,0.3,0.2c0.2,0,0.4-0.1,0.5-0.2c1-0.5,1.6-1.5,1.9-2.6c0.1-0.4,0.2-0.8,0.2-1.1
			C139.2,420.8,139.2,420.6,139.2,420.4z"/>
		<path d="M178.5,406.8c-0.3,0-0.6-0.2-0.7-0.5c-0.1-0.4,0.1-0.8,0.5-0.9c0.6-0.2,1.3-0.7,1.7-1.2c0.9-0.9,0.9-2.2,0.5-3.1
			c-0.3-0.8-0.9-1.3-1.5-1.3c-0.4,0-0.7-0.4-0.7-0.8c0-0.4,0.4-0.7,0.8-0.7c1.2,0,2.3,0.9,2.8,2.2c0.5,1.4,0.5,3.3-0.8,4.7
			c-0.5,0.5-1.4,1.3-2.3,1.6C178.7,406.8,178.6,406.8,178.5,406.8z"/>
	</g>
	<g>
		<path d="M289.2,367.4c-0.2-0.7-0.6-0.9-0.9-0.9c-0.4,0-0.7,0.2-0.7,0.2c-5.1,3.2-9,1.5-9,1.5c-8.8-4.4-9.5-17-9.5-17l-3.6-2.9
			c1.5,14.8,8.1,20.7,8.1,20.7c5,4.9,12.4,1.1,12.4,1.1c0.5-0.3,0.6,0.2,0.6,0.2c0.8,8.9-3,11.6-3,11.6c-2.1,1.4-4.2,2.1-6.2,2.2
			c-3.7,0.2-6.8-1.1-6.8-1.1c-7.9-3.5-10.7-10.9-10.7-10.9l0.7,7.5c2.4,2.2,7.4,5.1,7.4,5.1c3.4,1.8,7.4,2.2,10.1,1.9
			c4.6-0.5,7.4-2.9,7.4-2.9C292.7,377.3,289.2,367.4,289.2,367.4z"/>
		<path d="M279.9,374.5c-2.3,0.3-4.8-0.3-6.9-1.1c-1-0.4-2-0.9-2.9-1.6c-0.8-0.7-1.5-1.5-2.2-2.3c-0.6-0.8-1.3-1.6-1.8-2.5
			c-0.6-0.9-1.1-2-1.6-3c-0.5-1.1-0.9-2.3-1.2-3.5c-0.2-0.8-0.4-1.6-0.6-2.4c-0.1-0.4-0.1-0.7-0.2-1.1c0,0,0-0.1,0-0.1l-1.3,6.8
			c1.9,5.7,6.7,9.5,6.7,9.5c1.9,1.6,4.3,2.7,6.7,3c0.8,0.1,1.6,0.2,2.4,0.2c0.8,0,1.6,0.1,2.3-0.1c0.6-0.2,1.4-0.6,1.5-1.3
			c0-0.3-0.3-0.4-0.6-0.4C280.1,374.4,280,374.5,279.9,374.5z"/>
		<path d="M246.6,371.3c-4.1,8-9.5,10.9-9.5,10.9c-1.8,1-3.8,1.8-5.5,2.1c-2.2,0.5-3.9,0.4-3.9,0.4c-3.5-0.2-5.8-1.3-7.6-2.6
			c-4.9-3.6-4.4-9.5-4.4-9.5c8,3,13.5-3.2,13.5-3.2c7.8-6.9,8.9-23.2,8.9-23.2l-2.9,1.5c0.4,6.8-2.8,13.5-2.8,13.5
			c-3.7,8.4-9.1,9.7-9.1,9.7c-1.5,0.5-2.9,0.5-4.1,0.4c-2.1-0.2-3.5-0.9-3.5-0.9c-1.9-0.9-1.8,1.5-1.8,1.5c0,4.3,1.6,7.5,1.6,7.5
			c1.1,2.3,2.7,4.1,4.4,5.2c3.4,2.3,6.8,2.4,6.8,2.4c9.6,0.7,18.1-5.7,18.1-5.7l3.3-6.9L246.6,371.3z"/>
		<path d="M243.6,353.8c0,0-1,11-8.1,18.2c0,0-3.9,4.6-7.5,5.1c0,0-1.7,0.3-1.7,0.7c0,0-0.2,0.6,1.5,0.7c0,0,4.6,0.1,8.7-4
			c0,0,6.8-6.5,8.7-12L243.6,353.8z"/>
		<path d="M310.7,391.7c-1.2-1.3-2.7-2.6-4.3-3.5c-0.6-0.3-1.2-0.6-1.8-0.8c-1.4-0.6-2.9-0.9-4.3-1c-0.3,0-0.6-0.1-0.8-0.1
			c-0.4,0-0.9,0-1.2,0.2c-0.5,0.2-0.4,0.9-0.4,1.4c0.1,0.8,0.2,1.7,0.2,2.5c0,0.6,0,1.3-0.1,1.9c0,0.6-0.1,1.1-0.3,1.6
			c-2.3,6.1-10.7,4.5-10.7,4.5c-2.1-0.4-3.4-0.8-4.8-1.4c-9.6-4.3-12.7-12.2-12.7-12.2l-3.3-2.6c1.6,8.8,11.1,14.7,11.1,14.7
			c2.6,2,5.9,3.1,8.5,3.5c4.4,0.8,7.7,0,7.7,0c3-0.8,4.9-2.8,5.8-4.9c1.3-3.1,0.8-6.5,0.8-6.5c4.2,0.1,6.9,2.8,6.9,2.8
			c4.3,4.5,3.6,11.3,3.6,11.3c-0.2,2.5-1.1,4.9-2.7,6.9c-1.4,1.7-3.2,3.1-5,4.3c-1.4,1-3.4,1.7-5,2.2c-0.5,0.1-0.9,0.2-1.4,0.3
			c-0.9,0.2-2,0.2-2.9,0.3c-1,0.1-1.9,0.2-2.9,0.2c-1.8,0-3.6-0.1-5.4-0.4c-1.5-0.3-3-0.7-4.4-1.3c-0.9-0.4-1.9-0.7-2.7-1.2
			c-10.5-6.4-14.1-12.8-14.1-12.8l-0.2,3.9c16.1,20.7,36.9,12.7,36.9,12.7c12.1-4.9,12.9-13.3,12.9-13.3c0.4-2.1,0.3-3.8,0.1-5.8
			c-0.3-2.4-1.5-5.4-2.6-6.8C311.1,392.2,310.9,391.9,310.7,391.7z"/>
		<path d="M304.3,395.6c-0.5-0.7-0.6,0.7-0.6,0.7c-0.1,1.6-0.9,3.8-0.9,3.8c-2.2,4.7-7.9,6.4-7.9,6.4c-8.9,2.1-16.3-2.9-16.3-2.9
			c-13-8-15.4-23-15.4-23l-1.6-0.8l2.1,13.6c1.9,4.5,9.1,9.7,9.1,9.7c3.6,3,7.5,4.9,10.8,5.8c5.4,1.6,9.2,1,9.2,1
			c7.9-0.5,10.9-7.6,10.9-7.6C305.3,398.1,304.3,395.6,304.3,395.6z"/>
		<path d="M226.2,405.2c0,0-4.9,4.3-13.3,4.9c-1.7,0.1-3.3,0.1-5.4-0.4c0,0-6-1.3-8.1-7.4c-0.1-0.2-0.2-0.5-0.4-0.5
			c-0.4-0.1-0.4,0.5-0.4,0.8c-0.1,1.2,0.3,2.4,0.9,3.4c0.4,0.7,0.9,1.4,1.5,2.1c0.5,0.6,1.1,1.1,1.8,1.6c0.8,0.6,1.6,1,2.5,1.4
			c0.1,0,0.2,0.1,0.3,0.1c0,0,5.4,2.1,12.1,0.7c0,0,7.1-1.4,13.9-6.9c0,0,7.4-6,11.4-10.5l1.6-14.1
			C244.5,380.3,241.8,393.5,226.2,405.2z"/>
		<path d="M241.8,401.5c-4.1,7.1-12.2,12.8-12.2,12.8c-7.8,5.9-15.7,6.2-15.7,6.2c-3.5,0.2-6.5,0-8.8-0.6c-5.5-1.5-8.7-5.3-8.7-5.3
			c-2.1-2.2-3.3-4.4-3.8-6.6c-1.4-5.3,1-9.8,1-9.8c3.9-7.5,9.9-7.4,9.9-7.4c-2.6,6.6,2.7,10.4,2.7,10.4c1.7,1.1,3.4,1.5,5.2,1.6
			c7.4,0.6,14.1-4,14.1-4c10.7-7.5,13.7-15.6,13.7-15.6l-3.1,1.7c-11.5,16.5-22,15.9-22,15.9c-6.6,0.5-7.9-3.3-7.9-3.3
			c-1.4-3.5,1.2-9,1.2-9c0.1-0.6-1.5-0.4-1.5-0.4c-15.6,1-15.9,15.4-15.9,15.4c-0.5,7.7,6.1,13.7,6.1,13.7
			c10.2,10.2,26.4,3.2,26.4,3.2c12.2-4.9,19.4-15.1,19.4-15.1L241.8,401.5z"/>
		<path d="M319.4,432.1c0-3.7-0.8-6.7-2.1-9c-1.9-3.3-4.6-5-4.6-5c-5.1-3.1-8.1-3.7-8.1-3.7l-6.2,3.7c2.6,1.3,1.2,5.7,1.2,5.7
			c-1.9,5.1-7.4,5-7.4,5c-8.9,0.2-13.5-5.6-13.5-5.6c-5.6-6.4-6-10.1-6-10.1l-4.9-4.1c6.4,19.6,18,21.5,18,21.5
			c9.6,2.3,13.6-2.4,13.6-2.4c4.6-4.5,1.8-10.6,1.8-10.6l0.5-0.1c9.5,0.4,13,8.1,13,8.1c3.9,10.6-3.5,17.2-3.5,17.2
			c-7.8,7.8-20.5,6.2-20.5,6.2c-3.1-0.4-5.2-1-7.3-1.7c-6.5-2.3-11-6.6-11-6.6c-5.8-5.4-9.2-12.4-9.2-12.4l1.2,7.1
			c7.4,11.2,19.6,15.1,19.6,15.1c7.5,2.7,14.6,1.8,18.9,0.5c2.1-0.6,3.4-1.3,3.4-1.3C319.7,444.4,319.4,432.1,319.4,432.1z"/>
		<path d="M307.7,425.3c-0.7-0.6-0.5,0.8-0.5,0.8c0.1,1,0,1.7,0,1.7c-1,8.4-9.2,10.3-9.2,10.3c-2.8,0.8-5.2,0.9-7.4,0.6
			c-7.5-0.8-12-5.1-12-5.1c-11.8-10.2-14.7-22.1-14.7-22.1l-1.5,7c3.5,7.1,8.9,12.7,8.9,12.7c3.6,4,7.8,6.7,11.3,8.3
			c5.5,2.4,9.7,2.3,9.7,2.3c11.4,0,15.3-8.7,15.3-8.7C309.6,427.6,307.7,425.3,307.7,425.3z"/>
		<path d="M230.3,443.9c-8.6,6.3-19.4,6.8-19.4,6.8c-3.5,0.1-5.6-0.3-7.8-0.9c-7.9-2-10.9-6.5-10.9-6.5c-1.1-1.4-1.8-2.9-2.3-4.3
			c-1.8-5.2,0.3-9.8,0.3-9.8c2.3-6.2,8.4-8.3,8.4-8.3c-1.7,7.4,3.8,10.6,3.8,10.6c2.2,1.6,5.6,1.9,8.5,1.6c4.6-0.5,8.5-2.9,8.5-2.9
			c13.6-6.6,22.7-24.8,22.7-24.8l-8,7.4c-5.5,9.2-13.7,14.2-13.7,14.2c-6.7,4-11.3,3.8-11.3,3.8c-2.2,0-4.7-0.6-6.3-2.3
			c-0.5-0.5-1.6-1.6-1.9-3.7c-0.1-0.6-0.1-1.3-0.1-1.9c0.1-0.9,0.3-1.8,0.7-2.6c0.1-0.1,0.1-0.3,0.2-0.4l-2.1-1.3
			c-8.3,0.5-11.7,10.2-11.7,10.2c-2.8,8.2,0.7,13.7,0.7,13.7c4.5,7.5,13,9.6,13,9.6c11.6,3.5,22.1-1.7,22.1-1.7
			c9.9-3.9,19.2-13.7,19.2-13.7l0.2-4.4C238.2,438.7,230.3,443.9,230.3,443.9z"/>
		<path d="M243.2,410.9c0,0-5.6,11.7-15.8,20.7c0,0-5.2,4.9-12.6,7.8c-1.1,0.4-2.8,0.9-4.2,1.1c0,0-5.6,0.9-10.4-2.4
			c0,0-2.2-1.6-3.9-6c0,0-0.5-1.3-0.8-1.2c0,0-0.8-0.4,0.1,2.8c0,0,1,4.6,4.7,6.7c0,0,3.3,2.4,8.6,2.6c1.3,0,2.4-0.1,4.1-0.3
			c0,0,9.4-1.3,21.8-13.6c0,0,7.6-7.8,9.5-12.1L243.2,410.9z"/>
	</g>
	<g>
		<path d="M264.4,258.3c-13.1,8.2-23.7,0-23.7,0c-1.3,1.5-2.6,1.8-2.6,1.8c0,0,0.3,0.9,0.4,1c1,2.6,2,5.2,2.8,7.9
			c0.8,2.5,1.4,5,2,7.5c0.5,2.1,1,4.3,1.4,6.4c0.3,1.7,0.6,3.3,0.8,5c0.1,0.7,0.2,1.4,0.3,2c0.1,1,0.1,2.2,0.4,3.2
			c0.1,0.2,0.2,0.6,0.5,0.6c0.2,0,0.3-0.9,0.3-1.2c0-2-0.2-3.9-0.3-5.9c-0.3-3.5-1-6.9-1.8-10.4c-0.6-2.4-1.1-4.9-1.7-7.3
			c-0.4-1.8-0.9-3.5-1.5-5.3c-0.2-0.7-0.5-2.2-0.7-2.8l0.6,0.4c2.3,1.6,5.1,2.5,7.8,2.8c0.5,5.7,2.9,37,3,52.3c0,2.8,0,5.1,0,6.8
			c0,0,0.8,0.2,0.8,0c0-9.7,1.9-33.2,3.8-59.2c4-0.7,6.7-2.2,6.7-2.2c-5.5,10.6-5.9,31.6-5.9,31.6c0,0.2,0,1,0.3,0.9
			c0.4-0.2,0.4-1,0.5-1.4c0.4-3.1,1.2-12.7,2.6-18.5c0.6-2.6,1.6-5.1,2.5-7.7c0.6-1.6,1.2-3.1,1.8-4.7c0.3-0.7,0.6-1.4,0.9-2.1
			L264.4,258.3z M253.2,298.6l-0.3,0.2c0,0-1.2-27.2-1.6-34.7c0.6,0,1.1,0,1.6,0c0.5,0,1,0,1.4,0
			C254.4,268.5,254.4,284.5,253.2,298.6z"/>
		<path d="M285,220.7c0,0-2.1-1.2-2.3-1.3c-1.9-1.4-3.6-3.2-4.8-5.2c-1-1.5-2-4.2-2.7-7.5c-0.2,2.1-0.2,4.5-0.9,5.2
			c-1.7,1.8-4.3,2.4-6.7,2.6c-1.9,0.1-3.8,0.1-5.7-0.1c-1.7-0.1-3.4-0.5-4.9-1.2c-0.3-0.1-4.1-2.4-3.8-2.7c0,0-12.2,11.6-25.2-1
			c0,0-2.3,14.2-8.5,16.8l0.5,1.6c0,0,7.2-4.1,9.7-13.6c0,0,9,6.7,23,0.6c0,0,12.3,5.2,22.7,0.3c0,0,4.6,4.7,7.2,8
			C285.3,226.8,285,220.7,285,220.7z"/>
		<path d="M280.6,220C280.6,220,280.5,220,280.6,220c-0.1,0-7.6,5.1-16,1.1c0,0-8.8,10-24.4,0.2c0,0-10.8,3.3-14.2-0.7l-1.2,2.2
			c0,0,6.8,3.5,15.3,0.7c0,0,13.5,8.6,25.5,0.8c0,0,12.8,1.6,17.2-1.6c0.1-0.1,0.2-0.1,0.3-0.2C282,222.1,281,221.2,280.6,220z"/>
		<path d="M272.2,228.8c-10.1,9.5-19.3,2.4-19.3,2.4c-12.4,8.4-22.7-3.8-22.7-3.8c-2.4,6.7-6.9,8.6-6.9,8.6l-0.1,0.2l1,1.6
			c3.9-1.9,6.9-6.9,6.9-6.9c10.9,9.4,22.1,3.6,22.1,3.6c13.6,4.6,19.9-2.3,19.9-2.3c1.8,2.1,6.2,4.7,6.2,4.7l1.7-1
			C277,233.1,272.2,228.8,272.2,228.8z"/>
		<path d="M269.1,239.7c0,0-0.1-0.1-0.1-0.1c-0.3-0.4-0.9-0.7-1.4-0.6c-0.3,0.1-0.5,0.3-0.8,0.4c-16.5,12.5-31.4-0.4-31.4-0.4
			c-2.6,5.8-8,7.7-8,7.7l0.6,1.8c3.8-1.2,8.5-6.1,8.5-6.1c17.8,9.9,31.4-0.9,31.4-0.9c1.9,2.6,6.6,4.7,6.6,4.7l0.2-0.5l-0.1-1.2
			c-1.3-0.4-2.4-1-3.4-1.8c-0.7-0.6-1.2-1.3-1.7-2C269.4,240.5,269.3,240.1,269.1,239.7z"/>
		<path d="M268.7,248.5c-6.5,9.2-15.9,1.9-15.9,1.9c-10.3,7.8-16.2-2.4-16.2-2.4c-1,4.2-5,6.7-5,6.7l0.9,1.9
			c1.7-1.6,4.9-5.4,4.9-5.4c7.6,8,15.8,1.8,15.8,1.8c7.2,4.6,15,0.4,15,0.4c1.1,1.2,2.9,2.8,2.9,2.8l1.4-2.1
			C269.9,253.3,268.7,248.5,268.7,248.5z"/>
	</g>
	<g>
		<path d="M279.8,87c0,0,1.5-0.4,1.5-0.7c0,0,2.8,1.3,6.4,0.4c0.3-0.1,0.8-0.6,1-0.8c1.6-1.5,2.4-4.1,1.7-6.2
			c-0.2-0.7-0.6-1.4-1-2.1c0,0-3.6,5.1-9.5,0.7c0,0-8.8,0.4-25.1-5c0,0-0.6-1.4-1.6-2c0,0,10.4,3.3,19.8,4.8c0,0,8.3,1.8,8.8-3.5
			c0,0,0.4-2.3-0.9-4c0,0-1.5,4.2-12.8,2.5c0,0-14.1-1.1-18.6-1.5c-1.3-0.1-2.6-0.1-3.9-0.2c-2.3-0.1-4.6-0.2-6.9-0.2
			c-1.7,0-3.4-0.2-5,0c-1.6,0.2-3,1-4.2,2.1c-1.1,1-1.8,2.1-2.4,3.4c-0.2,0.4-0.4,0.9-0.5,1.4c0,0.2-0.4,1.7-0.4,1.7l-1.6,0.1
			c0,0,0.5-7.3,6.8-9.7c0,0,2.3-1.5,16.3-0.4c0,0,14.9,0.8,24.1,1.5c0,0,7.1,0.7,8.8-3.6c0,0,2.6,1.1,4.4,4.8c0,0,1.6,4.9-1.1,7.6
			c0,0,4.3,1.5,4.6-4.4c0,0,1.2-0.1,3.2,2.2c1.3,1.5,1.8,3.5,1.9,5.4c0,0.6,0,1.2,0,1.8c-0.1,0.9-0.4,1.8-0.8,2.6
			c-0.2,0.4-0.4,0.8-0.6,1.2c-0.1,0.1-0.8,1-0.8,1c0,0,0.8,1.3,0.3,5.1c0,0.1,0.4,0.7,0.4,0.8c0.3,0.7,0.5,1.4,0.7,2.1
			c0.8,2.6,1.1,5.3,1,8c-0.1,1.7-0.3,3.3-0.5,5c-0.8,5.8-1.5,11.6-2.5,17.4c-0.2,1.2-0.4,2.3-0.7,3.5c-0.2,1.4-0.3,2.9-0.4,4.3
			c-0.3,3.4-0.4,6.8,1.6,9.8c0.5,0.7,1.2,1.6,1.5,2.4c0,0,0.5,1.9-3.6,3.4c0,0-3.4,1.2-6.1-0.9c0,0-2.5-1.7-3.6-4.4
			c0,0-1.7-3.8-0.1-9.6c0,0,2.7-9.5,3.9-13.7c0,0,2.3-8.1,2.6-13.9c0,0,0.2-5.8-1.1-9.5c0,0-0.4-1.7-0.7-2.6c0,0,2,0.6,3.4,5.8
			c0,0,1.2,7.9-1.3,15.4c0,0-2.7,10.6-4.7,17.2c0,0-0.7,3.1-0.5,5.6c0.1,0.6,0.1,1.2,0.2,1.9c0.4,2.1,1.4,4.3,3.4,5.4
			c0.7,0.3,1.4,0.6,2.2,0.6c0.4,0,1.4,0.1,1.5-0.5c0.1-0.4-0.2-0.8-0.4-1.1c-0.2-0.4-0.4-0.8-0.6-1.2c-0.3-1-0.5-2-0.7-3
			c-0.1-0.5-0.1-1-0.2-1.4c-0.2-1.8-0.2-3.5-0.1-5.3c0.1-2.1,0.4-4.3,0.8-6.4c0.6-3.1,1.1-6.3,1.6-9.4c0.5-3,1-6,1.4-9
			c0.2-1.2,0.3-2.4,0.4-3.7c0,0,1.2-7.4-3.3-14.6c-0.1-0.2-0.3-0.4-0.4-0.6c-0.1-0.7,0.9-0.3,1.2-0.2c0.2,0,1.1,0.2,1.3-0.1
			c0.4-0.7-0.9-1.2-1.3-1.3c-2-0.6-4.2-0.4-6.2-1.1C281.1,87.9,280.4,87.5,279.8,87z"/>
		<path d="M279.3,80.7c0,0-2.8,0.9-5.2,0.4c0,0-5.8-0.7-17.1-5c0,0-12-4.8-18.9-5.4c0,0-4.8-0.6-8.1,2.5c0,0-1.6,1.6-2.4,4.9
			l1.1,0.2c0,0,3.1-5.7,8-5.8c0,0,4.7-0.1,9.6,1.7c0,0,15.1,5.4,20.3,6.8c0,0,5.4,1.9,9.6,1.5c0,0-4.1,3-12.4-0.2
			c0,0-10.9-3.8-15.1-5.5c0,0-5.7-2.1-9.5-1.6c0,0-3.6,0.7-2.6,2.2c0.6,0.8,2.1,1.2,3,0.8c0.4-0.2,0.6-0.5,1-0.7
			c1-0.5,2.6-0.2,2.4,1.2c0,0-0.8,3.6,2.2,6.8c0,0,3.2,3.2,8.9,2.4c0,0,3-0.6,5.1-3.5c0,0,0.9-1.5,2.7-0.8c0.4,0.1,1,0.3,1.2,0.7
			c0.1,0.4-0.2,0.7-0.4,1c-0.7,0.8-1.5,1.6-2.3,2.3c-0.4,0.3-0.8,0.7-1.3,1c-0.2,0.1-1.4,1.1-1.6,1c0,0,3.8,1.5,10.4-4.1
			c0.1,0,0.7,0.1,0.8,0.1c0.6,0.1,1.2,0.1,1.8,0.1c1.9,0.1,3.7,0,5.5-0.8c1-0.4,2.2-1.1,2.9-1.8c0.5-0.5,1.1-1,1.3-1.8
			C280.6,80.6,279.9,80.5,279.3,80.7z M255,83.7c-0.3,0.3-0.6,0.7-0.9,1c-1.2,1.1-2.9,1.6-4.5,1.3c-0.5-0.1-1.1-0.3-1.6-0.5
			c-0.9-0.4-1.6-0.9-2.3-1.6c-0.8-0.8-1.2-1.9-1.2-3.1c0-0.1,0-0.1,0-0.2c0-0.8,0.2-2.4,1.1-2.6c0.7-0.1,0.8,0.7,0.8,1.2
			c0,0.6,0,1.2,0,1.8c0.1,0.8,0.3,1.5,0.7,2.2c0.2,0.2,0.4,0.7,0.7,0.4c0.3-0.4,0.2-0.9,0.3-1.3c0.1-0.5,0.2-1,0.4-1.4
			c0.2-0.5,0.6-1.1,1.2-1.2c0.5-0.1,1,0.1,1.5,0.3c0.6,0.2,1.1,0.4,1.7,0.6c0.9,0.4,1.8,0.7,2.7,1C256.5,81.9,255.4,83.3,255,83.7z"
			/>
		<path d="M265.5,121l-1.6-2.4c0,0,1.1,11.7-7.3,20.3c0,0-9.4,9.2-16,5.5c0,0,0.5-0.3,0.5-0.3c0.2-0.1,0.4-0.2,0.6-0.3
			c0.5-0.3,0.9-0.6,1.3-0.9c1-0.7,2-1.4,3-2.2c1.3-1,2.6-2.1,3.7-3.3c1.1-1.3,2-2.6,2.9-4c0.5-0.8,0.9-1.6,1.2-2.4
			c0.9-2.1,1.4-4.2,1.6-6.5c0.3-4.4-1.4-9.4-4.6-13.3c-1.7-2.1-4-3.6-6.4-4.3c0.5-0.1,0.8-0.1,0.8-0.1c4.8-0.7,8.5,2,8.5,2
			c6.8,4.7,4.9,14.3,4.9,14.3c3.3-4.6,0.5-11.6,0.5-11.6c5,2,5.5-2.6,5.5-2.6c1.1-4.7-4.6-10.4-4.6-10.4c-0.5-0.5-0.9-0.9-1.4-1.4
			c-1.3-1.3-2.9-2.3-4.5-3.2c-0.6-0.4-1.3-0.7-1.9-1c-2.4-1.1-5-1.6-7.6-1.8c-0.6,0-1.3-0.1-1.9-0.1c-0.1,0-0.4,0-0.6,0
			c-2.6-4.6-6.5-10.1-11.7-12.1c-0.8-0.3-1.6-0.5-2.4-0.7c-4.1-0.8-8.8,0-12.4,2c-1.1,0.6-2.2,1.4-3,2.3c-1,1-1.9,2.2-2.4,3.5
			c-1.1,2.6-1.3,5.9-0.8,8.6c0.1,0.8,0.3,1.6,0.6,2.4c0.3,0.9,0.7,1.7,1.2,2.5c0,0.1,0.4,0.5,0.4,0.5c3.1-3.2,7.4-5.1,11.8-4.7
			c1.9,0.2,4.1,0.8,5.4,2.3c-1.1,0.5-2.1,0.9-3.2,1.5c-0.7,0.4-1.5,0.8-2.2,1.2c-2.7,1.4-5.7,2.4-8.7,2.4c-5.5,0-7.7-3.6-7.7-3.7
			c-0.2-0.3-0.6-0.5-0.9-0.5c-0.4,0.1-0.7,0.4-0.7,0.7c-0.1,0.8-0.2,1.6-0.2,2.4c0,2.4,1.1,4.9,2.6,6.7c0.4,0.5,1,1,1.6,1.4
			c2.2,1.5,5.1,1.9,7.7,1.9c6.8,0,14.7-2.9,18.1-4.3c-0.1,0.7,0,1.4,0.6,1.9c0.5,0.4,1.1,0.5,1.9,0.3c0.5-0.1,1-0.4,1.4-0.6
			c0.5-0.3,1-0.5,1.5-0.5c3.5-0.5,6.9,1.7,8.8,4c2.9,3.5,4.4,8,4.2,12c-0.1,1.1-0.2,2.6-0.6,3.7c-0.4,1.1-0.9,2.2-1.7,3.7
			c-1.7,3.1-5.2,8.3-10.5,9.1c-1.4,0.2-3,0.1-4.3-0.2c-0.5-0.1-0.9,0.2-1.1,0.6c0,0.1-0.9,2.9,0.7,5.9c0.4,0.8,1,1.5,1.6,2.1
			c0.7,0.6,1.5,1.2,2.3,1.6c1.3,0.7,2.7,1.1,4.1,1.1c0.4,0,0.9,0,1.3,0c1.3-0.1,2.6-0.5,3.8-1c0.3-0.1,0.7-0.3,1-0.4
			c1.7-0.8,3.3-1.8,4.6-3.2c0.3-0.3,0.6-0.7,0.8-1.1c0.1-0.1,0.3-0.4,0.3-0.5c0,0.2-0.9,0.7-1.1,0.8c-0.9,0.6-1.9,1.1-2.9,1.6
			c-0.5,0.2-0.9,0.4-1.4,0.6c-0.8,0.4-1.6,0.7-2.5,0.9c-0.8,0.2-1.6,0.4-2.5,0.4c-1,0.1-2.1,0-3.1-0.2c-0.3-0.1-0.6-0.1-0.9-0.2
			c-0.3-0.1-0.5-0.2-0.8-0.3c-0.8-0.4-1.5-0.9-2.2-1.5c-0.2-0.2-0.3-0.3-0.5-0.5c-0.4-0.5-0.6-1.2,0-1.7c0,0,0,0,0,0
			c0.5,0.3,1,0.5,1.5,0.7c4,1.6,8.1,0.8,11.7-1.3c2.5-1.5,4.8-3.2,6.7-5.4c1.2-1.3,2.2-2.8,3.2-4.2C261.7,135.3,265.9,129,265.5,121
			z M207.4,103.4c-0.2-0.6-0.3-1.2-0.3-1.7c1.4,1.3,3.9,2.8,7.8,2.8c0.7,0,1.3-0.1,2-0.1c2.6-0.3,5.2-1.3,7.6-2.4
			c0.7-0.3,1.3-0.7,1.9-1c1.8-1,3.7-2,5.6-2.6c1.5-0.5,3.1-0.8,4.7-1c1.4-0.2,2.8-0.3,4.2-0.3c0.8,0,1.6,0,2.4,0.1
			c2.8,0.2,5.6,0.9,8.1,2.1c1.7,0.8,3.3,2,4.3,3.7c-0.3-0.1-0.8-0.2-1.6-0.7c-0.3-0.2-4.4-2.7-8.9-2.7c-0.6,0-1.1,0-1.7,0.1
			c-0.9,0.1-1.8,0.2-2.2,0.3c-0.1,0-0.2,0-0.4,0.1c-2.4,0.3-5,0.9-7.5,1.8c-0.7,0.2-1.4,0.5-2.1,0.8c-0.4,0.2-0.8,0.3-1.2,0.5
			c-0.7,0.3-1.4,0.6-2,0.8c-0.9,0.3-1.8,0.6-2.8,0.9c-0.4,0.1-0.8,0.2-1.1,0.4c-1.2,0.4-2.7,0.8-4.1,1.1c-1.1,0.2-2.3,0.3-3.3,0.3
			c-2.2-0.1-4.3-0.2-6.2-0.9c-0.5-0.2-1-0.4-1.5-0.7C208.6,104.6,207.9,104.1,207.4,103.4z M236.1,105c-1.7,0.7-11.1,4.8-18.9,4.8
			c-1.2,0-2.5-0.2-3.7-0.4c-1.4-0.3-2.8-0.8-3.8-1.8c-0.1-0.1-0.3-0.3-0.4-0.4c0.3,0.1,0.5,0.2,0.8,0.3c2.2,0.8,4.4,0.9,6.7,1
			c0.1,0,0.3,0,0.5,0c1.1,0,2.2-0.2,3.2-0.3c1.6-0.3,3.1-0.7,4.4-1.1c0.4-0.1,0.7-0.2,1.1-0.4c1-0.3,1.9-0.6,2.9-1
			c0.7-0.3,1.4-0.6,2.1-0.9c0.4-0.2,0.8-0.3,1.1-0.5c0.7-0.3,1.4-0.5,2-0.8c1.3-0.5,2.7-0.9,4-1.2C237.4,103.1,236.7,104,236.1,105z
			 M241.4,105.6c-0.5,0.2-1.1,0.4-1.6,0.7c-0.4,0.2-0.8,0.5-1.2,0.7c-0.4,0.3-0.9,0.7-1.5,0.7c0,0,0.1-0.6,0.1-0.7
			c0.1-0.4,0.2-0.7,0.4-1.1c0-0.1,0.1-0.2,0.1-0.3c1.8-2.9,4.2-4.1,7.4-4.1c4.1,0,8.1,2,8.1,2.1c0,0,0,0,0,0c1.2,0.7,2.1,1,2.7,1
			c0.8,0,1.2-0.4,1.3-0.6c0.5-0.7,0.2-1.7,0.2-1.9c-0.3-0.9-1.1-1.7-1.8-2.3c-1.5-1.4-3.3-2.3-5.2-3c-0.7-0.2-1.3-0.5-2-0.7
			c-2.4-0.7-4.9-1.1-7.3-1.1c-1.7,0-3.4,0.1-5,0.4c-0.8,0.1-1.6,0.3-2.4,0.5c-0.5-0.7-3.5-4.4-10.4-4.3c0,0-5.1-0.5-10.2,4.1
			c-1.1,1-1.3-2.2-1.3-2.6c-0.2-2.7-0.1-5.7,1.5-8c0.7-1.1,1.6-2.2,2.8-2.9c0,0,4.3-3.1,10.8-2.6c0,0,5.4,0.2,10.5,6.9
			c0,0,3,4.7,3.6,6.3c0-0.1,0.9,0,1,0c0.3,0,0.7,0,1,0c2.3,0.1,4.6,0.7,6.8,1.3c2.1,0.6,4.1,1.5,5.9,2.7c0.8,0.6,1.6,1.2,2.4,1.9
			c0.9,0.8,1.7,1.6,2.4,2.6c0.5,0.7,1,1.3,1.3,2c0.3,0.7,0.6,1.4,0.8,2.2c0.2,0.8,0.3,1.9,0.2,2.8c-0.1,1.1-0.9,1.6-1.9,1.4
			c-0.6-0.1-1.1-0.3-1.5-0.6c-0.7-0.5-1.3-1.1-2-1.6c-1.9-1.3-4.2-2.3-6.5-2.7c-0.6-0.1-1.2-0.2-1.8-0.3c-1-0.1-2-0.1-3.1,0
			c-0.9,0.1-1.7,0.2-2.6,0.4C242.8,105.2,242.1,105.4,241.4,105.6z"/>
		<path d="M295.6,172.8c0,0.1-2.8,0.3-2.9,0.3c-3.2-0.3-5-2.7-5.7-5.6c-0.5-1.9-0.6-3.8-0.6-5.8c0,0,0.3-10.4,0.6-12.2l-3-1
			c0,0,0,3.3-0.8,12c0,0-1.4,14.5,9.3,15.2c0,0-2.2,4.4-7.5,2c0,0-4.7-1.9-6-8.4c-0.5-2.4-0.8-5.7-0.5-9.5c0,0,1.3-10.2,2.7-13.6
			l-1.8-2.1c-0.5,1.8-0.8,3.6-1.2,5.5c-0.8,4.1-1.6,8.3-1.6,12.5c0,1.3,0,2.7,0,4c0.1,2.2,0.4,4.4,1.2,6.4c0.3,1.3,0.5,2.7,0.6,3.6
			c-0.6-1.1-1.3-2.2-2.4-3.1c-1.6-1.3-3.2-2.6-4.3-4.4c-1-1.8-1.2-4.1-1-6.1c0.3-3.7,1.8-7.3,2.6-10.9c0.5-2.2,1-4.7,0.7-7
			c-0.3,0.9-0.5,1.7-0.8,2.5c-1.4,4.5-2.8,9.1-4.2,13.6c-1.6,5,1.2,9.2,1.2,9.2c1.3,2.2,5.8,6.3,5.8,6.3c2.8,3.4,0.7,6.3,0.7,6.3
			c-1.4-2.1-3.7-3.5-5.8-4.9c-0.2-0.1-1.7-1.4-2.6-2.1c-1.8-1.7-3.2-3.5-4.2-5.6c-0.1-1.5-0.2-3-0.4-4.1c-0.1-0.7-0.4-1-0.9-1
			c-0.5,0-0.6,0.5-0.6,1c0.6,6.8-0.9,12.1-4.3,16c-2.4,2.7-5,3.7-5.3,3.8c-2.3,0.6-4.8,0.6-6.8,0.5c0.1,0,0.2,0,0.2-0.1
			c0.7-0.2,1.4-0.5,2-0.9c1.3-0.8,2.4-1.8,3.3-3c0.5-0.7,1-1.6,1.4-2.4c0.6-1.2,0.9-2.5,1-3.8c0.2-1.9,0.1-3.7,0.3-5.6
			c0.1-1.1,0.4-2.1,0.8-3.1c1-2.9,2.6-5.4,4.4-7.8c0.5-0.7,1-1.4,1.5-2.1c0.6-0.9,1.3-1.8,1.9-2.7c0.3-0.4,0.6-0.9,0.9-1.3
			c0.9-1.4,1.9-2.8,2.8-4.2c1-1.5,2-3.1,2.9-4.7c0.9-1.6,1.9-3.1,2.7-4.7c0.8-1.5,1.5-2.9,2.2-4.4c0.1-0.2,0.2-0.3,0.2-0.5
			c0,0,3.7-7.6,1.2-14c0.2,0.4,0.1,1,0.1,1.4c0,1.9-0.3,3.8-0.8,5.7c-0.3,1.5-0.7,3-1.3,4.4c-0.6,1.5-1.3,2.9-2.1,4.3
			c-0.6,1.2-1.2,2.4-1.8,3.6c-0.7,1.3-1.5,2.7-2.2,4c-0.8,1.4-1.7,2.8-2.5,4.1c-0.9,1.3-1.8,2.6-2.8,3.9c-0.1,0.1-0.2,0.3-0.3,0.4
			c-0.3,0.4-2.9,3.8-3.5,4.7c-0.8,1.2-1.6,2.4-2.4,3.6c-0.8,1.2-1.5,2.3-2,3.6c-0.7,1.7-1,3.6-1.4,5.4c0,0.2-0.1,0.5-0.1,0.7
			c-0.2,1.5-0.3,3-0.5,4.4c-0.1,0.7-0.3,1.4-0.5,2.1c-0.3,1.2-0.7,2.4-1.4,3.5c-0.6,0.9-1.4,1.9-2.3,2.5c-0.5,0.4-1.2,0.7-1.8,0.9
			c0,0,0.1-0.5,0.1-0.6c0.1-0.4,0.2-0.8,0.3-1.2c0.3-1.7,0.4-3.4,0.4-5c0-1.2-0.1-2.4-0.3-3.7c0-0.4-0.1-0.7-0.1-1.1
			c-0.1-0.9,0.2-1.8,0.4-2.7c0.2-0.6,0.3-1.2,0.5-1.8c0.4-1.1,0.8-2.2,1.3-3.2c0.3-0.7,0.7-1.3,1.1-2c1.2-2,2.4-3.5,3.8-5.3
			c0.8-1,1.8-2.4,2.7-3.4c2.8-3.1,5.3-6.6,7.6-10.1c0.7-1.1,1.4-2.1,2-3.2c0,0,6.6-9.9,6.7-22.9c0,0,0.1-11.6-5.2-19.5l0.1,4.2
			c0,0,4.9,7.5,2.6,22.3c0,0-1.5,10-8.7,20.2c-2,2.9-4.5,5.5-6.7,8.2c-0.8,1-1.7,2.1-2.5,3.2c-2.1,2.7-4.3,5.5-5.8,8.6
			c-0.3,0.5-0.5,1.1-0.8,1.6c-1.2,2.3-3,4.2-5.1,5.6c-0.6,0.4-1.2,0.8-1.8,1.1c-0.9,0.4-1.8,0.8-2.7,1.2c-1.3,0.5-2.7,1-4,1.4
			c-1.2,0.3-2.4,0.6-3.7,0.7c-0.1,0-0.3,0-0.4,0.1c0,0-8.1,1.2-10-7.3c0,0,4.1,4.4,8.4,4.2c0,0,12.4,0.9,20.1-12.7
			c0,0-4.5,6-12.3,9.5c-0.9,0.4-1.9,0.8-2.9,1c-2.2,0.6-4.5,0.8-6.6,0.2c-1-0.3-2-0.6-2.8-1.2c-0.3-0.2-0.7-0.4-1-0.7
			c-0.1-0.1-0.6-0.8-0.6-0.8c0,0,8.4-1.6,18.9-14.3c0,0,2.3-2.9,4.2-2.7c1.9,0.2-3.8-1.8-3.8-1.8s0.5,1.1-2.7,4.5c0,0-6,7.2-13,11.2
			c0,0-3.5,1.9-5.9,0.7c0,0-0.9-0.9-1.6,0.1c0,0-0.6,1.2,0.5,4.6c0,0,0.3,1.2,1.2,2.7c-1.2,1.5-6.4,8.4-5.9,19.7
			c0,3.5,0,9.2-0.4,10.5c-0.1,0.4,0,0.7,0.3,1c1.5,1.9,1.7,5.3,1.7,5.3c0.7,1.7,0.9,3.4,1.5,5.1c0.5,1.5,0.9,2.6,1.1,3.5
			c0.5,1.9,1.3,3.6,1.5,5.6c0.1,0.9,0.2,1.8,0.2,2.7c0,0.2-0.1,0.9,0,1.1c0.8,1.2,1.5,2.5,2.3,3.7c0.9,1.5,1.8,2.6,1.8,4.5
			c0,0.7,0,1.4,0.5,1.8c0.4,0.4,1,0.1,1.4,0.4c0.6,0.5,0.7,1.7,0.8,2.5c0.1,1.2,0.4,2.6,0.9,3.9c1.3,3.5,3.3,6.8,5.1,10.1
			c0.1,0.2,0-0.1,0.1,0.2c-0.1,0,1.4,3.3,1.5,3.3c6.9,15.5,6,40.9,5.9,43.8c0,0,0,0,0,0c0,2.3,0.3,5.6,0.3,5.6
			c-0.1,2.4-0.2,5.1-0.4,7.5c-0.2,2.3-0.5,4.5-0.9,6.7c-0.3,2-0.8,4-1.2,6c-0.4,1.8-0.8,3.5-1.3,5.2c-0.4,1.6-0.9,3.2-1.5,4.7
			c-0.5,1.4-1.1,2.9-1.7,4.3c-0.5,1.2-1,2.3-1.5,3.5c-0.4,0.9-0.8,1.7-1.3,2.6c-0.4,0.8-0.9,1.6-1.4,2.4c-0.6,1-1.3,1.9-1.9,2.9
			c-0.2,0.4-1.1,1.4-0.7,1.8c0.1,0.2,0.4,0.2,0.6,0.1c8.3-3,14.1-9.2,18.1-15.1c-0.4,6.5-0.5,20.4,3.5,32.8
			c-2.3,4.8-10.1,23.9-2,49.7c-3.8,8.9-8.7,29.2,9.6,53.7c0,0,18.6-21.6,8.4-53.6c3.1-12.7,4.3-30.7-2.8-51.9
			c2.3-7.2,4.2-14.9,3.5-24.8c6.7,8.6,13.1,8.4,13.1,8.4c3.6,0.2,1.8-1.8,1.8-1.8c-11.9-15.3-12.8-53.5-12.8-53.5
			c0-4.1,0.2-8.2,0.5-12.2c0.3-3.6,0.8-7.2,1.4-10.7c0.6-3,1.2-5.9,1.9-8.9c0.4-2,0.8-4,1.4-5.9c0.4-1.4,1.1-2.8,1.8-4.1
			c0.1-0.2,0.2-0.3,0.3-0.5c0.3-0.5,0.7-1.1,1-1.7c1.4-2.6,2.4-5.4,3.2-8.2c0,0,0.2-0.7,0.2-0.7c0.7,0,1.7-0.2,2.2-0.8
			c0.7-0.9,0.4-2.2,0.4-3.3c0-1.3,0.1-2.5,0.6-3.7c0.3-0.7,0.5-1.7,1.4-1.8c0.8-0.1,1.7,0.2,2.4-0.5c0.5-0.5,0.7-1.4,0.7-2.1
			c0-0.4,0-0.8-0.1-1.2c-0.3-1.2-0.7-2.3-0.7-3.5c0-1.3,0.2-2.5,0.7-3.7c0.2-0.6,0.5-1.3,0.8-1.9c0.4-0.8,1-1.6,1.5-2.4
			c0.5-0.8,0.9-1.6,1.3-2.4c0.7-1.4,1.3-3,1.8-4.5c0.7-2.4,0.9-5,1.1-7.5c0-0.3,0-0.6,0-0.9c0-0.1,0-0.7,0.1-0.8
			c4.7-9.4,1.1-23.1,1.1-23.1c-0.2-0.8-0.2-1.5-0.1-2c1-0.4,2-1.1,2.8-2.2C294.9,178.3,296.7,175.5,295.6,172.8z M253.4,187.3
			c0.5-0.2,3.3-1.3,6-4.2c0.8-0.9,1.6-2,2.3-3.3c0.1,3,0.4,6,1.5,8.9c0.4,1,0.8,1.9,1.2,2.8c0.6,1.3,1.1,2.4,1.5,3.7
			c0.6,1.9,1.2,4.6,0,6.4c-0.3,0.4-0.2,1,0.3,1.3c0.2,0.1,0.3,0.2,0.5,0.2c0.3,0,0.6-0.1,0.8-0.4c3.1-4.6,2.3-10,1.2-15.6
			c-0.1-0.5-0.2-1-0.3-1.5c-0.5-2.2-0.9-4.4-0.9-6.6c0-0.5-0.4-0.9-0.9-0.9c-0.5,0-0.9,0.4-0.9,0.9c0,2.4,0.5,4.7,0.9,6.9
			c0.1,0.5,0.2,1,0.3,1.5c0.5,2.6,1,5.2,0.9,7.7c0-0.2-0.1-0.3-0.1-0.4c-0.4-1.4-1-2.7-1.6-3.9c-0.4-0.9-0.8-1.8-1.1-2.7
			c-1.2-3.2-1.4-6.9-1.4-10.3v-0.2c0-1.5,0.2-2.9,0.4-4.4c1.5,2.3,3.6,4.3,6.1,6.3c2.7,2.2,4.5,3.8,5.3,6.5c0.6,1.7,0.7,3.7,0.7,5.6
			c-0.1,1.2-0.3,2.4-0.6,3.5c-0.3,1-0.7,2-1.2,3c-0.4,0.8-0.8,1.6-1.4,2.4c-0.7,1.1-1.5,2.1-2.5,3c-0.3,0.3-0.5,0.5-0.8,0.7
			c-0.4,0.3-0.7,0.6-1.1,0.9c-0.4,0.4-0.9,0.9-1.2,1.3c-0.2,0.3-0.4,0.5-0.6,0.8c-1.9-3.5-7-7.7-7.7-8.3
			C253.4,194.2,253.3,188.9,253.4,187.3z M244.5,181.3c0,0-0.9,2.6-2.5,4.3c-0.2,0-0.4,0.1-0.5,0.3c-0.2,0.2-0.3,0.6-0.2,0.9
			c1.6,4.7,1.3,9.1,0.6,12.4c-0.4-3.3-1.3-6-1.5-6.5c-1.2-5.5-0.6-10.3,1.7-14.1c0.8-1.4,1.8-2.4,2.5-3.1
			C244.9,177.3,245,179.4,244.5,181.3z M244.3,172.8c0,0,0.1,0.3,0.1,0.7c-0.9,0.7-2.4,2-3.7,4.1c-1.8,2.9-3.6,8-2,15.6
			c0,0,0,0.1,0,0.1c0,0.1,2.3,6.9,1.3,11.7c-0.1,0.4,0.2,0.9,0.6,1c0.1,0,0.2,0.1,0.3,0.1c0.3,0,0.6-0.2,0.8-0.5
			c0.2-0.4,4.3-8.4,1.7-17.9c1.8,0.2,4.9,0.5,8.1,0c0,1.3,0.2,3.5,1.3,6.1c-1.9,5.1-5.9,8.8-7.6,10.2c-2.1,1.4-3.7,3.2-4.6,4.4
			c-1-2.5-2.8-4.3-2.8-4.4c0,0,0,0,0,0c-6.1-5.3-6.1-11.3-6.1-11.7c0.8-9.8,3.8-14.2,5-15.7C238.8,175.8,241.4,174.5,244.3,172.8z
			 M231.1,178.2c0.8-0.2,1.6-0.4,2.5-0.6c-1.3,2.3-2.9,6.3-3.7,12.5c-1.9,5.6-7,8.2-9.7,9.2c-1.4,0.4-2.7,0.8-3.9,1.3
			c2.6-3.5,4.8-8.2,4.9-8.4l0,0C225,183.5,229.4,179.5,231.1,178.2z M213.5,201.1c0.2-3.1,0.1-7.2,0.1-7.9c0,0,0,0,0,0
			c-0.4-9.8,3.8-16.2,5.2-18.1c1.6,1.9,4.2,3.7,8.3,3.6c0,0,0.2,0,0.7,0c-2.3,2.2-5.4,6.2-8.3,12.7
			C218.6,193.5,216,198.5,213.5,201.1z M246.1,335.8c1.4-2.6,2.4-5,3-6.6c0.8,8.6,3.6,39.7,3.4,51.5
			C251,378.9,242,366.6,246.1,335.8z M253.4,361.3c0,0-1.8-16-2.8-31.1c1.2,2,1.9,3.1,1.9,3.1c0.5-1.1,1.2-2.3,1.8-3.4
			C254.2,334.8,253.8,355.3,253.4,361.3z M253.9,385.2c0.2,5.7,0.5,18.9,0,25c0,0-1.3-13.1-1.4-25c0.2,0.3,0.5,0.7,0.7,1
			C253.2,386.3,253.5,385.9,253.9,385.2z M247.6,376c0.8,2,1.6,4,2.7,5.8c0.4,6.7,1.5,25.4,3.6,55.5h-0.4
			C253.4,437.3,235.9,410.6,247.6,376z M253.4,471.4c0,0-15.5-19.4-7.6-45.2c1.3,3.7,3,7.6,5.1,11.5
			C251.3,442.7,252.9,463.8,253.4,471.4L253.4,471.4z M254.2,454.9c0,0-1.1-8.6-1.4-13.7c0.5,0.9,1,1.8,1.6,2.7c0,0,0.6-0.9,1.5-2.5
			C255.4,445.4,254.7,452,254.2,454.9z M255,471.1c0.4-5.9,1.9-25.4,2.6-33c1.2-2.5,2.5-5.7,3.7-9.5
			C263.1,438.3,264.3,455.4,255,471.1z M255.1,437.3h-0.1c0.2-8.9,1.1-48.3,1.6-57.4c0.6-1.4,1.3-2.9,2-4.7
			C259.8,379.6,268.3,410.1,255.1,437.3z M254,380.1c0.2-5.4,0.7-21.3,2.2-47.8c1.3,3.1,2.6,5.7,4,8
			C260.9,347.3,262.3,368.1,254,380.1z M287.1,213.7c-0.4,1.7-1,3.4-1.9,4.9c-0.8,1.5-2,2.7-2.8,4.2c-0.7,1.4-1.3,2.9-1.6,4.5
			c-0.4,2.3-0.4,4.6,0.2,6.9c0.1,0.4,0.2,0.9,0.4,1.3c-6.4-0.5-4.4,9-4.4,9c-1.2,0.5-2.8,0.1-2.8,0.1l-0.1,1.1
			c-0.4,6.8-3.7,9.9-3.7,9.9c-5,13.2-6.7,31-6.7,31c-1.5,13.1,0.7,27.7,0.7,27.7c1.7,24.7,10.2,38,10.2,38c-6.4-2.3-9.6-7.5-9.6-7.5
			c-6.3-10-8.2-18.6-8.5-19.9c9.5-23.9,3.8-34.8,3.8-34.8l-0.6,2.7c3,17.5-7.1,36.8-7.1,36.8c-10-12.2-10-37.4-10-37.4l-1.4-2.2
			c-0.9,15.2,2.3,26.3,5.6,33.4c-0.1,0.9-0.2,1.8-0.4,2.6c-0.4,1.6-0.9,3.2-1.4,4.7c-0.6,1.5-1.3,3.1-2,4.5
			c-1.3,2.5-2.6,5.1-4.2,7.4c-0.4,0.6-0.9,1.3-1.4,1.9c-1,1.2-2.1,2.3-3.2,3.4c-0.9,0.9-1.7,1.8-2.7,2.6c-0.4,0.3-0.9,0.7-1.4,0.9
			c-0.2,0.1-0.3,0.1-0.5,0c-0.1,0-0.1,0-0.2-0.1c0,0,0,0,0,0c10-20.5,10.4-36.2,10.8-41.3c0.3-3.7-0.2-15-0.5-20.8
			c0-0.9-0.1-1.8-0.1-2.7c0-0.1,0-0.3,0-0.4c0-0.4,0-0.6,0-0.6c-0.7-19.9-7.1-30.7-7.1-30.7c-4.8-6.8-6.9-16.4-6.9-16.4
			c-0.1-2-1.7-2.6-1.7-2.6c-2.8-5.7-3.2-7.8-3.2-7.8c-0.7-5.6-4-12.8-4-12.8c-2-5-1.4-10.2-1-12.2c0.2-0.1,0.3-0.2,0.5-0.2
			c1.5-0.7,3.3-1.3,5.5-1.9c2.6-0.7,4.6-1.5,6.6-2.8c0.7-0.4,1.5-1,2.3-1.8c0.8,2.5,2.5,5.9,6.1,9.1c0.2,0.2,2.4,2.5,2.9,5.3
			c0.1,0.4,0.4,0.7,0.7,0.7c0.1,0,0.1,0,0.2,0c0.3,0,0.6-0.2,0.8-0.5c0.4-0.6,0.8-1.2,1.3-1.8c1.1-1.4,2.3-2.6,3.8-3.6
			c0.8-0.5,1.7-1,2.6-1.5c0.9-0.5,1.7-1.1,2.5-1.7c0.5-0.3,0.9-0.7,1.3-1.1c0.9-0.8,1.7-1.7,2.3-2.8c0.1-0.2,0.3-0.5,0.4-0.7
			c0.7,0.9,1.5,1.7,2.5,2.6c0,0,0,0,0,0c1.1,0.9,2.2,1.9,3.3,2.9c1.1,1,2.1,2.1,3,3.3c0.2,0.3,0.5,0.6,0.7,1
			c0.2,0.4,0.5,0.8,0.7,1.3c0.2,0.6,0.1,1.6,1.1,1.6c0.4,0,0.7-0.3,0.9-0.7c0.3-0.8,0.7-1.4,1.2-2.1c0.4-0.6,0.9-1.1,1.4-1.5
			c0.4-0.4,0.9-0.7,1.4-1c0.9-0.6,1.9-1.3,2.7-2c0.7-0.7,1.4-1.4,1.9-2.2c0.5-0.8,0.9-1.6,1.4-2.4c0.3-0.6,0.6-1.2,1-1.8
			c0.1-0.3,0.3-0.5,0.3-0.8c0,0,0,0,0-0.1c-0.1,0.2,0.2,0.5,0.3,0.6c0.3,0.3,0.6,0.6,0.9,1c0.7,0.9,1.4,1.7,2.3,2.5
			c0.6,0.6,1.2,1.1,1.8,1.6c0.4,0.4,0.8,0.7,1.2,1.1c0.7,0.6,1.2,1.3,1.8,2.1c0.3,0.4,0.6,0.9,0.8,1.5
			C287.8,208.8,287.6,211.2,287.1,213.7z M290.3,198.6c-0.5,5.9-1.7,4.5-1.7,4.5c-2.2-1.6-4.3-3.4-6.1-5.4c-1.3-1.4-2.4-2.9-3.3-4.6
			c-0.5-0.9-1-2.1-1.3-3.1c0-0.1,0-0.2-0.1-0.3c-0.2-1.1-0.2-2.2-0.4-3.3c0-0.1-0.1-0.4-0.1-0.4c0.2-0.6,0.6-1.2,1-1.7
			c0.4-0.5,0.8-0.9,1.3-1.4c0.2-0.1,0.3-0.3,0.5-0.4c0.1-0.2,0.3-0.3,0.5-0.4c0.1,0,0.1-0.1,0.2-0.1c0.1,0,0.2,0.1,0.2,0.2
			c0.1,0.3,0.2,0.5,0.3,0.8c0,0.1,0.1,0.2,0.1,0.3c0.5,1.1,1.1,2.1,1.6,3.1c0.9,1.7,2.2,3.1,3.2,4.8c0.3,0.5,0.5,1,0.7,1.5
			c0.4,0.9,0.4,1.8,0.6,2.7c0.2,0.7,0.3,2.5,0.3,3.3c0,0,3.2-12-2.3-15.8c0,0,1.2,2.6,1.4,6.4c0,0-4.3-5.5-4.5-9.7
			c0,0,2.5,1.4,5.2,1.5c0.1,0,0.2,0,0.4,0C291.8,185.4,290.3,198.6,290.3,198.6z"/>
		<path d="M274.1,90.8c0.4,1.2,0.3,3.3,0.3,3.3c6.1,6.8,4.1,17.6,4.1,17.6c0.9,1.8,1.6,4.1,1.6,4.1
			C283.4,97.9,274.1,90.8,274.1,90.8z"/>
		<path d="M222.5,82.5c0.2-0.2,0.7-0.2,0.9-0.2c0.9-0.1,1.8-0.2,2.6-0.2c2,0.1,4.1,0.5,5.8,1.4c2.8,1.4,4,3.7,5.2,6.5
			c0.1,0.2-2.4,0.1-2.6,0.1c-0.8-0.2-1.6-0.7-2.4-1c-0.9-0.4-1.8-0.5-2.8-0.6c-0.8,0-1.6,0-2.3-0.5c-0.3-0.3-0.6-0.6-0.9-0.8
			c0.1,0.1,0.7-0.1,0.9-0.1c0.4,0,0.7,0,1.1,0c1.3,0,2.5,0.1,3.8,0.2c0.2,0,0.1-0.8,0.1-0.8c-0.3-1-1.3-1.7-2.2-2
			c-0.8-0.3-1.8-0.6-2.7-0.7c-1.1-0.1-2.2-0.2-3.3-0.3C223.6,83.3,221.9,83,222.5,82.5z"/>
	</g>
	<g>
		<g>
			<path d="M246.1,61.7c0-1.4-1.2-2.6-2.6-2.6h-6.1c-1.4,0-2.6,1.2-2.6,2.6v0.1c0,1.4,1.2,2.6,2.6,2.6h6.1
				C245,64.4,246.1,63.2,246.1,61.7L246.1,61.7z M243.8,61.8c0,0.8-0.7,1.5-1.6,1.5H238c-1,0-1.7-0.7-1.7-1.5v-0.1
				c0-0.8,0.8-1.5,1.7-1.5h4.1C243.1,60.2,243.8,60.9,243.8,61.8L243.8,61.8z"/>
			<path d="M259.3,61.6c0-1.4-1.1-2.6-2.6-2.7l-6.1-0.1c-1.4,0-2.6,1.1-2.7,2.6l0,0.1c0,1.4,1.1,2.6,2.6,2.7l6.1,0.1
				C258,64.3,259.2,63.1,259.3,61.6L259.3,61.6z M256.9,61.6c0,0.8-0.7,1.5-1.6,1.5l-4.1-0.1c-1,0-1.8-0.8-1.8-1.6l0-0.1
				c0-0.8,0.9-1.5,1.8-1.4l4.1,0.1C256.3,60,256.9,60.8,256.9,61.6L256.9,61.6z"/>
			<path d="M272.8,62.2c0.1-1.4-1.1-2.7-2.5-2.7l-6.1-0.2c-1.4-0.1-2.7,1.1-2.7,2.5l0,0.1c-0.1,1.4,1.1,2.7,2.5,2.7l6.1,0.2
				C271.5,64.8,272.7,63.7,272.8,62.2L272.8,62.2z M270.4,62.1c0,0.8-0.7,1.5-1.6,1.5l-4.1-0.2c-1,0-1.8-0.8-1.7-1.6l0-0.1
				c0-0.8,0.9-1.4,1.9-1.4l4.1,0.2C269.8,60.5,270.4,61.2,270.4,62.1L270.4,62.1z"/>
		</g>
		<path d="M254.1,47.1c-0.1,0-0.1,0-0.2,0c-0.4,0-0.7-0.4-0.7-0.8c0-0.4,0.4-0.7,0.8-0.7c0.9,0,1.7-0.3,2.1-0.9
			c0.3-0.5,0.3-1.1,0-1.8c-0.2-0.5-0.5-0.7-1-0.8c-0.7-0.2-1.7,0.1-2.3,0.7c-0.3,0.3-0.8,0.2-1-0.1c-0.3-0.3-0.2-0.8,0.1-1
			c1-0.8,2.5-1.2,3.6-0.9c0.9,0.2,1.6,0.8,2,1.7c0.5,1.2,0.5,2.3-0.1,3.2C256.6,46.6,255.4,47.1,254.1,47.1z"/>
		<path d="M292.2,31.6c-1.4,0.2-2.4,1.3-3.5,2c-1,0.7-2.2,1.2-3.4,1.5c-1.3,0.3-2.6,0.4-3.9,0.7c-1.2,0.3-2.3,0.7-3.3,1.4
			c-0.5,0.3-0.9,0.6-1.3,1c-0.1,0.1-1,1-1,1.3c-0.1,0-0.2,0-0.3-0.1c-0.3-0.1-0.5-0.4-0.8-0.6c-0.8-0.5-1.8-0.8-2.8-0.8
			c-0.6,0-1.2,0-1.7,0.2c-0.4,0.2-0.9,0.7-1.4,0.6c-0.3-0.1-0.4-0.4-0.6-0.7c-0.2-0.4-0.4-0.7-0.6-1c-0.7-0.7-1.6-1.2-2.6-1.4
			c-0.3-0.1-1-0.3-1.1-0.6c-0.1-0.2,0-0.5,0-0.7c0-1.5-1.3-2.6-2.4-3.5c-1-0.8-1.9-1.7-2.9-2.5c-0.5-0.4-1-0.8-1.5-1.3
			c-0.6-0.5-1-1.1-1.4-1.8c-0.5-1.1-0.6-2.2-2.1-1.9c-1.1,0.2-1,1.4-1.4,2.2c-0.6,1.2-1.4,2.3-2.5,3.1c-1.7,1.3-3.5,2.4-4.7,4.3
			c-0.3,0.5-0.5,1-0.5,1.6c0,0-0.2,1.3,0.3,2.8c0,0-3.4-0.5-5.4,1.8c0,0-2.8-2.5-6.6-0.7c0,0-1.5-1.4-1.6-1.5c-1.2-1-2.5-1.7-4.1-2
			c-1.6-0.2-3.2,0-4.8-0.4c-1.7-0.5-3.7-1.7-4.9-3c0,0-0.9-0.5-1,0.4c0,0-0.2,1.1,1.7,4c0,0,7.2,12,13.5,32.6l0.1,0.1h2.2
			c0,0-6.3-21.3-13.6-32.5c0,0,0.8,0.1,0.9,0.1c1.5,0.4,3,0.6,4.5,0.6c1.9-0.1,3.3,1.6,4.5,2.9c0.7,0.8,1.2,1.7,1.7,2.6
			c0,0,0.7,0.6,1-0.2c0,0,0.4-1.9,1.6-2.1c0.1,0,0.2-0.1,0.3-0.1c0.3,0,0.5,0,0.8-0.1c0.4,0,0.8,0,1.1,0.1c0.4,0.1,0.8,0.3,1.1,0.5
			c0.2,0.2,0.4,0.4,0.6,0.5c0.2,0.2,0.4,0.4,0.5,0.6c0.1,0.3,0.2,0.5,0.2,0.8c0,0.2,0,0.5,0,0.7c0.1,1.2,0,2.3-0.3,3.4
			c-0.2,0.7-0.4,1.5-0.7,2.2c-0.9,2-1.5,4.1-0.6,6.2c0.3,0.6,0.7,1.2,0.9,1.8c0,0.1-1.2-0.1-1.2-0.1c-0.8-0.1-1.6-0.3-2.1-1.1
			c-0.3-0.6-0.6-1.3-0.7-1.9c-0.1-0.6-0.3-1.9-1.2-1.1c0,0-0.6,0.5-0.5,1.8c0.2,1.3,1.2,2.5,2.3,3.1c1.1,0.5,2.4,0.5,3.5,0.5
			c1.6,0.1,3.2,0,4.8-0.3c0.5-0.1,1-0.2,1.5-0.3c0.5-0.1,0.9-0.2,1.4-0.3c0.4-0.1,0.8-0.3,1.3-0.4c0.4-0.1,0.9-0.2,1.2-0.5
			c0.4-0.3,0.8-0.7,1-1.2c0.4-0.9,0.5-1.8,0.5-2.7c0-0.3,0-0.7,0-1c0-0.6,0-1.1-0.1-1.6c-0.1-0.6-0.2-1.2-0.2-1.7
			c0-0.3-0.1-0.7-0.1-1c-0.1-1.1-0.1-2.1,0-3.2c0-0.5,0.1-1.1,0.3-1.6c0.3-0.9,1.1-1.8,2-2.1c0.3-0.1,0.7-0.2,1-0.2
			c0.6-0.1,1.2,0,1.7,0.1c0.8,0.1,1.7,0.6,2.2,1.3c0.1,0.2,0.3,0.4,0.4,0.7c0.2,0.7,0.2,1.4,0.2,2.1c0,1.2-0.2,2.3-0.4,3.4
			c-0.1,0.3-0.2,0.8-0.2,1.1c-0.1,0.8-0.1,1.5-0.1,2.2c0,1,0.1,1.9,0.4,2.8c0.1,0.3,0.2,0.5,0.3,0.8c0.2,0.5,0.5,1,0.8,1.4
			c0,0,1.1,1.5,3.3,1.5l0,0c0,0,3.5,0.4,7.8,0.1c0,0,5.3,0,7.2-5c0,0,0.5-1.2-0.2-1.4c0,0-0.5-0.3-1,0.5c0,0-1.5,2.5-2.6,3.4
			c0,0-1.1,0.8-2,1c0,0,2.1-2.9,0.1-6.4c-0.3-0.4-0.5-0.8-0.8-1.3c-0.9-1.5-1.8-3-1.8-4.8c0-1,0-2.3,1-2.9c0.3-0.2,0.7-0.4,1-0.4
			c0.6-0.1,1.4-0.1,2,0c0.6,0.1,1.3,0.3,1.8,0.8c0.2,0.1,1.6,1.7,1.5,1.8l1.2-1c-1.3-3.5,10.7-5.7,10.7-5.7c-0.6,0.9-1,1.8-1.5,2.7
			c-1,1.8-1.8,3.7-2.7,5.6c-0.7,1.6-1.5,3.3-2.3,4.9c-0.9,1.8-1.7,3.7-2.5,5.6c-1.4,3.2-2.6,6.6-3.8,9.9c-0.4,1.2-0.9,2.4-1.3,3.6
			c0,0.1-0.5,1.4-0.5,1.4l2.8,0.2c0,0,8-22,16.6-37c0.1-0.1,0.2-0.3,0.2-0.4C293.1,31.9,292.8,31.5,292.2,31.6z M244.9,54.2
			c-0.2,0.8-1.2,1.3-1.9,1.4c-0.8,0.1-1.7,0-2.3-0.6c-0.5-0.5-0.9-1.2-0.9-2c-0.1-2,0.7-4.3,1.9-5.9c0.1-0.1,1.3,1.3,1.3,1.4
			c0.9,1,1.7,2.2,2,3.6C245,52.8,245,53.5,244.9,54.2z M260.6,52.3c0,0,0,1,0.1,2c-0.4-0.2-1.9-1.2-1.6-4.9c0-0.6,0.2-1.1,0.2-1.7
			c0.2-1.3,0.4-2.4,0.4-3.7c0-0.7,0-1.5-0.1-2.2c-0.1-0.8-0.4-1.5-1-2.2c-0.2-0.2-0.4-0.4-0.6-0.6c-0.8-0.7-2.1-1.2-3.8-1.3
			c-0.2,0-0.3,0-0.5,0c-0.4,0-0.9,0.1-1.2,0.2c-1,0.2-1.8,0.6-2.5,1.4c-0.5,0.5-0.8,1.1-1.1,1.8c-0.3,0.9-0.4,1.7-0.4,2.6
			c0,0.2,0,0.5,0,0.7c0,1.1,0.1,2.3,0.2,3.4c0,0.3,0.1,0.7,0.2,1c0.1,0.5,0.1,0.9,0.2,1.4c0,0.8,0.1,1.6-0.1,2.3
			c-0.1,0.4-0.3,0.8-0.5,1.1c-0.2,0.2-0.4,0.4-0.6,0.6c-0.1,0.1-0.2,0.1-0.4,0.2c0,0,0,0,0,0c0.2-0.9,0.2-1.9-0.1-2.8
			c0,0-1-2.9-3.5-5c-0.1-0.1-0.2-0.2-0.3-0.2c-0.2-0.2-0.4-0.4-0.6-0.6c-0.3-0.3-0.6-0.7-0.9-1.1c-0.3-0.5-0.5-0.9-0.7-1.5
			c-0.2-0.5-0.2-1-0.3-1.5c-0.1-0.3-0.1-0.6-0.1-1c0-0.2,0.1-0.5,0.2-0.7c0.2-0.3,0.4-0.5,0.7-0.6c0.2-0.1,0.4-0.2,0.6-0.2
			c0,0,2.2-0.9,4.7,1l1.4-1.6c0,0-2-1.1-1.8-3.3c0.1-1,0.5-2,1-2.7c0.5-0.8,1.4-1.3,2.1-1.9c0.7-0.6,1.5-1.2,2.2-1.8
			c0.5-0.4,1-0.8,1.5-1.3c0.1-0.2,0.4-0.2,0.6-0.1c0.3,0.2,0.5,0.5,0.7,0.8c0.2,0.3,0.5,0.7,0.8,1c0.4,0.4,0.8,0.7,1.2,0.9
			c0.8,0.5,1.6,1.1,2.3,1.6c0.2,0.2,0.4,0.3,0.6,0.5c0.2,0.2,0.5,0.4,0.7,0.6c0,0,0.7,0.9,0,1.9l-1.2,2.7c0,0,1.2,1.2,1.3,1.6
			c0,0,0.8-1,1.7-1.4c0,0,1.3-0.5,2.8,0.3c0.2,0.1,0.4,0.3,0.5,0.5c0.8,0.9,1.2,2,0.8,3.2c-0.2,0.5-0.4,0.9-0.7,1.3
			c-0.4,0.5-0.8,1.1-1.2,1.5C264.5,44.7,260.6,48.1,260.6,52.3z M269.7,52.4c0,0.8-0.1,1.6-0.5,2.3c-0.4,0.8-1.8,1.3-2.7,1.2
			c-1,0-2.1-0.4-2.7-1.2c-0.6-0.7-0.8-1.6-0.8-2.5c0.3-2.3,1.6-4.7,3.5-6.3c0.1-0.1,1.4,1.8,1.4,1.9
			C268.9,49.2,269.7,50.7,269.7,52.4z"/>
	</g>
</g>
</svg>
